<?xml version="1.0" encoding="UTF-8" standalone="no"?>
<!DOCTYPE svg PUBLIC "-//W3C//DTD SVG 1.1//EN"
 "http://www.w3.org/Graphics/SVG/1.1/DTD/svg11.dtd">
<!-- Generated by graphviz version 12.1.2 (20240928.0832)
 -->
<!-- Title: G Pages: 1 -->
<svg width="338pt" height="67pt"
 viewBox="0.00 0.00 337.50 66.50" xmlns="http://www.w3.org/2000/svg" xmlns:xlink="http://www.w3.org/1999/xlink">
<g id="graph0" class="graph" transform="scale(1 1) rotate(0) translate(4 62.5)">
<title>G</title>
<polygon fill="white" stroke="none" points="-4,4 -4,-62.5 333.5,-62.5 333.5,4 -4,4"/>
<!-- nodo0 -->
<g id="node1" class="node">
<title>nodo0</title>
<polygon fill="none" stroke="black" points="0,-0.5 0,-58 146.75,-58 146.75,-0.5 0,-0.5"/>
<text text-anchor="middle" x="63.5" y="-40.7" font-family="Times New Roman,serif" font-size="14.00">ID: 2</text>
<text text-anchor="middle" x="63.5" y="-24.2" font-family="Times New Roman,serif" font-size="14.00">Nombre: Capibara</text>
<text text-anchor="middle" x="63.5" y="-7.7" font-family="Times New Roman,serif" font-size="14.00">Solicitante: IPC&#45;001</text>
<polyline fill="none" stroke="black" points="127,-0.5 127,-58"/>
<text text-anchor="middle" x="136.88" y="-24.2" font-family="Times New Roman,serif" font-size="14.00"> </text>
</g>
<!-- nodo1 -->
<g id="node2" class="node">
<title>nodo1</title>
<polygon fill="none" stroke="black" points="182.75,-0.5 182.75,-58 329.5,-58 329.5,-0.5 182.75,-0.5"/>
<text text-anchor="middle" x="246.25" y="-40.7" font-family="Times New Roman,serif" font-size="14.00">ID: 5</text>
<text text-anchor="middle" x="246.25" y="-24.2" font-family="Times New Roman,serif" font-size="14.00">Nombre: Mario</text>
<text text-anchor="middle" x="246.25" y="-7.7" font-family="Times New Roman,serif" font-size="14.00">Solicitante: IPC&#45;001</text>
<polyline fill="none" stroke="black" points="309.75,-0.5 309.75,-58"/>
<text text-anchor="middle" x="319.62" y="-24.2" font-family="Times New Roman,serif" font-size="14.00"> </text>
</g>
<!-- nodo0&#45;&gt;nodo1 -->
<g id="edge1" class="edge">
<title>nodo0&#45;&gt;nodo1</title>
<path fill="none" stroke="black" d="M147.11,-22.62C155.05,-22.51 163.17,-22.48 171.22,-22.52"/>
<polygon fill="black" stroke="black" points="170.99,-26.01 181.02,-22.6 171.06,-19.01 170.99,-26.01"/>
</g>
<!-- nodo1&#45;&gt;nodo0 -->
<g id="edge2" class="edge">
<title>nodo1&#45;&gt;nodo0</title>
<path fill="none" stroke="black" d="M182.54,-35.88C174.61,-35.99 166.48,-36.02 158.43,-35.99"/>
<polygon fill="black" stroke="black" points="158.66,-32.49 148.63,-35.9 158.59,-39.49 158.66,-32.49"/>
</g>
</g>
</svg>
