<?xml version="1.0" encoding="UTF-8" standalone="no"?>
<!DOCTYPE svg PUBLIC "-//W3C//DTD SVG 1.1//EN"
 "http://www.w3.org/Graphics/SVG/1.1/DTD/svg11.dtd">
<!-- Generated by graphviz version 12.1.2 (20240928.0832)
 -->
<!-- Title: G Pages: 1 -->
<svg width="155pt" height="85pt"
 viewBox="0.00 0.00 154.75 84.50" xmlns="http://www.w3.org/2000/svg" xmlns:xlink="http://www.w3.org/1999/xlink">
<g id="graph0" class="graph" transform="scale(1 1) rotate(0) translate(4 80.5)">
<title>G</title>
<polygon fill="white" stroke="none" points="-4,4 -4,-80.5 150.75,-80.5 150.75,4 -4,4"/>
<!-- nodo0 -->
<g id="node1" class="node">
<title>nodo0</title>
<polygon fill="none" stroke="black" points="0,-0.5 0,-58 146.75,-58 146.75,-0.5 0,-0.5"/>
<text text-anchor="middle" x="63.5" y="-40.7" font-family="Times New Roman,serif" font-size="14.00">ID: 2</text>
<text text-anchor="middle" x="63.5" y="-24.2" font-family="Times New Roman,serif" font-size="14.00">Nombre: Capibara</text>
<text text-anchor="middle" x="63.5" y="-7.7" font-family="Times New Roman,serif" font-size="14.00">Solicitante: IPC&#45;001</text>
<polyline fill="none" stroke="black" points="127,-0.5 127,-58"/>
<text text-anchor="middle" x="136.88" y="-24.2" font-family="Times New Roman,serif" font-size="14.00"> </text>
</g>
<!-- nodo0&#45;&gt;nodo0 -->
<g id="edge1" class="edge">
<title>nodo0&#45;&gt;nodo0</title>
<path fill="none" stroke="black" d="M45.87,-58.32C45.57,-68.38 54.74,-76.5 73.38,-76.5 84.73,-76.5 92.57,-73.48 96.89,-68.85"/>
<polygon fill="black" stroke="black" points="100.08,-70.33 100.35,-59.73 93.53,-67.85 100.08,-70.33"/>
</g>
</g>
</svg>
