<?xml version="1.0" encoding="UTF-8" standalone="no"?>
<!DOCTYPE svg PUBLIC "-//W3C//DTD SVG 1.1//EN"
 "http://www.w3.org/Graphics/SVG/1.1/DTD/svg11.dtd">
<!-- Generated by graphviz version 12.1.2 (20240928.0832)
 -->
<!-- Title: G Pages: 1 -->
<svg width="2448pt" height="67pt"
 viewBox="0.00 0.00 2448.00 66.50" xmlns="http://www.w3.org/2000/svg" xmlns:xlink="http://www.w3.org/1999/xlink">
<g id="graph0" class="graph" transform="scale(1 1) rotate(0) translate(4 62.5)">
<title>G</title>
<polygon fill="white" stroke="none" points="-4,4 -4,-62.5 2444,-62.5 2444,4 -4,4"/>
<!-- nodo1 -->
<g id="node1" class="node">
<title>nodo1</title>
<polygon fill="none" stroke="black" points="0,-0.5 0,-58 245.5,-58 245.5,-0.5 0,-0.5"/>
<text text-anchor="middle" x="122.75" y="-40.7" font-family="Times New Roman,serif" font-size="14.00">ART&#45;223</text>
<text text-anchor="middle" x="122.75" y="-24.2" font-family="Times New Roman,serif" font-size="14.00">Nombre: Miguel Hernández</text>
<text text-anchor="middle" x="122.75" y="-7.7" font-family="Times New Roman,serif" font-size="14.00">Correo: miguel.hernández@example.com</text>
</g>
<!-- nodo2 -->
<g id="node2" class="node">
<title>nodo2</title>
<polygon fill="none" stroke="black" points="281.5,-0.5 281.5,-58 477.5,-58 477.5,-0.5 281.5,-0.5"/>
<text text-anchor="middle" x="379.5" y="-40.7" font-family="Times New Roman,serif" font-size="14.00">ART&#45;422</text>
<text text-anchor="middle" x="379.5" y="-24.2" font-family="Times New Roman,serif" font-size="14.00">Nombre: Juan Sánchez</text>
<text text-anchor="middle" x="379.5" y="-7.7" font-family="Times New Roman,serif" font-size="14.00">Correo: juan.sánchez@mail.com</text>
</g>
<!-- nodo1&#45;&gt;nodo2 -->
<g id="edge1" class="edge">
<title>nodo1&#45;&gt;nodo2</title>
<path fill="none" stroke="black" d="M245.9,-29.25C253.88,-29.25 261.89,-29.25 269.8,-29.25"/>
<polygon fill="black" stroke="black" points="269.78,-32.75 279.78,-29.25 269.78,-25.75 269.78,-32.75"/>
</g>
<!-- nodo3 -->
<g id="node3" class="node">
<title>nodo3</title>
<polygon fill="none" stroke="black" points="513.5,-0.5 513.5,-58 702.75,-58 702.75,-0.5 513.5,-0.5"/>
<text text-anchor="middle" x="608.12" y="-40.7" font-family="Times New Roman,serif" font-size="14.00">ART&#45;812</text>
<text text-anchor="middle" x="608.12" y="-24.2" font-family="Times New Roman,serif" font-size="14.00">Nombre: Pablo Pérez</text>
<text text-anchor="middle" x="608.12" y="-7.7" font-family="Times New Roman,serif" font-size="14.00">Correo: pablo.pérez@mail.com</text>
</g>
<!-- nodo2&#45;&gt;nodo3 -->
<g id="edge2" class="edge">
<title>nodo2&#45;&gt;nodo3</title>
<path fill="none" stroke="black" d="M477.92,-29.25C485.74,-29.25 493.66,-29.25 501.54,-29.25"/>
<polygon fill="black" stroke="black" points="501.5,-32.75 511.5,-29.25 501.5,-25.75 501.5,-32.75"/>
</g>
<!-- nodo4 -->
<g id="node4" class="node">
<title>nodo4</title>
<polygon fill="none" stroke="black" points="738.75,-0.5 738.75,-58 930.25,-58 930.25,-0.5 738.75,-0.5"/>
<text text-anchor="middle" x="834.5" y="-40.7" font-family="Times New Roman,serif" font-size="14.00">ART&#45;799</text>
<text text-anchor="middle" x="834.5" y="-24.2" font-family="Times New Roman,serif" font-size="14.00">Nombre: Ana Sánchez</text>
<text text-anchor="middle" x="834.5" y="-7.7" font-family="Times New Roman,serif" font-size="14.00">Correo: ana.sánchez@mail.com</text>
</g>
<!-- nodo3&#45;&gt;nodo4 -->
<g id="edge3" class="edge">
<title>nodo3&#45;&gt;nodo4</title>
<path fill="none" stroke="black" d="M702.98,-29.25C710.98,-29.25 719.11,-29.25 727.19,-29.25"/>
<polygon fill="black" stroke="black" points="727.07,-32.75 737.07,-29.25 727.06,-25.75 727.07,-32.75"/>
</g>
<!-- nodo5 -->
<g id="node5" class="node">
<title>nodo5</title>
<polygon fill="none" stroke="black" points="966.25,-0.5 966.25,-58 1157.75,-58 1157.75,-0.5 966.25,-0.5"/>
<text text-anchor="middle" x="1062" y="-40.7" font-family="Times New Roman,serif" font-size="14.00">ART&#45;238</text>
<text text-anchor="middle" x="1062" y="-24.2" font-family="Times New Roman,serif" font-size="14.00">Nombre: Lucía Vargas</text>
<text text-anchor="middle" x="1062" y="-7.7" font-family="Times New Roman,serif" font-size="14.00">Correo: lucía.vargas@mail.com</text>
</g>
<!-- nodo4&#45;&gt;nodo5 -->
<g id="edge4" class="edge">
<title>nodo4&#45;&gt;nodo5</title>
<path fill="none" stroke="black" d="M930.48,-29.25C938.41,-29.25 946.47,-29.25 954.48,-29.25"/>
<polygon fill="black" stroke="black" points="954.26,-32.75 964.26,-29.25 954.26,-25.75 954.26,-32.75"/>
</g>
<!-- nodo6 -->
<g id="node6" class="node">
<title>nodo6</title>
<polygon fill="none" stroke="black" points="1193.75,-0.5 1193.75,-58 1416.75,-58 1416.75,-0.5 1193.75,-0.5"/>
<text text-anchor="middle" x="1305.25" y="-40.7" font-family="Times New Roman,serif" font-size="14.00">ART&#45;593</text>
<text text-anchor="middle" x="1305.25" y="-24.2" font-family="Times New Roman,serif" font-size="14.00">Nombre: Juan Martínez</text>
<text text-anchor="middle" x="1305.25" y="-7.7" font-family="Times New Roman,serif" font-size="14.00">Correo: juan.martínez@example.com</text>
</g>
<!-- nodo5&#45;&gt;nodo6 -->
<g id="edge5" class="edge">
<title>nodo5&#45;&gt;nodo6</title>
<path fill="none" stroke="black" d="M1158,-29.25C1165.89,-29.25 1173.93,-29.25 1181.98,-29.25"/>
<polygon fill="black" stroke="black" points="1181.84,-32.75 1191.84,-29.25 1181.84,-25.75 1181.84,-32.75"/>
</g>
<!-- nodo7 -->
<g id="node7" class="node">
<title>nodo7</title>
<polygon fill="none" stroke="black" points="1452.75,-0.5 1452.75,-58 1690.75,-58 1690.75,-0.5 1452.75,-0.5"/>
<text text-anchor="middle" x="1571.75" y="-40.7" font-family="Times New Roman,serif" font-size="14.00">ART&#45;864</text>
<text text-anchor="middle" x="1571.75" y="-24.2" font-family="Times New Roman,serif" font-size="14.00">Nombre: Miguel Sánchez</text>
<text text-anchor="middle" x="1571.75" y="-7.7" font-family="Times New Roman,serif" font-size="14.00">Correo: miguel.sánchez@artistmail.com</text>
</g>
<!-- nodo6&#45;&gt;nodo7 -->
<g id="edge6" class="edge">
<title>nodo6&#45;&gt;nodo7</title>
<path fill="none" stroke="black" d="M1416.89,-29.25C1424.88,-29.25 1432.97,-29.25 1441.05,-29.25"/>
<polygon fill="black" stroke="black" points="1440.94,-32.75 1450.94,-29.25 1440.94,-25.75 1440.94,-32.75"/>
</g>
<!-- nodo8 -->
<g id="node8" class="node">
<title>nodo8</title>
<polygon fill="none" stroke="black" points="1726.75,-0.5 1726.75,-58 1942.25,-58 1942.25,-0.5 1726.75,-0.5"/>
<text text-anchor="middle" x="1834.5" y="-40.7" font-family="Times New Roman,serif" font-size="14.00">ART&#45;003</text>
<text text-anchor="middle" x="1834.5" y="-24.2" font-family="Times New Roman,serif" font-size="14.00">Nombre: Pablo Hernández</text>
<text text-anchor="middle" x="1834.5" y="-7.7" font-family="Times New Roman,serif" font-size="14.00">Correo: pablo.hernández@mail.com</text>
</g>
<!-- nodo7&#45;&gt;nodo8 -->
<g id="edge7" class="edge">
<title>nodo7&#45;&gt;nodo8</title>
<path fill="none" stroke="black" d="M1690.92,-29.25C1698.98,-29.25 1707.1,-29.25 1715.16,-29.25"/>
<polygon fill="black" stroke="black" points="1714.99,-32.75 1724.99,-29.25 1714.99,-25.75 1714.99,-32.75"/>
</g>
<!-- nodo9 -->
<g id="node9" class="node">
<title>nodo9</title>
<polygon fill="none" stroke="black" points="1978.25,-0.5 1978.25,-58 2178.75,-58 2178.75,-0.5 1978.25,-0.5"/>
<text text-anchor="middle" x="2078.5" y="-40.7" font-family="Times New Roman,serif" font-size="14.00">ART&#45;096</text>
<text text-anchor="middle" x="2078.5" y="-24.2" font-family="Times New Roman,serif" font-size="14.00">Nombre: Elena Ramírez</text>
<text text-anchor="middle" x="2078.5" y="-7.7" font-family="Times New Roman,serif" font-size="14.00">Correo: elena.ramírez@mail.com</text>
</g>
<!-- nodo8&#45;&gt;nodo9 -->
<g id="edge8" class="edge">
<title>nodo8&#45;&gt;nodo9</title>
<path fill="none" stroke="black" d="M1942.7,-29.25C1950.69,-29.25 1958.77,-29.25 1966.78,-29.25"/>
<polygon fill="black" stroke="black" points="1966.54,-32.75 1976.54,-29.25 1966.54,-25.75 1966.54,-32.75"/>
</g>
<!-- nodo10 -->
<g id="node10" class="node">
<title>nodo10</title>
<polygon fill="none" stroke="black" points="2214.75,-0.5 2214.75,-58 2440,-58 2440,-0.5 2214.75,-0.5"/>
<text text-anchor="middle" x="2327.38" y="-40.7" font-family="Times New Roman,serif" font-size="14.00">ART&#45;201</text>
<text text-anchor="middle" x="2327.38" y="-24.2" font-family="Times New Roman,serif" font-size="14.00">Nombre: Lucía Sánchez</text>
<text text-anchor="middle" x="2327.38" y="-7.7" font-family="Times New Roman,serif" font-size="14.00">Correo: lucía.sánchez@pixelworld.net</text>
</g>
<!-- nodo9&#45;&gt;nodo10 -->
<g id="edge9" class="edge">
<title>nodo9&#45;&gt;nodo10</title>
<path fill="none" stroke="black" d="M2179.2,-29.25C2187.12,-29.25 2195.16,-29.25 2203.21,-29.25"/>
<polygon fill="black" stroke="black" points="2203.06,-32.75 2213.06,-29.25 2203.06,-25.75 2203.06,-32.75"/>
</g>
</g>
</svg>
