<?xml version="1.0" encoding="UTF-8" standalone="no"?>
<!DOCTYPE svg PUBLIC "-//W3C//DTD SVG 1.1//EN"
 "http://www.w3.org/Graphics/SVG/1.1/DTD/svg11.dtd">
<!-- Generated by graphviz version 12.1.2 (20240928.0832)
 -->
<!-- Title: G Pages: 1 -->
<svg width="271pt" height="67pt"
 viewBox="0.00 0.00 271.00 66.50" xmlns="http://www.w3.org/2000/svg" xmlns:xlink="http://www.w3.org/1999/xlink">
<g id="graph0" class="graph" transform="scale(1 1) rotate(0) translate(4 62.5)">
<title>G</title>
<polygon fill="white" stroke="none" points="-4,4 -4,-62.5 267,-62.5 267,4 -4,4"/>
<!-- nodo0 -->
<g id="node1" class="node">
<title>nodo0</title>
<polygon fill="none" stroke="black" points="0,-0.5 0,-58 109.75,-58 109.75,-0.5 0,-0.5"/>
<text text-anchor="middle" x="54.88" y="-40.7" font-family="Times New Roman,serif" font-size="14.00">ID: 3</text>
<text text-anchor="middle" x="54.88" y="-24.2" font-family="Times New Roman,serif" font-size="14.00">Nombre: Rana</text>
<text text-anchor="middle" x="54.88" y="-7.7" font-family="Times New Roman,serif" font-size="14.00">Artista: ART&#45;223</text>
</g>
<!-- nodo1 -->
<g id="node2" class="node">
<title>nodo1</title>
<polygon fill="none" stroke="black" points="145.75,-0.5 145.75,-58 263,-58 263,-0.5 145.75,-0.5"/>
<text text-anchor="middle" x="204.38" y="-40.7" font-family="Times New Roman,serif" font-size="14.00">ID: 2</text>
<text text-anchor="middle" x="204.38" y="-24.2" font-family="Times New Roman,serif" font-size="14.00">Nombre: Capibara</text>
<text text-anchor="middle" x="204.38" y="-7.7" font-family="Times New Roman,serif" font-size="14.00">Artista: ART&#45;223</text>
</g>
<!-- nodo0&#45;&gt;nodo1 -->
<g id="edge1" class="edge">
<title>nodo0&#45;&gt;nodo1</title>
<path fill="none" stroke="black" d="M109.96,-9.65C117.78,-9.12 125.93,-8.91 134,-9.03"/>
<polygon fill="black" stroke="black" points="133.7,-12.52 143.81,-9.36 133.93,-5.53 133.7,-12.52"/>
</g>
<!-- nodo0&#45;&gt;nodo1 -->
<g id="edge4" class="edge">
<title>nodo0&#45;&gt;nodo1</title>
<path fill="none" stroke="black" d="M109.96,-48.85C117.78,-49.38 125.93,-49.59 134,-49.47"/>
<polygon fill="black" stroke="black" points="133.93,-52.97 143.81,-49.14 133.7,-45.98 133.93,-52.97"/>
</g>
<!-- nodo1&#45;&gt;nodo0 -->
<g id="edge2" class="edge">
<title>nodo1&#45;&gt;nodo0</title>
<path fill="none" stroke="black" d="M145.32,-22.64C137.5,-22.5 129.42,-22.46 121.47,-22.54"/>
<polygon fill="black" stroke="black" points="121.42,-19.04 111.47,-22.69 121.53,-26.04 121.42,-19.04"/>
</g>
<!-- nodo1&#45;&gt;nodo0 -->
<g id="edge3" class="edge">
<title>nodo1&#45;&gt;nodo0</title>
<path fill="none" stroke="black" d="M145.32,-35.86C137.5,-36 129.42,-36.04 121.47,-35.96"/>
<polygon fill="black" stroke="black" points="121.53,-32.46 111.47,-35.81 121.42,-39.46 121.53,-32.46"/>
</g>
</g>
</svg>
