<?xml version="1.0" encoding="UTF-8" standalone="no"?>
<!DOCTYPE svg PUBLIC "-//W3C//DTD SVG 1.1//EN"
 "http://www.w3.org/Graphics/SVG/1.1/DTD/svg11.dtd">
<!-- Generated by graphviz version 12.1.2 (20240928.0832)
 -->
<!-- Title: G Pages: 1 -->
<svg width="2814pt" height="67pt"
 viewBox="0.00 0.00 2813.75 66.50" xmlns="http://www.w3.org/2000/svg" xmlns:xlink="http://www.w3.org/1999/xlink">
<g id="graph0" class="graph" transform="scale(1 1) rotate(0) translate(4 62.5)">
<title>G</title>
<polygon fill="white" stroke="none" points="-4,4 -4,-62.5 2809.75,-62.5 2809.75,4 -4,4"/>
<!-- nodo1 -->
<g id="node1" class="node">
<title>nodo1</title>
<polygon fill="none" stroke="black" points="0,-0.5 0,-58 244.5,-58 244.5,-0.5 0,-0.5"/>
<text text-anchor="middle" x="9.88" y="-24.2" font-family="Times New Roman,serif" font-size="14.00"> </text>
<polyline fill="none" stroke="black" points="19.75,-0.5 19.75,-58"/>
<text text-anchor="middle" x="122.25" y="-40.7" font-family="Times New Roman,serif" font-size="14.00">IPC&#45;001</text>
<text text-anchor="middle" x="122.25" y="-24.2" font-family="Times New Roman,serif" font-size="14.00">Nombre: Carlos Ruiz</text>
<text text-anchor="middle" x="122.25" y="-7.7" font-family="Times New Roman,serif" font-size="14.00">Correo: carlos.ruiz@example.com</text>
<polyline fill="none" stroke="black" points="224.75,-0.5 224.75,-58"/>
<text text-anchor="middle" x="234.62" y="-24.2" font-family="Times New Roman,serif" font-size="14.00"> </text>
</g>
<!-- nodo2 -->
<g id="node2" class="node">
<title>nodo2</title>
<polygon fill="none" stroke="black" points="280.5,-0.5 280.5,-58 503.25,-58 503.25,-0.5 280.5,-0.5"/>
<text text-anchor="middle" x="290.38" y="-24.2" font-family="Times New Roman,serif" font-size="14.00"> </text>
<polyline fill="none" stroke="black" points="300.25,-0.5 300.25,-58"/>
<text text-anchor="middle" x="391.88" y="-40.7" font-family="Times New Roman,serif" font-size="14.00">IPC&#45;002</text>
<text text-anchor="middle" x="391.88" y="-24.2" font-family="Times New Roman,serif" font-size="14.00">Nombre: Carlos Ruiz</text>
<text text-anchor="middle" x="391.88" y="-7.7" font-family="Times New Roman,serif" font-size="14.00">Correo: carlos.ruiz@mail.com</text>
<polyline fill="none" stroke="black" points="483.5,-0.5 483.5,-58"/>
<text text-anchor="middle" x="493.38" y="-24.2" font-family="Times New Roman,serif" font-size="14.00"> </text>
</g>
<!-- nodo1&#45;&gt;nodo2 -->
<g id="edge1" class="edge">
<title>nodo1:f2&#45;&gt;nodo2:f1</title>
<path fill="none" stroke="black" d="M244.5,-29.25C255.88,-29.25 261.18,-29.25 269.05,-29.25"/>
<polygon fill="black" stroke="black" points="268.99,-32.75 278.99,-29.25 268.99,-25.75 268.99,-32.75"/>
</g>
<!-- nodo2&#45;&gt;nodo1 -->
<g id="edge2" class="edge">
<title>nodo2:f1&#45;&gt;nodo1:f2</title>
<path fill="none" stroke="black" d="M280.5,-29.25C269.12,-29.25 263.82,-29.25 255.95,-29.25"/>
<polygon fill="black" stroke="black" points="256.01,-25.75 246.01,-29.25 256.01,-32.75 256.01,-25.75"/>
</g>
<!-- nodo3 -->
<g id="node3" class="node">
<title>nodo3</title>
<polygon fill="none" stroke="black" points="539.25,-0.5 539.25,-58 769.5,-58 769.5,-0.5 539.25,-0.5"/>
<text text-anchor="middle" x="549.12" y="-24.2" font-family="Times New Roman,serif" font-size="14.00"> </text>
<polyline fill="none" stroke="black" points="559,-0.5 559,-58"/>
<text text-anchor="middle" x="654.38" y="-40.7" font-family="Times New Roman,serif" font-size="14.00">IPC&#45;003</text>
<text text-anchor="middle" x="654.38" y="-24.2" font-family="Times New Roman,serif" font-size="14.00">Nombre: María López</text>
<text text-anchor="middle" x="654.38" y="-7.7" font-family="Times New Roman,serif" font-size="14.00">Correo: maría.lópez@mail.com</text>
<polyline fill="none" stroke="black" points="749.75,-0.5 749.75,-58"/>
<text text-anchor="middle" x="759.62" y="-24.2" font-family="Times New Roman,serif" font-size="14.00"> </text>
</g>
<!-- nodo2&#45;&gt;nodo3 -->
<g id="edge3" class="edge">
<title>nodo2:f2&#45;&gt;nodo3:f1</title>
<path fill="none" stroke="black" d="M503.25,-29.25C514.62,-29.25 519.93,-29.25 527.8,-29.25"/>
<polygon fill="black" stroke="black" points="527.74,-32.75 537.74,-29.25 527.74,-25.75 527.74,-32.75"/>
</g>
<!-- nodo3&#45;&gt;nodo2 -->
<g id="edge4" class="edge">
<title>nodo3:f1&#45;&gt;nodo2:f2</title>
<path fill="none" stroke="black" d="M539.25,-29.25C527.88,-29.25 522.57,-29.25 514.7,-29.25"/>
<polygon fill="black" stroke="black" points="514.76,-25.75 504.76,-29.25 514.76,-32.75 514.76,-25.75"/>
</g>
<!-- nodo4 -->
<g id="node4" class="node">
<title>nodo4</title>
<polygon fill="none" stroke="black" points="805.5,-0.5 805.5,-58 1076.25,-58 1076.25,-0.5 805.5,-0.5"/>
<text text-anchor="middle" x="815.38" y="-24.2" font-family="Times New Roman,serif" font-size="14.00"> </text>
<polyline fill="none" stroke="black" points="825.25,-0.5 825.25,-58"/>
<text text-anchor="middle" x="940.88" y="-40.7" font-family="Times New Roman,serif" font-size="14.00">IPC&#45;004</text>
<text text-anchor="middle" x="940.88" y="-24.2" font-family="Times New Roman,serif" font-size="14.00">Nombre: Camila Sánchez</text>
<text text-anchor="middle" x="940.88" y="-7.7" font-family="Times New Roman,serif" font-size="14.00">Correo: camila.sánchez@example.com</text>
<polyline fill="none" stroke="black" points="1056.5,-0.5 1056.5,-58"/>
<text text-anchor="middle" x="1066.38" y="-24.2" font-family="Times New Roman,serif" font-size="14.00"> </text>
</g>
<!-- nodo3&#45;&gt;nodo4 -->
<g id="edge5" class="edge">
<title>nodo3:f2&#45;&gt;nodo4:f1</title>
<path fill="none" stroke="black" d="M769.5,-29.25C780.88,-29.25 786.18,-29.25 794.05,-29.25"/>
<polygon fill="black" stroke="black" points="793.99,-32.75 803.99,-29.25 793.99,-25.75 793.99,-32.75"/>
</g>
<!-- nodo4&#45;&gt;nodo3 -->
<g id="edge6" class="edge">
<title>nodo4:f1&#45;&gt;nodo3:f2</title>
<path fill="none" stroke="black" d="M805.5,-29.25C794.12,-29.25 788.82,-29.25 780.95,-29.25"/>
<polygon fill="black" stroke="black" points="781.01,-25.75 771.01,-29.25 781.01,-32.75 781.01,-25.75"/>
</g>
<!-- nodo5 -->
<g id="node5" class="node">
<title>nodo5</title>
<polygon fill="none" stroke="black" points="1112.25,-0.5 1112.25,-58 1383,-58 1383,-0.5 1112.25,-0.5"/>
<text text-anchor="middle" x="1122.12" y="-24.2" font-family="Times New Roman,serif" font-size="14.00"> </text>
<polyline fill="none" stroke="black" points="1132,-0.5 1132,-58"/>
<text text-anchor="middle" x="1247.62" y="-40.7" font-family="Times New Roman,serif" font-size="14.00">IPC&#45;005</text>
<text text-anchor="middle" x="1247.62" y="-24.2" font-family="Times New Roman,serif" font-size="14.00">Nombre: Camila Sánchez</text>
<text text-anchor="middle" x="1247.62" y="-7.7" font-family="Times New Roman,serif" font-size="14.00">Correo: camila.sánchez@example.com</text>
<polyline fill="none" stroke="black" points="1363.25,-0.5 1363.25,-58"/>
<text text-anchor="middle" x="1373.12" y="-24.2" font-family="Times New Roman,serif" font-size="14.00"> </text>
</g>
<!-- nodo4&#45;&gt;nodo5 -->
<g id="edge7" class="edge">
<title>nodo4:f2&#45;&gt;nodo5:f1</title>
<path fill="none" stroke="black" d="M1076.25,-29.25C1087.62,-29.25 1092.93,-29.25 1100.8,-29.25"/>
<polygon fill="black" stroke="black" points="1100.74,-32.75 1110.74,-29.25 1100.74,-25.75 1100.74,-32.75"/>
</g>
<!-- nodo5&#45;&gt;nodo4 -->
<g id="edge8" class="edge">
<title>nodo5:f1&#45;&gt;nodo4:f2</title>
<path fill="none" stroke="black" d="M1112.25,-29.25C1100.88,-29.25 1095.57,-29.25 1087.7,-29.25"/>
<polygon fill="black" stroke="black" points="1087.76,-25.75 1077.76,-29.25 1087.76,-32.75 1087.76,-25.75"/>
</g>
<!-- nodo6 -->
<g id="node6" class="node">
<title>nodo6</title>
<polygon fill="none" stroke="black" points="1419,-0.5 1419,-58 1671,-58 1671,-0.5 1419,-0.5"/>
<text text-anchor="middle" x="1428.88" y="-24.2" font-family="Times New Roman,serif" font-size="14.00"> </text>
<polyline fill="none" stroke="black" points="1438.75,-0.5 1438.75,-58"/>
<text text-anchor="middle" x="1545" y="-40.7" font-family="Times New Roman,serif" font-size="14.00">IPC&#45;006</text>
<text text-anchor="middle" x="1545" y="-24.2" font-family="Times New Roman,serif" font-size="14.00">Nombre: Diego Torres</text>
<text text-anchor="middle" x="1545" y="-7.7" font-family="Times New Roman,serif" font-size="14.00">Correo: diego.torres@example.com</text>
<polyline fill="none" stroke="black" points="1651.25,-0.5 1651.25,-58"/>
<text text-anchor="middle" x="1661.12" y="-24.2" font-family="Times New Roman,serif" font-size="14.00"> </text>
</g>
<!-- nodo5&#45;&gt;nodo6 -->
<g id="edge9" class="edge">
<title>nodo5:f2&#45;&gt;nodo6:f1</title>
<path fill="none" stroke="black" d="M1383,-29.25C1394.38,-29.25 1399.68,-29.25 1407.55,-29.25"/>
<polygon fill="black" stroke="black" points="1407.49,-32.75 1417.49,-29.25 1407.49,-25.75 1407.49,-32.75"/>
</g>
<!-- nodo6&#45;&gt;nodo5 -->
<g id="edge10" class="edge">
<title>nodo6:f1&#45;&gt;nodo5:f2</title>
<path fill="none" stroke="black" d="M1419,-29.25C1407.62,-29.25 1402.32,-29.25 1394.45,-29.25"/>
<polygon fill="black" stroke="black" points="1394.51,-25.75 1384.51,-29.25 1394.51,-32.75 1394.51,-25.75"/>
</g>
<!-- nodo7 -->
<g id="node7" class="node">
<title>nodo7</title>
<polygon fill="none" stroke="black" points="1707,-0.5 1707,-58 1951.5,-58 1951.5,-0.5 1707,-0.5"/>
<text text-anchor="middle" x="1716.88" y="-24.2" font-family="Times New Roman,serif" font-size="14.00"> </text>
<polyline fill="none" stroke="black" points="1726.75,-0.5 1726.75,-58"/>
<text text-anchor="middle" x="1829.25" y="-40.7" font-family="Times New Roman,serif" font-size="14.00">IPC&#45;007</text>
<text text-anchor="middle" x="1829.25" y="-24.2" font-family="Times New Roman,serif" font-size="14.00">Nombre: Carlos Ruiz</text>
<text text-anchor="middle" x="1829.25" y="-7.7" font-family="Times New Roman,serif" font-size="14.00">Correo: carlos.ruiz@example.com</text>
<polyline fill="none" stroke="black" points="1931.75,-0.5 1931.75,-58"/>
<text text-anchor="middle" x="1941.62" y="-24.2" font-family="Times New Roman,serif" font-size="14.00"> </text>
</g>
<!-- nodo6&#45;&gt;nodo7 -->
<g id="edge11" class="edge">
<title>nodo6:f2&#45;&gt;nodo7:f1</title>
<path fill="none" stroke="black" d="M1671,-29.25C1682.38,-29.25 1687.68,-29.25 1695.55,-29.25"/>
<polygon fill="black" stroke="black" points="1695.49,-32.75 1705.49,-29.25 1695.49,-25.75 1695.49,-32.75"/>
</g>
<!-- nodo7&#45;&gt;nodo6 -->
<g id="edge12" class="edge">
<title>nodo7:f1&#45;&gt;nodo6:f2</title>
<path fill="none" stroke="black" d="M1707,-29.25C1695.62,-29.25 1690.32,-29.25 1682.45,-29.25"/>
<polygon fill="black" stroke="black" points="1682.51,-25.75 1672.51,-29.25 1682.51,-32.75 1682.51,-25.75"/>
</g>
<!-- nodo8 -->
<g id="node8" class="node">
<title>nodo8</title>
<polygon fill="none" stroke="black" points="1987.5,-0.5 1987.5,-58 2227.5,-58 2227.5,-0.5 1987.5,-0.5"/>
<text text-anchor="middle" x="1997.38" y="-24.2" font-family="Times New Roman,serif" font-size="14.00"> </text>
<polyline fill="none" stroke="black" points="2007.25,-0.5 2007.25,-58"/>
<text text-anchor="middle" x="2107.5" y="-40.7" font-family="Times New Roman,serif" font-size="14.00">IPC&#45;008</text>
<text text-anchor="middle" x="2107.5" y="-24.2" font-family="Times New Roman,serif" font-size="14.00">Nombre: Diego Torres</text>
<text text-anchor="middle" x="2107.5" y="-7.7" font-family="Times New Roman,serif" font-size="14.00">Correo: diego.torres@correo.com</text>
<polyline fill="none" stroke="black" points="2207.75,-0.5 2207.75,-58"/>
<text text-anchor="middle" x="2217.62" y="-24.2" font-family="Times New Roman,serif" font-size="14.00"> </text>
</g>
<!-- nodo7&#45;&gt;nodo8 -->
<g id="edge13" class="edge">
<title>nodo7:f2&#45;&gt;nodo8:f1</title>
<path fill="none" stroke="black" d="M1951.5,-29.25C1962.88,-29.25 1968.18,-29.25 1976.05,-29.25"/>
<polygon fill="black" stroke="black" points="1975.99,-32.75 1985.99,-29.25 1975.99,-25.75 1975.99,-32.75"/>
</g>
<!-- nodo8&#45;&gt;nodo7 -->
<g id="edge14" class="edge">
<title>nodo8:f1&#45;&gt;nodo7:f2</title>
<path fill="none" stroke="black" d="M1987.5,-29.25C1976.12,-29.25 1970.82,-29.25 1962.95,-29.25"/>
<polygon fill="black" stroke="black" points="1963.01,-25.75 1953.01,-29.25 1963.01,-32.75 1963.01,-25.75"/>
</g>
<!-- nodo9 -->
<g id="node9" class="node">
<title>nodo9</title>
<polygon fill="none" stroke="black" points="2263.5,-0.5 2263.5,-58 2517.75,-58 2517.75,-0.5 2263.5,-0.5"/>
<text text-anchor="middle" x="2273.38" y="-24.2" font-family="Times New Roman,serif" font-size="14.00"> </text>
<polyline fill="none" stroke="black" points="2283.25,-0.5 2283.25,-58"/>
<text text-anchor="middle" x="2390.62" y="-40.7" font-family="Times New Roman,serif" font-size="14.00">IPC&#45;009</text>
<text text-anchor="middle" x="2390.62" y="-24.2" font-family="Times New Roman,serif" font-size="14.00">Nombre: Luis Hernández</text>
<text text-anchor="middle" x="2390.62" y="-7.7" font-family="Times New Roman,serif" font-size="14.00">Correo: luis.hernández@correo.com</text>
<polyline fill="none" stroke="black" points="2498,-0.5 2498,-58"/>
<text text-anchor="middle" x="2507.88" y="-24.2" font-family="Times New Roman,serif" font-size="14.00"> </text>
</g>
<!-- nodo8&#45;&gt;nodo9 -->
<g id="edge15" class="edge">
<title>nodo8:f2&#45;&gt;nodo9:f1</title>
<path fill="none" stroke="black" d="M2227.5,-29.25C2238.88,-29.25 2244.18,-29.25 2252.05,-29.25"/>
<polygon fill="black" stroke="black" points="2251.99,-32.75 2261.99,-29.25 2251.99,-25.75 2251.99,-32.75"/>
</g>
<!-- nodo9&#45;&gt;nodo8 -->
<g id="edge16" class="edge">
<title>nodo9:f1&#45;&gt;nodo8:f2</title>
<path fill="none" stroke="black" d="M2263.5,-29.25C2252.12,-29.25 2246.82,-29.25 2238.95,-29.25"/>
<polygon fill="black" stroke="black" points="2239.01,-25.75 2229.01,-29.25 2239.01,-32.75 2239.01,-25.75"/>
</g>
<!-- nodo10 -->
<g id="node10" class="node">
<title>nodo10</title>
<polygon fill="none" stroke="black" points="2553.75,-0.5 2553.75,-58 2805.75,-58 2805.75,-0.5 2553.75,-0.5"/>
<text text-anchor="middle" x="2563.62" y="-24.2" font-family="Times New Roman,serif" font-size="14.00"> </text>
<polyline fill="none" stroke="black" points="2573.5,-0.5 2573.5,-58"/>
<text text-anchor="middle" x="2679.75" y="-40.7" font-family="Times New Roman,serif" font-size="14.00">IPC&#45;010</text>
<text text-anchor="middle" x="2679.75" y="-24.2" font-family="Times New Roman,serif" font-size="14.00">Nombre: Diego Torres</text>
<text text-anchor="middle" x="2679.75" y="-7.7" font-family="Times New Roman,serif" font-size="14.00">Correo: diego.torres@example.com</text>
<polyline fill="none" stroke="black" points="2786,-0.5 2786,-58"/>
<text text-anchor="middle" x="2795.88" y="-24.2" font-family="Times New Roman,serif" font-size="14.00"> </text>
</g>
<!-- nodo9&#45;&gt;nodo10 -->
<g id="edge17" class="edge">
<title>nodo9:f2&#45;&gt;nodo10:f1</title>
<path fill="none" stroke="black" d="M2517.75,-29.25C2529.12,-29.25 2534.43,-29.25 2542.3,-29.25"/>
<polygon fill="black" stroke="black" points="2542.24,-32.75 2552.24,-29.25 2542.24,-25.75 2542.24,-32.75"/>
</g>
<!-- nodo10&#45;&gt;nodo9 -->
<g id="edge18" class="edge">
<title>nodo10:f1&#45;&gt;nodo9:f2</title>
<path fill="none" stroke="black" d="M2553.75,-29.25C2542.38,-29.25 2537.07,-29.25 2529.2,-29.25"/>
<polygon fill="black" stroke="black" points="2529.26,-25.75 2519.26,-29.25 2529.26,-32.75 2529.26,-25.75"/>
</g>
</g>
</svg>
