<?xml version="1.0" encoding="UTF-8" standalone="no"?>
<!DOCTYPE svg PUBLIC "-//W3C//DTD SVG 1.1//EN"
 "http://www.w3.org/Graphics/SVG/1.1/DTD/svg11.dtd">
<!-- Generated by graphviz version 12.1.2 (20240928.0832)
 -->
<!-- Title: G Pages: 1 -->
<svg width="874pt" height="138pt"
 viewBox="0.00 0.00 874.25 137.55" xmlns="http://www.w3.org/2000/svg" xmlns:xlink="http://www.w3.org/1999/xlink">
<g id="graph0" class="graph" transform="scale(1 1) rotate(0) translate(4 133.55)">
<title>G</title>
<polygon fill="white" stroke="none" points="-4,4 -4,-133.55 870.25,-133.55 870.25,4 -4,4"/>
<!-- nodo0 -->
<g id="node1" class="node">
<title>nodo0</title>
<polygon fill="none" stroke="black" points="0,-71.55 0,-129.05 264.75,-129.05 264.75,-71.55 0,-71.55"/>
<text text-anchor="middle" x="9.88" y="-95.25" font-family="Times New Roman,serif" font-size="14.00"> </text>
<polyline fill="none" stroke="black" points="19.75,-71.55 19.75,-129.05"/>
<text text-anchor="middle" x="132.38" y="-111.75" font-family="Times New Roman,serif" font-size="14.00">ID: 5</text>
<text text-anchor="middle" x="132.38" y="-95.25" font-family="Times New Roman,serif" font-size="14.00">Nombre: Mario</text>
<text text-anchor="middle" x="132.38" y="-78.75" font-family="Times New Roman,serif" font-size="14.00">Ruta imagen: ./Reportes/Matriz_5.svg</text>
<polyline fill="none" stroke="black" points="245,-71.55 245,-129.05"/>
<text text-anchor="middle" x="254.88" y="-95.25" font-family="Times New Roman,serif" font-size="14.00"> </text>
</g>
<!-- nodo1 -->
<g id="node2" class="node">
<title>nodo1</title>
<polygon fill="none" stroke="black" points="300.75,-71.55 300.75,-129.05 565.5,-129.05 565.5,-71.55 300.75,-71.55"/>
<text text-anchor="middle" x="310.62" y="-95.25" font-family="Times New Roman,serif" font-size="14.00"> </text>
<polyline fill="none" stroke="black" points="320.5,-71.55 320.5,-129.05"/>
<text text-anchor="middle" x="433.12" y="-111.75" font-family="Times New Roman,serif" font-size="14.00">ID: 2</text>
<text text-anchor="middle" x="433.12" y="-95.25" font-family="Times New Roman,serif" font-size="14.00">Nombre: Capibara</text>
<text text-anchor="middle" x="433.12" y="-78.75" font-family="Times New Roman,serif" font-size="14.00">Ruta imagen: ./Reportes/Matriz_2.svg</text>
<polyline fill="none" stroke="black" points="545.75,-71.55 545.75,-129.05"/>
<text text-anchor="middle" x="555.62" y="-95.25" font-family="Times New Roman,serif" font-size="14.00"> </text>
</g>
<!-- nodo0&#45;&gt;nodo1 -->
<g id="edge1" class="edge">
<title>nodo0:f2&#45;&gt;nodo1:f1</title>
<path fill="none" stroke="black" d="M276.2,-100.3C280.87,-100.3 284.64,-100.3 289.31,-100.3"/>
<polygon fill="black" stroke="black" points="276.26,-96.8 266.26,-100.3 276.26,-103.8 276.26,-96.8"/>
<polygon fill="black" stroke="black" points="289.24,-103.8 299.24,-100.3 289.24,-96.8 289.24,-103.8"/>
</g>
<!-- nodo2 -->
<g id="node3" class="node">
<title>nodo2</title>
<polygon fill="none" stroke="black" points="601.5,-71.55 601.5,-129.05 866.25,-129.05 866.25,-71.55 601.5,-71.55"/>
<text text-anchor="middle" x="611.38" y="-95.25" font-family="Times New Roman,serif" font-size="14.00"> </text>
<polyline fill="none" stroke="black" points="621.25,-71.55 621.25,-129.05"/>
<text text-anchor="middle" x="733.88" y="-111.75" font-family="Times New Roman,serif" font-size="14.00">ID: 3</text>
<text text-anchor="middle" x="733.88" y="-95.25" font-family="Times New Roman,serif" font-size="14.00">Nombre: Rana</text>
<text text-anchor="middle" x="733.88" y="-78.75" font-family="Times New Roman,serif" font-size="14.00">Ruta imagen: ./Reportes/Matriz_3.svg</text>
<polyline fill="none" stroke="black" points="846.5,-71.55 846.5,-129.05"/>
<text text-anchor="middle" x="856.38" y="-95.25" font-family="Times New Roman,serif" font-size="14.00"> </text>
</g>
<!-- nodo0&#45;&gt;nodo2 -->
<g id="edge3" class="edge">
<title>nodo0:f1&#45;&gt;nodo2:f2</title>
<path fill="none" stroke="black" d="M13.65,-59.95C72.21,19.95 793.47,19.98 852.53,-59.86"/>
<polygon fill="black" stroke="black" points="10.44,-58.53 10.38,-69.12 17.04,-60.87 10.44,-58.53"/>
<polygon fill="black" stroke="black" points="849.19,-60.9 855.86,-69.12 855.77,-58.53 849.19,-60.9"/>
</g>
<!-- nodo1&#45;&gt;nodo2 -->
<g id="edge2" class="edge">
<title>nodo1:f2&#45;&gt;nodo2:f1</title>
<path fill="none" stroke="black" d="M576.95,-100.3C581.62,-100.3 585.39,-100.3 590.06,-100.3"/>
<polygon fill="black" stroke="black" points="577.01,-96.8 567.01,-100.3 577.01,-103.8 577.01,-96.8"/>
<polygon fill="black" stroke="black" points="589.99,-103.8 599.99,-100.3 589.99,-96.8 589.99,-103.8"/>
</g>
</g>
</svg>
