<?xml version="1.0" encoding="UTF-8" standalone="no"?>
<!DOCTYPE svg PUBLIC "-//W3C//DTD SVG 1.1//EN"
 "http://www.w3.org/Graphics/SVG/1.1/DTD/svg11.dtd">
<!-- Generated by graphviz version 12.1.2 (20240928.0832)
 -->
<!-- Title: MatrizDispersa Pages: 1 -->
<svg width="800pt" height="908pt"
 viewBox="0.00 0.00 800.00 908.00" xmlns="http://www.w3.org/2000/svg" xmlns:xlink="http://www.w3.org/1999/xlink">
<g id="graph0" class="graph" transform="scale(1 1) rotate(0) translate(4 904)">
<title>MatrizDispersa</title>
<polygon fill="white" stroke="none" points="-4,4 -4,-904 796,-904 796,4 -4,4"/>
<!-- nodo_0_0 -->
<!-- nodo_0_1 -->
<!-- nodo_0_0&#45;&gt;nodo_0_1 -->
<!-- nodo_1_0 -->
<!-- nodo_0_0&#45;&gt;nodo_1_0 -->
<!-- nodo_0_2 -->
<!-- nodo_0_1&#45;&gt;nodo_0_2 -->
<!-- nodo_1_1 -->
<!-- nodo_0_1&#45;&gt;nodo_1_1 -->
<!-- nodo_0_3 -->
<!-- nodo_0_2&#45;&gt;nodo_0_3 -->
<!-- nodo_1_2 -->
<!-- nodo_0_2&#45;&gt;nodo_1_2 -->
<!-- nodo_0_4 -->
<!-- nodo_0_3&#45;&gt;nodo_0_4 -->
<!-- nodo_1_3 -->
<g id="node19" class="node">
<title>nodo_1_3</title>
<polygon fill="#000000" stroke="black" points="198,-828 162,-828 162,-792 198,-792 198,-828"/>
</g>
<!-- nodo_0_3&#45;&gt;nodo_1_3 -->
<!-- nodo_0_5 -->
<!-- nodo_0_4&#45;&gt;nodo_0_5 -->
<!-- nodo_1_4 -->
<g id="node20" class="node">
<title>nodo_1_4</title>
<polygon fill="#000000" stroke="black" points="252,-828 216,-828 216,-792 252,-792 252,-828"/>
</g>
<!-- nodo_0_4&#45;&gt;nodo_1_4 -->
<!-- nodo_0_6 -->
<!-- nodo_0_5&#45;&gt;nodo_0_6 -->
<!-- nodo_1_5 -->
<g id="node21" class="node">
<title>nodo_1_5</title>
<polygon fill="#000000" stroke="black" points="306,-828 270,-828 270,-792 306,-792 306,-828"/>
</g>
<!-- nodo_0_5&#45;&gt;nodo_1_5 -->
<!-- nodo_0_7 -->
<!-- nodo_0_6&#45;&gt;nodo_0_7 -->
<!-- nodo_1_6 -->
<!-- nodo_0_6&#45;&gt;nodo_1_6 -->
<!-- nodo_0_8 -->
<!-- nodo_0_7&#45;&gt;nodo_0_8 -->
<!-- nodo_1_7 -->
<!-- nodo_0_7&#45;&gt;nodo_1_7 -->
<!-- nodo_0_9 -->
<!-- nodo_0_8&#45;&gt;nodo_0_9 -->
<!-- nodo_1_8 -->
<!-- nodo_0_8&#45;&gt;nodo_1_8 -->
<!-- nodo_0_10 -->
<!-- nodo_0_9&#45;&gt;nodo_0_10 -->
<!-- nodo_1_9 -->
<!-- nodo_0_9&#45;&gt;nodo_1_9 -->
<!-- nodo_0_11 -->
<!-- nodo_0_10&#45;&gt;nodo_0_11 -->
<!-- nodo_1_10 -->
<g id="node26" class="node">
<title>nodo_1_10</title>
<polygon fill="#000000" stroke="black" points="576,-828 540,-828 540,-792 576,-792 576,-828"/>
</g>
<!-- nodo_0_10&#45;&gt;nodo_1_10 -->
<!-- nodo_0_12 -->
<!-- nodo_0_11&#45;&gt;nodo_0_12 -->
<!-- nodo_1_11 -->
<g id="node27" class="node">
<title>nodo_1_11</title>
<polygon fill="#000000" stroke="black" points="630,-828 594,-828 594,-792 630,-792 630,-828"/>
</g>
<!-- nodo_0_11&#45;&gt;nodo_1_11 -->
<!-- nodo_0_13 -->
<!-- nodo_0_12&#45;&gt;nodo_0_13 -->
<!-- nodo_1_12 -->
<g id="node28" class="node">
<title>nodo_1_12</title>
<polygon fill="#000000" stroke="black" points="684,-828 648,-828 648,-792 684,-792 684,-828"/>
</g>
<!-- nodo_0_12&#45;&gt;nodo_1_12 -->
<!-- nodo_0_14 -->
<!-- nodo_0_13&#45;&gt;nodo_0_14 -->
<!-- nodo_1_13 -->
<!-- nodo_0_13&#45;&gt;nodo_1_13 -->
<!-- nodo_1_14 -->
<!-- nodo_0_14&#45;&gt;nodo_1_14 -->
<!-- nodo_1_0&#45;&gt;nodo_1_1 -->
<!-- nodo_2_0 -->
<!-- nodo_1_0&#45;&gt;nodo_2_0 -->
<!-- nodo_1_1&#45;&gt;nodo_1_2 -->
<!-- nodo_2_1 -->
<!-- nodo_1_1&#45;&gt;nodo_2_1 -->
<!-- nodo_1_2&#45;&gt;nodo_1_3 -->
<!-- nodo_2_2 -->
<g id="node33" class="node">
<title>nodo_2_2</title>
<polygon fill="#000000" stroke="black" points="144,-756 108,-756 108,-720 144,-720 144,-756"/>
</g>
<!-- nodo_1_2&#45;&gt;nodo_2_2 -->
<!-- nodo_1_3&#45;&gt;nodo_1_4 -->
<!-- nodo_2_3 -->
<g id="node34" class="node">
<title>nodo_2_3</title>
<polygon fill="#a9d11b" stroke="black" points="198,-756 162,-756 162,-720 198,-720 198,-756"/>
</g>
<!-- nodo_1_3&#45;&gt;nodo_2_3 -->
<!-- nodo_1_4&#45;&gt;nodo_1_5 -->
<!-- nodo_2_4 -->
<g id="node35" class="node">
<title>nodo_2_4</title>
<polygon fill="#a9d11b" stroke="black" points="252,-756 216,-756 216,-720 252,-720 252,-756"/>
</g>
<!-- nodo_1_4&#45;&gt;nodo_2_4 -->
<!-- nodo_1_5&#45;&gt;nodo_1_6 -->
<!-- nodo_2_5 -->
<g id="node36" class="node">
<title>nodo_2_5</title>
<polygon fill="#a9d11b" stroke="black" points="306,-756 270,-756 270,-720 306,-720 306,-756"/>
</g>
<!-- nodo_1_5&#45;&gt;nodo_2_5 -->
<!-- nodo_1_6&#45;&gt;nodo_1_7 -->
<!-- nodo_2_6 -->
<g id="node37" class="node">
<title>nodo_2_6</title>
<polygon fill="#000000" stroke="black" points="360,-756 324,-756 324,-720 360,-720 360,-756"/>
</g>
<!-- nodo_1_6&#45;&gt;nodo_2_6 -->
<!-- nodo_1_7&#45;&gt;nodo_1_8 -->
<!-- nodo_2_7 -->
<g id="node38" class="node">
<title>nodo_2_7</title>
<polygon fill="#000000" stroke="black" points="414,-756 378,-756 378,-720 414,-720 414,-756"/>
</g>
<!-- nodo_1_7&#45;&gt;nodo_2_7 -->
<!-- nodo_1_8&#45;&gt;nodo_1_9 -->
<!-- nodo_2_8 -->
<g id="node39" class="node">
<title>nodo_2_8</title>
<polygon fill="#000000" stroke="black" points="468,-756 432,-756 432,-720 468,-720 468,-756"/>
</g>
<!-- nodo_1_8&#45;&gt;nodo_2_8 -->
<!-- nodo_1_9&#45;&gt;nodo_1_10 -->
<!-- nodo_2_9 -->
<g id="node40" class="node">
<title>nodo_2_9</title>
<polygon fill="#000000" stroke="black" points="522,-756 486,-756 486,-720 522,-720 522,-756"/>
</g>
<!-- nodo_1_9&#45;&gt;nodo_2_9 -->
<!-- nodo_1_10&#45;&gt;nodo_1_11 -->
<!-- nodo_2_10 -->
<g id="node41" class="node">
<title>nodo_2_10</title>
<polygon fill="#a9d11b" stroke="black" points="576,-756 540,-756 540,-720 576,-720 576,-756"/>
</g>
<!-- nodo_1_10&#45;&gt;nodo_2_10 -->
<!-- nodo_1_11&#45;&gt;nodo_1_12 -->
<!-- nodo_2_11 -->
<g id="node42" class="node">
<title>nodo_2_11</title>
<polygon fill="#a9d11b" stroke="black" points="630,-756 594,-756 594,-720 630,-720 630,-756"/>
</g>
<!-- nodo_1_11&#45;&gt;nodo_2_11 -->
<!-- nodo_1_12&#45;&gt;nodo_1_13 -->
<!-- nodo_2_12 -->
<g id="node43" class="node">
<title>nodo_2_12</title>
<polygon fill="#a9d11b" stroke="black" points="684,-756 648,-756 648,-720 684,-720 684,-756"/>
</g>
<!-- nodo_1_12&#45;&gt;nodo_2_12 -->
<!-- nodo_1_13&#45;&gt;nodo_1_14 -->
<!-- nodo_2_13 -->
<g id="node44" class="node">
<title>nodo_2_13</title>
<polygon fill="#000000" stroke="black" points="738,-756 702,-756 702,-720 738,-720 738,-756"/>
</g>
<!-- nodo_1_13&#45;&gt;nodo_2_13 -->
<!-- nodo_2_14 -->
<!-- nodo_1_14&#45;&gt;nodo_2_14 -->
<!-- nodo_2_0&#45;&gt;nodo_2_1 -->
<!-- nodo_3_0 -->
<!-- nodo_2_0&#45;&gt;nodo_3_0 -->
<!-- nodo_2_1&#45;&gt;nodo_2_2 -->
<!-- nodo_3_1 -->
<!-- nodo_2_1&#45;&gt;nodo_3_1 -->
<!-- nodo_2_2&#45;&gt;nodo_2_3 -->
<!-- nodo_3_2 -->
<g id="node48" class="node">
<title>nodo_3_2</title>
<polygon fill="#000000" stroke="black" points="144,-684 108,-684 108,-648 144,-648 144,-684"/>
</g>
<!-- nodo_2_2&#45;&gt;nodo_3_2 -->
<!-- nodo_2_3&#45;&gt;nodo_2_4 -->
<!-- nodo_3_3 -->
<g id="node49" class="node">
<title>nodo_3_3</title>
<polygon fill="#a9d11b" stroke="black" points="198,-684 162,-684 162,-648 198,-648 198,-684"/>
</g>
<!-- nodo_2_3&#45;&gt;nodo_3_3 -->
<!-- nodo_2_4&#45;&gt;nodo_2_5 -->
<!-- nodo_3_4 -->
<g id="node50" class="node">
<title>nodo_3_4</title>
<polygon fill="#000000" stroke="black" points="252,-684 216,-684 216,-648 252,-648 252,-684"/>
</g>
<!-- nodo_2_4&#45;&gt;nodo_3_4 -->
<!-- nodo_2_5&#45;&gt;nodo_2_6 -->
<!-- nodo_3_5 -->
<g id="node51" class="node">
<title>nodo_3_5</title>
<polygon fill="#a9d11b" stroke="black" points="306,-684 270,-684 270,-648 306,-648 306,-684"/>
</g>
<!-- nodo_2_5&#45;&gt;nodo_3_5 -->
<!-- nodo_2_6&#45;&gt;nodo_2_7 -->
<!-- nodo_3_6 -->
<g id="node52" class="node">
<title>nodo_3_6</title>
<polygon fill="#a9d11b" stroke="black" points="360,-684 324,-684 324,-648 360,-648 360,-684"/>
</g>
<!-- nodo_2_6&#45;&gt;nodo_3_6 -->
<!-- nodo_2_7&#45;&gt;nodo_2_8 -->
<!-- nodo_3_7 -->
<g id="node53" class="node">
<title>nodo_3_7</title>
<polygon fill="#a9d11b" stroke="black" points="414,-684 378,-684 378,-648 414,-648 414,-684"/>
</g>
<!-- nodo_2_7&#45;&gt;nodo_3_7 -->
<!-- nodo_2_8&#45;&gt;nodo_2_9 -->
<!-- nodo_3_8 -->
<g id="node54" class="node">
<title>nodo_3_8</title>
<polygon fill="#a9d11b" stroke="black" points="468,-684 432,-684 432,-648 468,-648 468,-684"/>
</g>
<!-- nodo_2_8&#45;&gt;nodo_3_8 -->
<!-- nodo_2_9&#45;&gt;nodo_2_10 -->
<!-- nodo_3_9 -->
<g id="node55" class="node">
<title>nodo_3_9</title>
<polygon fill="#a9d11b" stroke="black" points="522,-684 486,-684 486,-648 522,-648 522,-684"/>
</g>
<!-- nodo_2_9&#45;&gt;nodo_3_9 -->
<!-- nodo_2_10&#45;&gt;nodo_2_11 -->
<!-- nodo_3_10 -->
<g id="node56" class="node">
<title>nodo_3_10</title>
<polygon fill="#a9d11b" stroke="black" points="576,-684 540,-684 540,-648 576,-648 576,-684"/>
</g>
<!-- nodo_2_10&#45;&gt;nodo_3_10 -->
<!-- nodo_2_11&#45;&gt;nodo_2_12 -->
<!-- nodo_3_11 -->
<g id="node57" class="node">
<title>nodo_3_11</title>
<polygon fill="#000000" stroke="black" points="630,-684 594,-684 594,-648 630,-648 630,-684"/>
</g>
<!-- nodo_2_11&#45;&gt;nodo_3_11 -->
<!-- nodo_2_12&#45;&gt;nodo_2_13 -->
<!-- nodo_3_12 -->
<g id="node58" class="node">
<title>nodo_3_12</title>
<polygon fill="#a9d11b" stroke="black" points="684,-684 648,-684 648,-648 684,-648 684,-684"/>
</g>
<!-- nodo_2_12&#45;&gt;nodo_3_12 -->
<!-- nodo_2_13&#45;&gt;nodo_2_14 -->
<!-- nodo_3_13 -->
<g id="node59" class="node">
<title>nodo_3_13</title>
<polygon fill="#000000" stroke="black" points="738,-684 702,-684 702,-648 738,-648 738,-684"/>
</g>
<!-- nodo_2_13&#45;&gt;nodo_3_13 -->
<!-- nodo_3_14 -->
<!-- nodo_2_14&#45;&gt;nodo_3_14 -->
<!-- nodo_3_0&#45;&gt;nodo_3_1 -->
<!-- nodo_4_0 -->
<!-- nodo_3_0&#45;&gt;nodo_4_0 -->
<!-- nodo_3_1&#45;&gt;nodo_3_2 -->
<!-- nodo_4_1 -->
<g id="node62" class="node">
<title>nodo_4_1</title>
<polygon fill="#000000" stroke="black" points="90,-612 54,-612 54,-576 90,-576 90,-612"/>
</g>
<!-- nodo_3_1&#45;&gt;nodo_4_1 -->
<!-- nodo_3_2&#45;&gt;nodo_3_3 -->
<!-- nodo_4_2 -->
<g id="node63" class="node">
<title>nodo_4_2</title>
<polygon fill="#a9d11b" stroke="black" points="144,-612 108,-612 108,-576 144,-576 144,-612"/>
</g>
<!-- nodo_3_2&#45;&gt;nodo_4_2 -->
<!-- nodo_3_3&#45;&gt;nodo_3_4 -->
<!-- nodo_4_3 -->
<g id="node64" class="node">
<title>nodo_4_3</title>
<polygon fill="#f06fc2" stroke="black" points="198,-612 162,-612 162,-576 198,-576 198,-612"/>
</g>
<!-- nodo_3_3&#45;&gt;nodo_4_3 -->
<!-- nodo_3_4&#45;&gt;nodo_3_5 -->
<!-- nodo_4_4 -->
<g id="node65" class="node">
<title>nodo_4_4</title>
<polygon fill="#f06fc2" stroke="black" points="252,-612 216,-612 216,-576 252,-576 252,-612"/>
</g>
<!-- nodo_3_4&#45;&gt;nodo_4_4 -->
<!-- nodo_3_5&#45;&gt;nodo_3_6 -->
<!-- nodo_4_5 -->
<g id="node66" class="node">
<title>nodo_4_5</title>
<polygon fill="#a9d11b" stroke="black" points="306,-612 270,-612 270,-576 306,-576 306,-612"/>
</g>
<!-- nodo_3_5&#45;&gt;nodo_4_5 -->
<!-- nodo_3_6&#45;&gt;nodo_3_7 -->
<!-- nodo_4_6 -->
<g id="node67" class="node">
<title>nodo_4_6</title>
<polygon fill="#000000" stroke="black" points="360,-612 324,-612 324,-576 360,-576 360,-612"/>
</g>
<!-- nodo_3_6&#45;&gt;nodo_4_6 -->
<!-- nodo_3_7&#45;&gt;nodo_3_8 -->
<!-- nodo_4_7 -->
<g id="node68" class="node">
<title>nodo_4_7</title>
<polygon fill="#a9d11b" stroke="black" points="414,-612 378,-612 378,-576 414,-576 414,-612"/>
</g>
<!-- nodo_3_7&#45;&gt;nodo_4_7 -->
<!-- nodo_3_8&#45;&gt;nodo_3_9 -->
<!-- nodo_4_8 -->
<g id="node69" class="node">
<title>nodo_4_8</title>
<polygon fill="#a9d11b" stroke="black" points="468,-612 432,-612 432,-576 468,-576 468,-612"/>
</g>
<!-- nodo_3_8&#45;&gt;nodo_4_8 -->
<!-- nodo_3_9&#45;&gt;nodo_3_10 -->
<!-- nodo_4_9 -->
<g id="node70" class="node">
<title>nodo_4_9</title>
<polygon fill="#000000" stroke="black" points="522,-612 486,-612 486,-576 522,-576 522,-612"/>
</g>
<!-- nodo_3_9&#45;&gt;nodo_4_9 -->
<!-- nodo_3_10&#45;&gt;nodo_3_11 -->
<!-- nodo_4_10 -->
<g id="node71" class="node">
<title>nodo_4_10</title>
<polygon fill="#a9d11b" stroke="black" points="576,-612 540,-612 540,-576 576,-576 576,-612"/>
</g>
<!-- nodo_3_10&#45;&gt;nodo_4_10 -->
<!-- nodo_3_11&#45;&gt;nodo_3_12 -->
<!-- nodo_4_11 -->
<g id="node72" class="node">
<title>nodo_4_11</title>
<polygon fill="#f06fc2" stroke="black" points="630,-612 594,-612 594,-576 630,-576 630,-612"/>
</g>
<!-- nodo_3_11&#45;&gt;nodo_4_11 -->
<!-- nodo_3_12&#45;&gt;nodo_3_13 -->
<!-- nodo_4_12 -->
<g id="node73" class="node">
<title>nodo_4_12</title>
<polygon fill="#f06fc2" stroke="black" points="684,-612 648,-612 648,-576 684,-576 684,-612"/>
</g>
<!-- nodo_3_12&#45;&gt;nodo_4_12 -->
<!-- nodo_3_13&#45;&gt;nodo_3_14 -->
<!-- nodo_4_13 -->
<g id="node74" class="node">
<title>nodo_4_13</title>
<polygon fill="#a9d11b" stroke="black" points="738,-612 702,-612 702,-576 738,-576 738,-612"/>
</g>
<!-- nodo_3_13&#45;&gt;nodo_4_13 -->
<!-- nodo_4_14 -->
<g id="node75" class="node">
<title>nodo_4_14</title>
<polygon fill="#000000" stroke="black" points="792,-612 756,-612 756,-576 792,-576 792,-612"/>
</g>
<!-- nodo_3_14&#45;&gt;nodo_4_14 -->
<!-- nodo_4_0&#45;&gt;nodo_4_1 -->
<!-- nodo_5_0 -->
<!-- nodo_4_0&#45;&gt;nodo_5_0 -->
<!-- nodo_4_1&#45;&gt;nodo_4_2 -->
<!-- nodo_5_1 -->
<g id="node77" class="node">
<title>nodo_5_1</title>
<polygon fill="#000000" stroke="black" points="90,-540 54,-540 54,-504 90,-504 90,-540"/>
</g>
<!-- nodo_4_1&#45;&gt;nodo_5_1 -->
<!-- nodo_4_2&#45;&gt;nodo_4_3 -->
<!-- nodo_5_2 -->
<g id="node78" class="node">
<title>nodo_5_2</title>
<polygon fill="#a9d11b" stroke="black" points="144,-540 108,-540 108,-504 144,-504 144,-540"/>
</g>
<!-- nodo_4_2&#45;&gt;nodo_5_2 -->
<!-- nodo_4_3&#45;&gt;nodo_4_4 -->
<!-- nodo_5_3 -->
<g id="node79" class="node">
<title>nodo_5_3</title>
<polygon fill="#f06fc2" stroke="black" points="198,-540 162,-540 162,-504 198,-504 198,-540"/>
</g>
<!-- nodo_4_3&#45;&gt;nodo_5_3 -->
<!-- nodo_4_4&#45;&gt;nodo_4_5 -->
<!-- nodo_5_4 -->
<g id="node80" class="node">
<title>nodo_5_4</title>
<polygon fill="#f06fc2" stroke="black" points="252,-540 216,-540 216,-504 252,-504 252,-540"/>
</g>
<!-- nodo_4_4&#45;&gt;nodo_5_4 -->
<!-- nodo_4_5&#45;&gt;nodo_4_6 -->
<!-- nodo_5_5 -->
<g id="node81" class="node">
<title>nodo_5_5</title>
<polygon fill="#a9d11b" stroke="black" points="306,-540 270,-540 270,-504 306,-504 306,-540"/>
</g>
<!-- nodo_4_5&#45;&gt;nodo_5_5 -->
<!-- nodo_4_6&#45;&gt;nodo_4_7 -->
<!-- nodo_5_6 -->
<g id="node82" class="node">
<title>nodo_5_6</title>
<polygon fill="#a9d11b" stroke="black" points="360,-540 324,-540 324,-504 360,-504 360,-540"/>
</g>
<!-- nodo_4_6&#45;&gt;nodo_5_6 -->
<!-- nodo_4_7&#45;&gt;nodo_4_8 -->
<!-- nodo_5_7 -->
<g id="node83" class="node">
<title>nodo_5_7</title>
<polygon fill="#000000" stroke="black" points="414,-540 378,-540 378,-504 414,-504 414,-540"/>
</g>
<!-- nodo_4_7&#45;&gt;nodo_5_7 -->
<!-- nodo_4_8&#45;&gt;nodo_4_9 -->
<!-- nodo_5_8 -->
<g id="node84" class="node">
<title>nodo_5_8</title>
<polygon fill="#000000" stroke="black" points="468,-540 432,-540 432,-504 468,-504 468,-540"/>
</g>
<!-- nodo_4_8&#45;&gt;nodo_5_8 -->
<!-- nodo_4_9&#45;&gt;nodo_4_10 -->
<!-- nodo_5_9 -->
<g id="node85" class="node">
<title>nodo_5_9</title>
<polygon fill="#a9d11b" stroke="black" points="522,-540 486,-540 486,-504 522,-504 522,-540"/>
</g>
<!-- nodo_4_9&#45;&gt;nodo_5_9 -->
<!-- nodo_4_10&#45;&gt;nodo_4_11 -->
<!-- nodo_5_10 -->
<g id="node86" class="node">
<title>nodo_5_10</title>
<polygon fill="#a9d11b" stroke="black" points="576,-540 540,-540 540,-504 576,-504 576,-540"/>
</g>
<!-- nodo_4_10&#45;&gt;nodo_5_10 -->
<!-- nodo_4_11&#45;&gt;nodo_4_12 -->
<!-- nodo_5_11 -->
<g id="node87" class="node">
<title>nodo_5_11</title>
<polygon fill="#f06fc2" stroke="black" points="630,-540 594,-540 594,-504 630,-504 630,-540"/>
</g>
<!-- nodo_4_11&#45;&gt;nodo_5_11 -->
<!-- nodo_4_12&#45;&gt;nodo_4_13 -->
<!-- nodo_5_12 -->
<g id="node88" class="node">
<title>nodo_5_12</title>
<polygon fill="#f06fc2" stroke="black" points="684,-540 648,-540 648,-504 684,-504 684,-540"/>
</g>
<!-- nodo_4_12&#45;&gt;nodo_5_12 -->
<!-- nodo_4_13&#45;&gt;nodo_4_14 -->
<!-- nodo_5_13 -->
<g id="node89" class="node">
<title>nodo_5_13</title>
<polygon fill="#a9d11b" stroke="black" points="738,-540 702,-540 702,-504 738,-504 738,-540"/>
</g>
<!-- nodo_4_13&#45;&gt;nodo_5_13 -->
<!-- nodo_5_14 -->
<g id="node90" class="node">
<title>nodo_5_14</title>
<polygon fill="#000000" stroke="black" points="792,-540 756,-540 756,-504 792,-504 792,-540"/>
</g>
<!-- nodo_4_14&#45;&gt;nodo_5_14 -->
<!-- nodo_5_0&#45;&gt;nodo_5_1 -->
<!-- nodo_6_0 -->
<!-- nodo_5_0&#45;&gt;nodo_6_0 -->
<!-- nodo_5_1&#45;&gt;nodo_5_2 -->
<!-- nodo_6_1 -->
<g id="node92" class="node">
<title>nodo_6_1</title>
<polygon fill="#000000" stroke="black" points="90,-468 54,-468 54,-432 90,-432 90,-468"/>
</g>
<!-- nodo_5_1&#45;&gt;nodo_6_1 -->
<!-- nodo_5_2&#45;&gt;nodo_5_3 -->
<!-- nodo_6_2 -->
<g id="node93" class="node">
<title>nodo_6_2</title>
<polygon fill="#a9d11b" stroke="black" points="144,-468 108,-468 108,-432 144,-432 144,-468"/>
</g>
<!-- nodo_5_2&#45;&gt;nodo_6_2 -->
<!-- nodo_5_3&#45;&gt;nodo_5_4 -->
<!-- nodo_6_3 -->
<g id="node94" class="node">
<title>nodo_6_3</title>
<polygon fill="#a9d11b" stroke="black" points="198,-468 162,-468 162,-432 198,-432 198,-468"/>
</g>
<!-- nodo_5_3&#45;&gt;nodo_6_3 -->
<!-- nodo_5_4&#45;&gt;nodo_5_5 -->
<!-- nodo_6_4 -->
<g id="node95" class="node">
<title>nodo_6_4</title>
<polygon fill="#a9d11b" stroke="black" points="252,-468 216,-468 216,-432 252,-432 252,-468"/>
</g>
<!-- nodo_5_4&#45;&gt;nodo_6_4 -->
<!-- nodo_5_5&#45;&gt;nodo_5_6 -->
<!-- nodo_6_5 -->
<g id="node96" class="node">
<title>nodo_6_5</title>
<polygon fill="#a9d11b" stroke="black" points="306,-468 270,-468 270,-432 306,-432 306,-468"/>
</g>
<!-- nodo_5_5&#45;&gt;nodo_6_5 -->
<!-- nodo_5_6&#45;&gt;nodo_5_7 -->
<!-- nodo_6_6 -->
<g id="node97" class="node">
<title>nodo_6_6</title>
<polygon fill="#a9d11b" stroke="black" points="360,-468 324,-468 324,-432 360,-432 360,-468"/>
</g>
<!-- nodo_5_6&#45;&gt;nodo_6_6 -->
<!-- nodo_5_7&#45;&gt;nodo_5_8 -->
<!-- nodo_6_7 -->
<g id="node98" class="node">
<title>nodo_6_7</title>
<polygon fill="#a9d11b" stroke="black" points="414,-468 378,-468 378,-432 414,-432 414,-468"/>
</g>
<!-- nodo_5_7&#45;&gt;nodo_6_7 -->
<!-- nodo_5_8&#45;&gt;nodo_5_9 -->
<!-- nodo_6_8 -->
<g id="node99" class="node">
<title>nodo_6_8</title>
<polygon fill="#a9d11b" stroke="black" points="468,-468 432,-468 432,-432 468,-432 468,-468"/>
</g>
<!-- nodo_5_8&#45;&gt;nodo_6_8 -->
<!-- nodo_5_9&#45;&gt;nodo_5_10 -->
<!-- nodo_6_9 -->
<g id="node100" class="node">
<title>nodo_6_9</title>
<polygon fill="#a9d11b" stroke="black" points="522,-468 486,-468 486,-432 522,-432 522,-468"/>
</g>
<!-- nodo_5_9&#45;&gt;nodo_6_9 -->
<!-- nodo_5_10&#45;&gt;nodo_5_11 -->
<!-- nodo_6_10 -->
<g id="node101" class="node">
<title>nodo_6_10</title>
<polygon fill="#a9d11b" stroke="black" points="576,-468 540,-468 540,-432 576,-432 576,-468"/>
</g>
<!-- nodo_5_10&#45;&gt;nodo_6_10 -->
<!-- nodo_5_11&#45;&gt;nodo_5_12 -->
<!-- nodo_6_11 -->
<g id="node102" class="node">
<title>nodo_6_11</title>
<polygon fill="#a9d11b" stroke="black" points="630,-468 594,-468 594,-432 630,-432 630,-468"/>
</g>
<!-- nodo_5_11&#45;&gt;nodo_6_11 -->
<!-- nodo_5_12&#45;&gt;nodo_5_13 -->
<!-- nodo_6_12 -->
<g id="node103" class="node">
<title>nodo_6_12</title>
<polygon fill="#a9d11b" stroke="black" points="684,-468 648,-468 648,-432 684,-432 684,-468"/>
</g>
<!-- nodo_5_12&#45;&gt;nodo_6_12 -->
<!-- nodo_5_13&#45;&gt;nodo_5_14 -->
<!-- nodo_6_13 -->
<g id="node104" class="node">
<title>nodo_6_13</title>
<polygon fill="#a9d11b" stroke="black" points="738,-468 702,-468 702,-432 738,-432 738,-468"/>
</g>
<!-- nodo_5_13&#45;&gt;nodo_6_13 -->
<!-- nodo_6_14 -->
<g id="node105" class="node">
<title>nodo_6_14</title>
<polygon fill="#000000" stroke="black" points="792,-468 756,-468 756,-432 792,-432 792,-468"/>
</g>
<!-- nodo_5_14&#45;&gt;nodo_6_14 -->
<!-- nodo_6_0&#45;&gt;nodo_6_1 -->
<!-- nodo_7_0 -->
<!-- nodo_6_0&#45;&gt;nodo_7_0 -->
<!-- nodo_6_1&#45;&gt;nodo_6_2 -->
<!-- nodo_7_1 -->
<g id="node107" class="node">
<title>nodo_7_1</title>
<polygon fill="#000000" stroke="black" points="90,-396 54,-396 54,-360 90,-360 90,-396"/>
</g>
<!-- nodo_6_1&#45;&gt;nodo_7_1 -->
<!-- nodo_6_2&#45;&gt;nodo_6_3 -->
<!-- nodo_7_2 -->
<g id="node108" class="node">
<title>nodo_7_2</title>
<polygon fill="#a9d11b" stroke="black" points="144,-396 108,-396 108,-360 144,-360 144,-396"/>
</g>
<!-- nodo_6_2&#45;&gt;nodo_7_2 -->
<!-- nodo_6_3&#45;&gt;nodo_6_4 -->
<!-- nodo_7_3 -->
<g id="node109" class="node">
<title>nodo_7_3</title>
<polygon fill="#a9d11b" stroke="black" points="198,-396 162,-396 162,-360 198,-360 198,-396"/>
</g>
<!-- nodo_6_3&#45;&gt;nodo_7_3 -->
<!-- nodo_6_4&#45;&gt;nodo_6_5 -->
<!-- nodo_7_4 -->
<g id="node110" class="node">
<title>nodo_7_4</title>
<polygon fill="#a9d11b" stroke="black" points="252,-396 216,-396 216,-360 252,-360 252,-396"/>
</g>
<!-- nodo_6_4&#45;&gt;nodo_7_4 -->
<!-- nodo_6_5&#45;&gt;nodo_6_6 -->
<!-- nodo_7_5 -->
<g id="node111" class="node">
<title>nodo_7_5</title>
<polygon fill="#a9d11b" stroke="black" points="306,-396 270,-396 270,-360 306,-360 306,-396"/>
</g>
<!-- nodo_6_5&#45;&gt;nodo_7_5 -->
<!-- nodo_6_6&#45;&gt;nodo_6_7 -->
<!-- nodo_7_6 -->
<g id="node112" class="node">
<title>nodo_7_6</title>
<polygon fill="#a9d11b" stroke="black" points="360,-396 324,-396 324,-360 360,-360 360,-396"/>
</g>
<!-- nodo_6_6&#45;&gt;nodo_7_6 -->
<!-- nodo_6_7&#45;&gt;nodo_6_8 -->
<!-- nodo_7_7 -->
<g id="node113" class="node">
<title>nodo_7_7</title>
<polygon fill="#a9d11b" stroke="black" points="414,-396 378,-396 378,-360 414,-360 414,-396"/>
</g>
<!-- nodo_6_7&#45;&gt;nodo_7_7 -->
<!-- nodo_6_8&#45;&gt;nodo_6_9 -->
<!-- nodo_7_8 -->
<g id="node114" class="node">
<title>nodo_7_8</title>
<polygon fill="#a9d11b" stroke="black" points="468,-396 432,-396 432,-360 468,-360 468,-396"/>
</g>
<!-- nodo_6_8&#45;&gt;nodo_7_8 -->
<!-- nodo_6_9&#45;&gt;nodo_6_10 -->
<!-- nodo_7_9 -->
<g id="node115" class="node">
<title>nodo_7_9</title>
<polygon fill="#a9d11b" stroke="black" points="522,-396 486,-396 486,-360 522,-360 522,-396"/>
</g>
<!-- nodo_6_9&#45;&gt;nodo_7_9 -->
<!-- nodo_6_10&#45;&gt;nodo_6_11 -->
<!-- nodo_7_10 -->
<g id="node116" class="node">
<title>nodo_7_10</title>
<polygon fill="#a9d11b" stroke="black" points="576,-396 540,-396 540,-360 576,-360 576,-396"/>
</g>
<!-- nodo_6_10&#45;&gt;nodo_7_10 -->
<!-- nodo_6_11&#45;&gt;nodo_6_12 -->
<!-- nodo_7_11 -->
<g id="node117" class="node">
<title>nodo_7_11</title>
<polygon fill="#a9d11b" stroke="black" points="630,-396 594,-396 594,-360 630,-360 630,-396"/>
</g>
<!-- nodo_6_11&#45;&gt;nodo_7_11 -->
<!-- nodo_6_12&#45;&gt;nodo_6_13 -->
<!-- nodo_7_12 -->
<g id="node118" class="node">
<title>nodo_7_12</title>
<polygon fill="#a9d11b" stroke="black" points="684,-396 648,-396 648,-360 684,-360 684,-396"/>
</g>
<!-- nodo_6_12&#45;&gt;nodo_7_12 -->
<!-- nodo_6_13&#45;&gt;nodo_6_14 -->
<!-- nodo_7_13 -->
<g id="node119" class="node">
<title>nodo_7_13</title>
<polygon fill="#a9d11b" stroke="black" points="738,-396 702,-396 702,-360 738,-360 738,-396"/>
</g>
<!-- nodo_6_13&#45;&gt;nodo_7_13 -->
<!-- nodo_7_14 -->
<g id="node120" class="node">
<title>nodo_7_14</title>
<polygon fill="#000000" stroke="black" points="792,-396 756,-396 756,-360 792,-360 792,-396"/>
</g>
<!-- nodo_6_14&#45;&gt;nodo_7_14 -->
<!-- nodo_7_0&#45;&gt;nodo_7_1 -->
<!-- nodo_8_0 -->
<!-- nodo_7_0&#45;&gt;nodo_8_0 -->
<!-- nodo_7_1&#45;&gt;nodo_7_2 -->
<!-- nodo_8_1 -->
<g id="node122" class="node">
<title>nodo_8_1</title>
<polygon fill="#000000" stroke="black" points="90,-324 54,-324 54,-288 90,-288 90,-324"/>
</g>
<!-- nodo_7_1&#45;&gt;nodo_8_1 -->
<!-- nodo_7_2&#45;&gt;nodo_7_3 -->
<!-- nodo_8_2 -->
<g id="node123" class="node">
<title>nodo_8_2</title>
<polygon fill="#a9d11b" stroke="black" points="144,-324 108,-324 108,-288 144,-288 144,-324"/>
</g>
<!-- nodo_7_2&#45;&gt;nodo_8_2 -->
<!-- nodo_7_3&#45;&gt;nodo_7_4 -->
<!-- nodo_8_3 -->
<g id="node124" class="node">
<title>nodo_8_3</title>
<polygon fill="#a9d11b" stroke="black" points="198,-324 162,-324 162,-288 198,-288 198,-324"/>
</g>
<!-- nodo_7_3&#45;&gt;nodo_8_3 -->
<!-- nodo_7_4&#45;&gt;nodo_7_5 -->
<!-- nodo_8_4 -->
<g id="node125" class="node">
<title>nodo_8_4</title>
<polygon fill="#a9d11b" stroke="black" points="252,-324 216,-324 216,-288 252,-288 252,-324"/>
</g>
<!-- nodo_7_4&#45;&gt;nodo_8_4 -->
<!-- nodo_7_5&#45;&gt;nodo_7_6 -->
<!-- nodo_8_5 -->
<g id="node126" class="node">
<title>nodo_8_5</title>
<polygon fill="#a9d11b" stroke="black" points="306,-324 270,-324 270,-288 306,-288 306,-324"/>
</g>
<!-- nodo_7_5&#45;&gt;nodo_8_5 -->
<!-- nodo_7_6&#45;&gt;nodo_7_7 -->
<!-- nodo_8_6 -->
<g id="node127" class="node">
<title>nodo_8_6</title>
<polygon fill="#a9d11b" stroke="black" points="360,-324 324,-324 324,-288 360,-288 360,-324"/>
</g>
<!-- nodo_7_6&#45;&gt;nodo_8_6 -->
<!-- nodo_7_7&#45;&gt;nodo_7_8 -->
<!-- nodo_8_7 -->
<g id="node128" class="node">
<title>nodo_8_7</title>
<polygon fill="#a9d11b" stroke="black" points="414,-324 378,-324 378,-288 414,-288 414,-324"/>
</g>
<!-- nodo_7_7&#45;&gt;nodo_8_7 -->
<!-- nodo_7_8&#45;&gt;nodo_7_9 -->
<!-- nodo_8_8 -->
<g id="node129" class="node">
<title>nodo_8_8</title>
<polygon fill="#a9d11b" stroke="black" points="468,-324 432,-324 432,-288 468,-288 468,-324"/>
</g>
<!-- nodo_7_8&#45;&gt;nodo_8_8 -->
<!-- nodo_7_9&#45;&gt;nodo_7_10 -->
<!-- nodo_8_9 -->
<g id="node130" class="node">
<title>nodo_8_9</title>
<polygon fill="#a9d11b" stroke="black" points="522,-324 486,-324 486,-288 522,-288 522,-324"/>
</g>
<!-- nodo_7_9&#45;&gt;nodo_8_9 -->
<!-- nodo_7_10&#45;&gt;nodo_7_11 -->
<!-- nodo_8_10 -->
<g id="node131" class="node">
<title>nodo_8_10</title>
<polygon fill="#a9d11b" stroke="black" points="576,-324 540,-324 540,-288 576,-288 576,-324"/>
</g>
<!-- nodo_7_10&#45;&gt;nodo_8_10 -->
<!-- nodo_7_11&#45;&gt;nodo_7_12 -->
<!-- nodo_8_11 -->
<g id="node132" class="node">
<title>nodo_8_11</title>
<polygon fill="#a9d11b" stroke="black" points="630,-324 594,-324 594,-288 630,-288 630,-324"/>
</g>
<!-- nodo_7_11&#45;&gt;nodo_8_11 -->
<!-- nodo_7_12&#45;&gt;nodo_7_13 -->
<!-- nodo_8_12 -->
<g id="node133" class="node">
<title>nodo_8_12</title>
<polygon fill="#a9d11b" stroke="black" points="684,-324 648,-324 648,-288 684,-288 684,-324"/>
</g>
<!-- nodo_7_12&#45;&gt;nodo_8_12 -->
<!-- nodo_7_13&#45;&gt;nodo_7_14 -->
<!-- nodo_8_13 -->
<g id="node134" class="node">
<title>nodo_8_13</title>
<polygon fill="#a9d11b" stroke="black" points="738,-324 702,-324 702,-288 738,-288 738,-324"/>
</g>
<!-- nodo_7_13&#45;&gt;nodo_8_13 -->
<!-- nodo_8_14 -->
<g id="node135" class="node">
<title>nodo_8_14</title>
<polygon fill="#000000" stroke="black" points="792,-324 756,-324 756,-288 792,-288 792,-324"/>
</g>
<!-- nodo_7_14&#45;&gt;nodo_8_14 -->
<!-- nodo_8_0&#45;&gt;nodo_8_1 -->
<!-- nodo_9_0 -->
<!-- nodo_8_0&#45;&gt;nodo_9_0 -->
<!-- nodo_8_1&#45;&gt;nodo_8_2 -->
<!-- nodo_9_1 -->
<g id="node137" class="node">
<title>nodo_9_1</title>
<polygon fill="#000000" stroke="black" points="90,-252 54,-252 54,-216 90,-216 90,-252"/>
</g>
<!-- nodo_8_1&#45;&gt;nodo_9_1 -->
<!-- nodo_8_2&#45;&gt;nodo_8_3 -->
<!-- nodo_9_2 -->
<g id="node138" class="node">
<title>nodo_9_2</title>
<polygon fill="#a9d11b" stroke="black" points="144,-252 108,-252 108,-216 144,-216 144,-252"/>
</g>
<!-- nodo_8_2&#45;&gt;nodo_9_2 -->
<!-- nodo_8_3&#45;&gt;nodo_8_4 -->
<!-- nodo_9_3 -->
<g id="node139" class="node">
<title>nodo_9_3</title>
<polygon fill="#a9d11b" stroke="black" points="198,-252 162,-252 162,-216 198,-216 198,-252"/>
</g>
<!-- nodo_8_3&#45;&gt;nodo_9_3 -->
<!-- nodo_8_4&#45;&gt;nodo_8_5 -->
<!-- nodo_9_4 -->
<g id="node140" class="node">
<title>nodo_9_4</title>
<polygon fill="#a9d11b" stroke="black" points="252,-252 216,-252 216,-216 252,-216 252,-252"/>
</g>
<!-- nodo_8_4&#45;&gt;nodo_9_4 -->
<!-- nodo_8_5&#45;&gt;nodo_8_6 -->
<!-- nodo_9_5 -->
<g id="node141" class="node">
<title>nodo_9_5</title>
<polygon fill="#a9d11b" stroke="black" points="306,-252 270,-252 270,-216 306,-216 306,-252"/>
</g>
<!-- nodo_8_5&#45;&gt;nodo_9_5 -->
<!-- nodo_8_6&#45;&gt;nodo_8_7 -->
<!-- nodo_9_6 -->
<g id="node142" class="node">
<title>nodo_9_6</title>
<polygon fill="#a9d11b" stroke="black" points="360,-252 324,-252 324,-216 360,-216 360,-252"/>
</g>
<!-- nodo_8_6&#45;&gt;nodo_9_6 -->
<!-- nodo_8_7&#45;&gt;nodo_8_8 -->
<!-- nodo_9_7 -->
<g id="node143" class="node">
<title>nodo_9_7</title>
<polygon fill="#eadd0f" stroke="black" points="414,-252 378,-252 378,-216 414,-216 414,-252"/>
</g>
<!-- nodo_8_7&#45;&gt;nodo_9_7 -->
<!-- nodo_8_8&#45;&gt;nodo_8_9 -->
<!-- nodo_9_8 -->
<g id="node144" class="node">
<title>nodo_9_8</title>
<polygon fill="#eadd0f" stroke="black" points="468,-252 432,-252 432,-216 468,-216 468,-252"/>
</g>
<!-- nodo_8_8&#45;&gt;nodo_9_8 -->
<!-- nodo_8_9&#45;&gt;nodo_8_10 -->
<!-- nodo_9_9 -->
<g id="node145" class="node">
<title>nodo_9_9</title>
<polygon fill="#a9d11b" stroke="black" points="522,-252 486,-252 486,-216 522,-216 522,-252"/>
</g>
<!-- nodo_8_9&#45;&gt;nodo_9_9 -->
<!-- nodo_8_10&#45;&gt;nodo_8_11 -->
<!-- nodo_9_10 -->
<g id="node146" class="node">
<title>nodo_9_10</title>
<polygon fill="#a9d11b" stroke="black" points="576,-252 540,-252 540,-216 576,-216 576,-252"/>
</g>
<!-- nodo_8_10&#45;&gt;nodo_9_10 -->
<!-- nodo_8_11&#45;&gt;nodo_8_12 -->
<!-- nodo_9_11 -->
<g id="node147" class="node">
<title>nodo_9_11</title>
<polygon fill="#a9d11b" stroke="black" points="630,-252 594,-252 594,-216 630,-216 630,-252"/>
</g>
<!-- nodo_8_11&#45;&gt;nodo_9_11 -->
<!-- nodo_8_12&#45;&gt;nodo_8_13 -->
<!-- nodo_9_12 -->
<g id="node148" class="node">
<title>nodo_9_12</title>
<polygon fill="#a9d11b" stroke="black" points="684,-252 648,-252 648,-216 684,-216 684,-252"/>
</g>
<!-- nodo_8_12&#45;&gt;nodo_9_12 -->
<!-- nodo_8_13&#45;&gt;nodo_8_14 -->
<!-- nodo_9_13 -->
<g id="node149" class="node">
<title>nodo_9_13</title>
<polygon fill="#a9d11b" stroke="black" points="738,-252 702,-252 702,-216 738,-216 738,-252"/>
</g>
<!-- nodo_8_13&#45;&gt;nodo_9_13 -->
<!-- nodo_9_14 -->
<g id="node150" class="node">
<title>nodo_9_14</title>
<polygon fill="#000000" stroke="black" points="792,-252 756,-252 756,-216 792,-216 792,-252"/>
</g>
<!-- nodo_8_14&#45;&gt;nodo_9_14 -->
<!-- nodo_9_0&#45;&gt;nodo_9_1 -->
<!-- nodo_10_0 -->
<!-- nodo_9_0&#45;&gt;nodo_10_0 -->
<!-- nodo_9_1&#45;&gt;nodo_9_2 -->
<!-- nodo_10_1 -->
<g id="node152" class="node">
<title>nodo_10_1</title>
<polygon fill="#000000" stroke="black" points="90,-180 54,-180 54,-144 90,-144 90,-180"/>
</g>
<!-- nodo_9_1&#45;&gt;nodo_10_1 -->
<!-- nodo_9_2&#45;&gt;nodo_9_3 -->
<!-- nodo_10_2 -->
<g id="node153" class="node">
<title>nodo_10_2</title>
<polygon fill="#a9d11b" stroke="black" points="144,-180 108,-180 108,-144 144,-144 144,-180"/>
</g>
<!-- nodo_9_2&#45;&gt;nodo_10_2 -->
<!-- nodo_9_3&#45;&gt;nodo_9_4 -->
<!-- nodo_10_3 -->
<g id="node154" class="node">
<title>nodo_10_3</title>
<polygon fill="#a9d11b" stroke="black" points="198,-180 162,-180 162,-144 198,-144 198,-180"/>
</g>
<!-- nodo_9_3&#45;&gt;nodo_10_3 -->
<!-- nodo_9_4&#45;&gt;nodo_9_5 -->
<!-- nodo_10_4 -->
<g id="node155" class="node">
<title>nodo_10_4</title>
<polygon fill="#a9d11b" stroke="black" points="252,-180 216,-180 216,-144 252,-144 252,-180"/>
</g>
<!-- nodo_9_4&#45;&gt;nodo_10_4 -->
<!-- nodo_9_5&#45;&gt;nodo_9_6 -->
<!-- nodo_10_5 -->
<g id="node156" class="node">
<title>nodo_10_5</title>
<polygon fill="#a9d11b" stroke="black" points="306,-180 270,-180 270,-144 306,-144 306,-180"/>
</g>
<!-- nodo_9_5&#45;&gt;nodo_10_5 -->
<!-- nodo_9_6&#45;&gt;nodo_9_7 -->
<!-- nodo_10_6 -->
<g id="node157" class="node">
<title>nodo_10_6</title>
<polygon fill="#eadd0f" stroke="black" points="360,-180 324,-180 324,-144 360,-144 360,-180"/>
</g>
<!-- nodo_9_6&#45;&gt;nodo_10_6 -->
<!-- nodo_9_7&#45;&gt;nodo_9_8 -->
<!-- nodo_10_7 -->
<g id="node158" class="node">
<title>nodo_10_7</title>
<polygon fill="#eadd0f" stroke="black" points="414,-180 378,-180 378,-144 414,-144 414,-180"/>
</g>
<!-- nodo_9_7&#45;&gt;nodo_10_7 -->
<!-- nodo_9_8&#45;&gt;nodo_9_9 -->
<!-- nodo_10_8 -->
<g id="node159" class="node">
<title>nodo_10_8</title>
<polygon fill="#eadd0f" stroke="black" points="468,-180 432,-180 432,-144 468,-144 468,-180"/>
</g>
<!-- nodo_9_8&#45;&gt;nodo_10_8 -->
<!-- nodo_9_9&#45;&gt;nodo_9_10 -->
<!-- nodo_10_9 -->
<g id="node160" class="node">
<title>nodo_10_9</title>
<polygon fill="#eadd0f" stroke="black" points="522,-180 486,-180 486,-144 522,-144 522,-180"/>
</g>
<!-- nodo_9_9&#45;&gt;nodo_10_9 -->
<!-- nodo_9_10&#45;&gt;nodo_9_11 -->
<!-- nodo_10_10 -->
<g id="node161" class="node">
<title>nodo_10_10</title>
<polygon fill="#a9d11b" stroke="black" points="576,-180 540,-180 540,-144 576,-144 576,-180"/>
</g>
<!-- nodo_9_10&#45;&gt;nodo_10_10 -->
<!-- nodo_9_11&#45;&gt;nodo_9_12 -->
<!-- nodo_10_11 -->
<g id="node162" class="node">
<title>nodo_10_11</title>
<polygon fill="#a9d11b" stroke="black" points="630,-180 594,-180 594,-144 630,-144 630,-180"/>
</g>
<!-- nodo_9_11&#45;&gt;nodo_10_11 -->
<!-- nodo_9_12&#45;&gt;nodo_9_13 -->
<!-- nodo_10_12 -->
<g id="node163" class="node">
<title>nodo_10_12</title>
<polygon fill="#a9d11b" stroke="black" points="684,-180 648,-180 648,-144 684,-144 684,-180"/>
</g>
<!-- nodo_9_12&#45;&gt;nodo_10_12 -->
<!-- nodo_9_13&#45;&gt;nodo_9_14 -->
<!-- nodo_10_13 -->
<g id="node164" class="node">
<title>nodo_10_13</title>
<polygon fill="#a9d11b" stroke="black" points="738,-180 702,-180 702,-144 738,-144 738,-180"/>
</g>
<!-- nodo_9_13&#45;&gt;nodo_10_13 -->
<!-- nodo_10_14 -->
<g id="node165" class="node">
<title>nodo_10_14</title>
<polygon fill="#000000" stroke="black" points="792,-180 756,-180 756,-144 792,-144 792,-180"/>
</g>
<!-- nodo_9_14&#45;&gt;nodo_10_14 -->
<!-- nodo_10_0&#45;&gt;nodo_10_1 -->
<!-- nodo_11_0 -->
<!-- nodo_10_0&#45;&gt;nodo_11_0 -->
<!-- nodo_10_1&#45;&gt;nodo_10_2 -->
<!-- nodo_11_1 -->
<!-- nodo_10_1&#45;&gt;nodo_11_1 -->
<!-- nodo_10_2&#45;&gt;nodo_10_3 -->
<!-- nodo_11_2 -->
<g id="node168" class="node">
<title>nodo_11_2</title>
<polygon fill="#000000" stroke="black" points="144,-108 108,-108 108,-72 144,-72 144,-108"/>
</g>
<!-- nodo_10_2&#45;&gt;nodo_11_2 -->
<!-- nodo_10_3&#45;&gt;nodo_10_4 -->
<!-- nodo_11_3 -->
<g id="node169" class="node">
<title>nodo_11_3</title>
<polygon fill="#a9d11b" stroke="black" points="198,-108 162,-108 162,-72 198,-72 198,-108"/>
</g>
<!-- nodo_10_3&#45;&gt;nodo_11_3 -->
<!-- nodo_10_4&#45;&gt;nodo_10_5 -->
<!-- nodo_11_4 -->
<g id="node170" class="node">
<title>nodo_11_4</title>
<polygon fill="#a9d11b" stroke="black" points="252,-108 216,-108 216,-72 252,-72 252,-108"/>
</g>
<!-- nodo_10_4&#45;&gt;nodo_11_4 -->
<!-- nodo_10_5&#45;&gt;nodo_10_6 -->
<!-- nodo_11_5 -->
<g id="node171" class="node">
<title>nodo_11_5</title>
<polygon fill="#a9d11b" stroke="black" points="306,-108 270,-108 270,-72 306,-72 306,-108"/>
</g>
<!-- nodo_10_5&#45;&gt;nodo_11_5 -->
<!-- nodo_10_6&#45;&gt;nodo_10_7 -->
<!-- nodo_11_6 -->
<g id="node172" class="node">
<title>nodo_11_6</title>
<polygon fill="#000000" stroke="black" points="360,-108 324,-108 324,-72 360,-72 360,-108"/>
</g>
<!-- nodo_10_6&#45;&gt;nodo_11_6 -->
<!-- nodo_10_7&#45;&gt;nodo_10_8 -->
<!-- nodo_11_7 -->
<g id="node173" class="node">
<title>nodo_11_7</title>
<polygon fill="#000000" stroke="black" points="414,-108 378,-108 378,-72 414,-72 414,-108"/>
</g>
<!-- nodo_10_7&#45;&gt;nodo_11_7 -->
<!-- nodo_10_8&#45;&gt;nodo_10_9 -->
<!-- nodo_11_8 -->
<g id="node174" class="node">
<title>nodo_11_8</title>
<polygon fill="#000000" stroke="black" points="468,-108 432,-108 432,-72 468,-72 468,-108"/>
</g>
<!-- nodo_10_8&#45;&gt;nodo_11_8 -->
<!-- nodo_10_9&#45;&gt;nodo_10_10 -->
<!-- nodo_11_9 -->
<g id="node175" class="node">
<title>nodo_11_9</title>
<polygon fill="#000000" stroke="black" points="522,-108 486,-108 486,-72 522,-72 522,-108"/>
</g>
<!-- nodo_10_9&#45;&gt;nodo_11_9 -->
<!-- nodo_10_10&#45;&gt;nodo_10_11 -->
<!-- nodo_11_10 -->
<g id="node176" class="node">
<title>nodo_11_10</title>
<polygon fill="#a9d11b" stroke="black" points="576,-108 540,-108 540,-72 576,-72 576,-108"/>
</g>
<!-- nodo_10_10&#45;&gt;nodo_11_10 -->
<!-- nodo_10_11&#45;&gt;nodo_10_12 -->
<!-- nodo_11_11 -->
<g id="node177" class="node">
<title>nodo_11_11</title>
<polygon fill="#a9d11b" stroke="black" points="630,-108 594,-108 594,-72 630,-72 630,-108"/>
</g>
<!-- nodo_10_11&#45;&gt;nodo_11_11 -->
<!-- nodo_10_12&#45;&gt;nodo_10_13 -->
<!-- nodo_11_12 -->
<g id="node178" class="node">
<title>nodo_11_12</title>
<polygon fill="#a9d11b" stroke="black" points="684,-108 648,-108 648,-72 684,-72 684,-108"/>
</g>
<!-- nodo_10_12&#45;&gt;nodo_11_12 -->
<!-- nodo_10_13&#45;&gt;nodo_10_14 -->
<!-- nodo_11_13 -->
<g id="node179" class="node">
<title>nodo_11_13</title>
<polygon fill="#000000" stroke="black" points="738,-108 702,-108 702,-72 738,-72 738,-108"/>
</g>
<!-- nodo_10_13&#45;&gt;nodo_11_13 -->
<!-- nodo_11_14 -->
<!-- nodo_10_14&#45;&gt;nodo_11_14 -->
<!-- nodo_11_0&#45;&gt;nodo_11_1 -->
<!-- nodo_12_0 -->
<!-- nodo_11_0&#45;&gt;nodo_12_0 -->
<!-- nodo_11_1&#45;&gt;nodo_11_2 -->
<!-- nodo_12_1 -->
<!-- nodo_11_1&#45;&gt;nodo_12_1 -->
<!-- nodo_11_2&#45;&gt;nodo_11_3 -->
<!-- nodo_12_2 -->
<!-- nodo_11_2&#45;&gt;nodo_12_2 -->
<!-- nodo_11_3&#45;&gt;nodo_11_4 -->
<!-- nodo_12_3 -->
<g id="node184" class="node">
<title>nodo_12_3</title>
<polygon fill="#000000" stroke="black" points="198,-36 162,-36 162,0 198,0 198,-36"/>
</g>
<!-- nodo_11_3&#45;&gt;nodo_12_3 -->
<!-- nodo_11_4&#45;&gt;nodo_11_5 -->
<!-- nodo_12_4 -->
<g id="node185" class="node">
<title>nodo_12_4</title>
<polygon fill="#000000" stroke="black" points="252,-36 216,-36 216,0 252,0 252,-36"/>
</g>
<!-- nodo_11_4&#45;&gt;nodo_12_4 -->
<!-- nodo_11_5&#45;&gt;nodo_11_6 -->
<!-- nodo_12_5 -->
<g id="node186" class="node">
<title>nodo_12_5</title>
<polygon fill="#000000" stroke="black" points="306,-36 270,-36 270,0 306,0 306,-36"/>
</g>
<!-- nodo_11_5&#45;&gt;nodo_12_5 -->
<!-- nodo_11_6&#45;&gt;nodo_11_7 -->
<!-- nodo_12_6 -->
<!-- nodo_11_6&#45;&gt;nodo_12_6 -->
<!-- nodo_11_7&#45;&gt;nodo_11_8 -->
<!-- nodo_12_7 -->
<!-- nodo_11_7&#45;&gt;nodo_12_7 -->
<!-- nodo_11_8&#45;&gt;nodo_11_9 -->
<!-- nodo_12_8 -->
<!-- nodo_11_8&#45;&gt;nodo_12_8 -->
<!-- nodo_11_9&#45;&gt;nodo_11_10 -->
<!-- nodo_12_9 -->
<!-- nodo_11_9&#45;&gt;nodo_12_9 -->
<!-- nodo_11_10&#45;&gt;nodo_11_11 -->
<!-- nodo_12_10 -->
<g id="node191" class="node">
<title>nodo_12_10</title>
<polygon fill="#000000" stroke="black" points="576,-36 540,-36 540,0 576,0 576,-36"/>
</g>
<!-- nodo_11_10&#45;&gt;nodo_12_10 -->
<!-- nodo_11_11&#45;&gt;nodo_11_12 -->
<!-- nodo_12_11 -->
<g id="node192" class="node">
<title>nodo_12_11</title>
<polygon fill="#000000" stroke="black" points="630,-36 594,-36 594,0 630,0 630,-36"/>
</g>
<!-- nodo_11_11&#45;&gt;nodo_12_11 -->
<!-- nodo_11_12&#45;&gt;nodo_11_13 -->
<!-- nodo_12_12 -->
<g id="node193" class="node">
<title>nodo_12_12</title>
<polygon fill="#000000" stroke="black" points="684,-36 648,-36 648,0 684,0 684,-36"/>
</g>
<!-- nodo_11_12&#45;&gt;nodo_12_12 -->
<!-- nodo_11_13&#45;&gt;nodo_11_14 -->
<!-- nodo_12_13 -->
<!-- nodo_11_13&#45;&gt;nodo_12_13 -->
<!-- nodo_12_14 -->
<!-- nodo_11_14&#45;&gt;nodo_12_14 -->
<!-- nodo_12_0&#45;&gt;nodo_12_1 -->
<!-- nodo_12_1&#45;&gt;nodo_12_2 -->
<!-- nodo_12_2&#45;&gt;nodo_12_3 -->
<!-- nodo_12_3&#45;&gt;nodo_12_4 -->
<!-- nodo_12_4&#45;&gt;nodo_12_5 -->
<!-- nodo_12_5&#45;&gt;nodo_12_6 -->
<!-- nodo_12_6&#45;&gt;nodo_12_7 -->
<!-- nodo_12_7&#45;&gt;nodo_12_8 -->
<!-- nodo_12_8&#45;&gt;nodo_12_9 -->
<!-- nodo_12_9&#45;&gt;nodo_12_10 -->
<!-- nodo_12_10&#45;&gt;nodo_12_11 -->
<!-- nodo_12_11&#45;&gt;nodo_12_12 -->
<!-- nodo_12_12&#45;&gt;nodo_12_13 -->
<!-- nodo_12_13&#45;&gt;nodo_12_14 -->
</g>
</svg>
