<?xml version="1.0" encoding="UTF-8" standalone="no"?>
<!DOCTYPE svg PUBLIC "-//W3C//DTD SVG 1.1//EN"
 "http://www.w3.org/Graphics/SVG/1.1/DTD/svg11.dtd">
<!-- Generated by graphviz version 12.1.2 (20240928.0832)
 -->
<!-- Title: G Pages: 1 -->
<svg width="461pt" height="67pt"
 viewBox="0.00 0.00 461.00 66.50" xmlns="http://www.w3.org/2000/svg" xmlns:xlink="http://www.w3.org/1999/xlink">
<g id="graph0" class="graph" transform="scale(1 1) rotate(0) translate(4 62.5)">
<title>G</title>
<polygon fill="white" stroke="none" points="-4,4 -4,-62.5 457,-62.5 457,4 -4,4"/>
<!-- nodo0 -->
<g id="node1" class="node">
<title>nodo0</title>
<polygon fill="none" stroke="black" points="0,-0.5 0,-58 127,-58 127,-0.5 0,-0.5"/>
<text text-anchor="middle" x="63.5" y="-40.7" font-family="Times New Roman,serif" font-size="14.00">ID: 4</text>
<text text-anchor="middle" x="63.5" y="-24.2" font-family="Times New Roman,serif" font-size="14.00">Nombre: Amongus</text>
<text text-anchor="middle" x="63.5" y="-7.7" font-family="Times New Roman,serif" font-size="14.00">Solicitante: IPC&#45;001</text>
</g>
<!-- nodo1 -->
<g id="node2" class="node">
<title>nodo1</title>
<polygon fill="none" stroke="black" points="163,-0.5 163,-58 290,-58 290,-0.5 163,-0.5"/>
<text text-anchor="middle" x="226.5" y="-40.7" font-family="Times New Roman,serif" font-size="14.00">ID: 2</text>
<text text-anchor="middle" x="226.5" y="-24.2" font-family="Times New Roman,serif" font-size="14.00">Nombre: Capibara</text>
<text text-anchor="middle" x="226.5" y="-7.7" font-family="Times New Roman,serif" font-size="14.00">Solicitante: IPC&#45;001</text>
</g>
<!-- nodo0&#45;&gt;nodo1 -->
<g id="edge1" class="edge">
<title>nodo0&#45;&gt;nodo1</title>
<path fill="none" stroke="black" d="M127.21,-29.25C135.13,-29.25 143.29,-29.25 151.37,-29.25"/>
<polygon fill="black" stroke="black" points="151.18,-32.75 161.18,-29.25 151.18,-25.75 151.18,-32.75"/>
</g>
<!-- nodo2 -->
<g id="node3" class="node">
<title>nodo2</title>
<polygon fill="none" stroke="black" points="326,-0.5 326,-58 453,-58 453,-0.5 326,-0.5"/>
<text text-anchor="middle" x="389.5" y="-40.7" font-family="Times New Roman,serif" font-size="14.00">ID: 5</text>
<text text-anchor="middle" x="389.5" y="-24.2" font-family="Times New Roman,serif" font-size="14.00">Nombre: IronMan</text>
<text text-anchor="middle" x="389.5" y="-7.7" font-family="Times New Roman,serif" font-size="14.00">Solicitante: IPC&#45;001</text>
</g>
<!-- nodo1&#45;&gt;nodo2 -->
<g id="edge2" class="edge">
<title>nodo1&#45;&gt;nodo2</title>
<path fill="none" stroke="black" d="M290.21,-29.25C298.13,-29.25 306.29,-29.25 314.37,-29.25"/>
<polygon fill="black" stroke="black" points="314.18,-32.75 324.18,-29.25 314.18,-25.75 314.18,-32.75"/>
</g>
</g>
</svg>
