<?xml version="1.0" encoding="UTF-8" standalone="no"?>
<!DOCTYPE svg PUBLIC "-//W3C//DTD SVG 1.1//EN"
 "http://www.w3.org/Graphics/SVG/1.1/DTD/svg11.dtd">
<!-- Generated by graphviz version 12.1.2 (20240928.0832)
 -->
<!-- Title: G Pages: 1 -->
<svg width="8477pt" height="67pt"
 viewBox="0.00 0.00 8476.50 66.50" xmlns="http://www.w3.org/2000/svg" xmlns:xlink="http://www.w3.org/1999/xlink">
<g id="graph0" class="graph" transform="scale(1 1) rotate(0) translate(4 62.5)">
<title>G</title>
<polygon fill="white" stroke="none" points="-4,4 -4,-62.5 8472.5,-62.5 8472.5,4 -4,4"/>
<!-- nodo1 -->
<g id="node1" class="node">
<title>nodo1</title>
<polygon fill="none" stroke="black" points="0,-0.5 0,-58 214.75,-58 214.75,-0.5 0,-0.5"/>
<text text-anchor="middle" x="107.38" y="-40.7" font-family="Times New Roman,serif" font-size="14.00">ART&#45;033</text>
<text text-anchor="middle" x="107.38" y="-24.2" font-family="Times New Roman,serif" font-size="14.00">Nombre: Elena Pérez</text>
<text text-anchor="middle" x="107.38" y="-7.7" font-family="Times New Roman,serif" font-size="14.00">Correo: elena.pérez@artistmail.com</text>
</g>
<!-- nodo2 -->
<g id="node2" class="node">
<title>nodo2</title>
<polygon fill="none" stroke="black" points="250.75,-0.5 250.75,-58 452.75,-58 452.75,-0.5 250.75,-0.5"/>
<text text-anchor="middle" x="351.75" y="-40.7" font-family="Times New Roman,serif" font-size="14.00">ART&#45;364</text>
<text text-anchor="middle" x="351.75" y="-24.2" font-family="Times New Roman,serif" font-size="14.00">Nombre: Pablo Ramírez</text>
<text text-anchor="middle" x="351.75" y="-7.7" font-family="Times New Roman,serif" font-size="14.00">Correo: pablo.ramírez@mail.com</text>
</g>
<!-- nodo1&#45;&gt;nodo2 -->
<g id="edge1" class="edge">
<title>nodo1&#45;&gt;nodo2</title>
<path fill="none" stroke="black" d="M215.04,-29.25C223.06,-29.25 231.18,-29.25 239.24,-29.25"/>
<polygon fill="black" stroke="black" points="239.06,-32.75 249.06,-29.25 239.06,-25.75 239.06,-32.75"/>
</g>
<!-- nodo3 -->
<g id="node3" class="node">
<title>nodo3</title>
<polygon fill="none" stroke="black" points="488.75,-0.5 488.75,-58 708,-58 708,-0.5 488.75,-0.5"/>
<text text-anchor="middle" x="598.38" y="-40.7" font-family="Times New Roman,serif" font-size="14.00">ART&#45;354</text>
<text text-anchor="middle" x="598.38" y="-24.2" font-family="Times New Roman,serif" font-size="14.00">Nombre: Pablo García</text>
<text text-anchor="middle" x="598.38" y="-7.7" font-family="Times New Roman,serif" font-size="14.00">Correo: pablo.garcía@pixelworld.net</text>
</g>
<!-- nodo2&#45;&gt;nodo3 -->
<g id="edge2" class="edge">
<title>nodo2&#45;&gt;nodo3</title>
<path fill="none" stroke="black" d="M452.95,-29.25C460.94,-29.25 469.05,-29.25 477.15,-29.25"/>
<polygon fill="black" stroke="black" points="477.06,-32.75 487.06,-29.25 477.06,-25.75 477.06,-32.75"/>
</g>
<!-- nodo4 -->
<g id="node4" class="node">
<title>nodo4</title>
<polygon fill="none" stroke="black" points="744,-0.5 744,-58 970,-58 970,-0.5 744,-0.5"/>
<text text-anchor="middle" x="857" y="-40.7" font-family="Times New Roman,serif" font-size="14.00">ART&#45;883</text>
<text text-anchor="middle" x="857" y="-24.2" font-family="Times New Roman,serif" font-size="14.00">Nombre: Miguel Torres</text>
<text text-anchor="middle" x="857" y="-7.7" font-family="Times New Roman,serif" font-size="14.00">Correo: miguel.torres@artistmail.com</text>
</g>
<!-- nodo3&#45;&gt;nodo4 -->
<g id="edge3" class="edge">
<title>nodo3&#45;&gt;nodo4</title>
<path fill="none" stroke="black" d="M708.21,-29.25C716.19,-29.25 724.28,-29.25 732.34,-29.25"/>
<polygon fill="black" stroke="black" points="732.2,-32.75 742.2,-29.25 732.2,-25.75 732.2,-32.75"/>
</g>
<!-- nodo5 -->
<g id="node5" class="node">
<title>nodo5</title>
<polygon fill="none" stroke="black" points="1006,-0.5 1006,-58 1235,-58 1235,-0.5 1006,-0.5"/>
<text text-anchor="middle" x="1120.5" y="-40.7" font-family="Times New Roman,serif" font-size="14.00">ART&#45;692</text>
<text text-anchor="middle" x="1120.5" y="-24.2" font-family="Times New Roman,serif" font-size="14.00">Nombre: David Sánchez</text>
<text text-anchor="middle" x="1120.5" y="-7.7" font-family="Times New Roman,serif" font-size="14.00">Correo: david.sánchez@pixelworld.net</text>
</g>
<!-- nodo4&#45;&gt;nodo5 -->
<g id="edge4" class="edge">
<title>nodo4&#45;&gt;nodo5</title>
<path fill="none" stroke="black" d="M970.42,-29.25C978.23,-29.25 986.13,-29.25 994.01,-29.25"/>
<polygon fill="black" stroke="black" points="994,-32.75 1004,-29.25 994,-25.75 994,-32.75"/>
</g>
<!-- nodo6 -->
<g id="node6" class="node">
<title>nodo6</title>
<polygon fill="none" stroke="black" points="1271,-0.5 1271,-58 1491.75,-58 1491.75,-0.5 1271,-0.5"/>
<text text-anchor="middle" x="1381.38" y="-40.7" font-family="Times New Roman,serif" font-size="14.00">ART&#45;529</text>
<text text-anchor="middle" x="1381.38" y="-24.2" font-family="Times New Roman,serif" font-size="14.00">Nombre: Sofía Sánchez</text>
<text text-anchor="middle" x="1381.38" y="-7.7" font-family="Times New Roman,serif" font-size="14.00">Correo: sofía.sánchez@example.com</text>
</g>
<!-- nodo5&#45;&gt;nodo6 -->
<g id="edge5" class="edge">
<title>nodo5&#45;&gt;nodo6</title>
<path fill="none" stroke="black" d="M1235.42,-29.25C1243.26,-29.25 1251.18,-29.25 1259.05,-29.25"/>
<polygon fill="black" stroke="black" points="1259.03,-32.75 1269.03,-29.25 1259.03,-25.75 1259.03,-32.75"/>
</g>
<!-- nodo7 -->
<g id="node7" class="node">
<title>nodo7</title>
<polygon fill="none" stroke="black" points="1527.75,-0.5 1527.75,-58 1759.75,-58 1759.75,-0.5 1527.75,-0.5"/>
<text text-anchor="middle" x="1643.75" y="-40.7" font-family="Times New Roman,serif" font-size="14.00">ART&#45;803</text>
<text text-anchor="middle" x="1643.75" y="-24.2" font-family="Times New Roman,serif" font-size="14.00">Nombre: Carlos Martínez</text>
<text text-anchor="middle" x="1643.75" y="-7.7" font-family="Times New Roman,serif" font-size="14.00">Correo: carlos.martínez@example.com</text>
</g>
<!-- nodo6&#45;&gt;nodo7 -->
<g id="edge6" class="edge">
<title>nodo6&#45;&gt;nodo7</title>
<path fill="none" stroke="black" d="M1492.04,-29.25C1499.98,-29.25 1508.02,-29.25 1516.04,-29.25"/>
<polygon fill="black" stroke="black" points="1515.84,-32.75 1525.84,-29.25 1515.84,-25.75 1515.84,-32.75"/>
</g>
<!-- nodo8 -->
<g id="node8" class="node">
<title>nodo8</title>
<polygon fill="none" stroke="black" points="1795.75,-0.5 1795.75,-58 1988.75,-58 1988.75,-0.5 1795.75,-0.5"/>
<text text-anchor="middle" x="1892.25" y="-40.7" font-family="Times New Roman,serif" font-size="14.00">ART&#45;109</text>
<text text-anchor="middle" x="1892.25" y="-24.2" font-family="Times New Roman,serif" font-size="14.00">Nombre: Pablo García</text>
<text text-anchor="middle" x="1892.25" y="-7.7" font-family="Times New Roman,serif" font-size="14.00">Correo: pablo.garcía@mail.com</text>
</g>
<!-- nodo7&#45;&gt;nodo8 -->
<g id="edge7" class="edge">
<title>nodo7&#45;&gt;nodo8</title>
<path fill="none" stroke="black" d="M1760.06,-29.25C1767.97,-29.25 1775.93,-29.25 1783.8,-29.25"/>
<polygon fill="black" stroke="black" points="1783.74,-32.75 1793.74,-29.25 1783.74,-25.75 1783.74,-32.75"/>
</g>
<!-- nodo9 -->
<g id="node9" class="node">
<title>nodo9</title>
<polygon fill="none" stroke="black" points="2024.75,-0.5 2024.75,-58 2228.25,-58 2228.25,-0.5 2024.75,-0.5"/>
<text text-anchor="middle" x="2126.5" y="-40.7" font-family="Times New Roman,serif" font-size="14.00">ART&#45;622</text>
<text text-anchor="middle" x="2126.5" y="-24.2" font-family="Times New Roman,serif" font-size="14.00">Nombre: María Ramírez</text>
<text text-anchor="middle" x="2126.5" y="-7.7" font-family="Times New Roman,serif" font-size="14.00">Correo: maría.ramírez@mail.com</text>
</g>
<!-- nodo8&#45;&gt;nodo9 -->
<g id="edge8" class="edge">
<title>nodo8&#45;&gt;nodo9</title>
<path fill="none" stroke="black" d="M1989.06,-29.25C1996.95,-29.25 2004.98,-29.25 2012.99,-29.25"/>
<polygon fill="black" stroke="black" points="2012.76,-32.75 2022.76,-29.25 2012.76,-25.75 2012.76,-32.75"/>
</g>
<!-- nodo10 -->
<g id="node10" class="node">
<title>nodo10</title>
<polygon fill="none" stroke="black" points="2264.25,-0.5 2264.25,-58 2479,-58 2479,-0.5 2264.25,-0.5"/>
<text text-anchor="middle" x="2371.62" y="-40.7" font-family="Times New Roman,serif" font-size="14.00">ART&#45;167</text>
<text text-anchor="middle" x="2371.62" y="-24.2" font-family="Times New Roman,serif" font-size="14.00">Nombre: Elena López</text>
<text text-anchor="middle" x="2371.62" y="-7.7" font-family="Times New Roman,serif" font-size="14.00">Correo: elena.lópez@artistmail.com</text>
</g>
<!-- nodo9&#45;&gt;nodo10 -->
<g id="edge9" class="edge">
<title>nodo9&#45;&gt;nodo10</title>
<path fill="none" stroke="black" d="M2228.49,-29.25C2236.48,-29.25 2244.58,-29.25 2252.66,-29.25"/>
<polygon fill="black" stroke="black" points="2252.54,-32.75 2262.54,-29.25 2252.54,-25.75 2252.54,-32.75"/>
</g>
<!-- nodo11 -->
<g id="node11" class="node">
<title>nodo11</title>
<polygon fill="none" stroke="black" points="2515,-0.5 2515,-58 2717.75,-58 2717.75,-0.5 2515,-0.5"/>
<text text-anchor="middle" x="2616.38" y="-40.7" font-family="Times New Roman,serif" font-size="14.00">ART&#45;871</text>
<text text-anchor="middle" x="2616.38" y="-24.2" font-family="Times New Roman,serif" font-size="14.00">Nombre: David Sánchez</text>
<text text-anchor="middle" x="2616.38" y="-7.7" font-family="Times New Roman,serif" font-size="14.00">Correo: david.sánchez@mail.com</text>
</g>
<!-- nodo10&#45;&gt;nodo11 -->
<g id="edge10" class="edge">
<title>nodo10&#45;&gt;nodo11</title>
<path fill="none" stroke="black" d="M2479.45,-29.25C2487.31,-29.25 2495.26,-29.25 2503.15,-29.25"/>
<polygon fill="black" stroke="black" points="2503.15,-32.75 2513.15,-29.25 2503.15,-25.75 2503.15,-32.75"/>
</g>
<!-- nodo12 -->
<g id="node12" class="node">
<title>nodo12</title>
<polygon fill="none" stroke="black" points="2753.75,-0.5 2753.75,-58 2978.25,-58 2978.25,-0.5 2753.75,-0.5"/>
<text text-anchor="middle" x="2866" y="-40.7" font-family="Times New Roman,serif" font-size="14.00">ART&#45;160</text>
<text text-anchor="middle" x="2866" y="-24.2" font-family="Times New Roman,serif" font-size="14.00">Nombre: Lucía Ramírez</text>
<text text-anchor="middle" x="2866" y="-7.7" font-family="Times New Roman,serif" font-size="14.00">Correo: lucía.ramírez@pixelworld.net</text>
</g>
<!-- nodo11&#45;&gt;nodo12 -->
<g id="edge11" class="edge">
<title>nodo11&#45;&gt;nodo12</title>
<path fill="none" stroke="black" d="M2718.09,-29.25C2726.01,-29.25 2734.06,-29.25 2742.1,-29.25"/>
<polygon fill="black" stroke="black" points="2741.94,-32.75 2751.94,-29.25 2741.94,-25.75 2741.94,-32.75"/>
</g>
<!-- nodo13 -->
<g id="node13" class="node">
<title>nodo13</title>
<polygon fill="none" stroke="black" points="3014.25,-0.5 3014.25,-58 3230.5,-58 3230.5,-0.5 3014.25,-0.5"/>
<text text-anchor="middle" x="3122.38" y="-40.7" font-family="Times New Roman,serif" font-size="14.00">ART&#45;825</text>
<text text-anchor="middle" x="3122.38" y="-24.2" font-family="Times New Roman,serif" font-size="14.00">Nombre: Elena Flores</text>
<text text-anchor="middle" x="3122.38" y="-7.7" font-family="Times New Roman,serif" font-size="14.00">Correo: elena.flores@artistmail.com</text>
</g>
<!-- nodo12&#45;&gt;nodo13 -->
<g id="edge12" class="edge">
<title>nodo12&#45;&gt;nodo13</title>
<path fill="none" stroke="black" d="M2978.57,-29.25C2986.56,-29.25 2994.62,-29.25 3002.65,-29.25"/>
<polygon fill="black" stroke="black" points="3002.43,-32.75 3012.43,-29.25 3002.43,-25.75 3002.43,-32.75"/>
</g>
<!-- nodo14 -->
<g id="node14" class="node">
<title>nodo14</title>
<polygon fill="none" stroke="black" points="3266.5,-0.5 3266.5,-58 3485.75,-58 3485.75,-0.5 3266.5,-0.5"/>
<text text-anchor="middle" x="3376.12" y="-40.7" font-family="Times New Roman,serif" font-size="14.00">ART&#45;276</text>
<text text-anchor="middle" x="3376.12" y="-24.2" font-family="Times New Roman,serif" font-size="14.00">Nombre: María Flores</text>
<text text-anchor="middle" x="3376.12" y="-7.7" font-family="Times New Roman,serif" font-size="14.00">Correo: maría.flores@artistmail.com</text>
</g>
<!-- nodo13&#45;&gt;nodo14 -->
<g id="edge13" class="edge">
<title>nodo13&#45;&gt;nodo14</title>
<path fill="none" stroke="black" d="M3230.87,-29.25C3238.86,-29.25 3246.96,-29.25 3255.02,-29.25"/>
<polygon fill="black" stroke="black" points="3254.87,-32.75 3264.87,-29.25 3254.87,-25.75 3254.87,-32.75"/>
</g>
<!-- nodo15 -->
<g id="node15" class="node">
<title>nodo15</title>
<polygon fill="none" stroke="black" points="3521.75,-0.5 3521.75,-58 3723,-58 3723,-0.5 3521.75,-0.5"/>
<text text-anchor="middle" x="3622.38" y="-40.7" font-family="Times New Roman,serif" font-size="14.00">ART&#45;670</text>
<text text-anchor="middle" x="3622.38" y="-24.2" font-family="Times New Roman,serif" font-size="14.00">Nombre: Ana Flores</text>
<text text-anchor="middle" x="3622.38" y="-7.7" font-family="Times New Roman,serif" font-size="14.00">Correo: ana.flores@example.com</text>
</g>
<!-- nodo14&#45;&gt;nodo15 -->
<g id="edge14" class="edge">
<title>nodo14&#45;&gt;nodo15</title>
<path fill="none" stroke="black" d="M3486.03,-29.25C3494.08,-29.25 3502.19,-29.25 3510.25,-29.25"/>
<polygon fill="black" stroke="black" points="3510.06,-32.75 3520.06,-29.25 3510.06,-25.75 3510.06,-32.75"/>
</g>
<!-- nodo16 -->
<g id="node16" class="node">
<title>nodo16</title>
<polygon fill="none" stroke="black" points="3759,-0.5 3759,-58 3965.5,-58 3965.5,-0.5 3759,-0.5"/>
<text text-anchor="middle" x="3862.25" y="-40.7" font-family="Times New Roman,serif" font-size="14.00">ART&#45;479</text>
<text text-anchor="middle" x="3862.25" y="-24.2" font-family="Times New Roman,serif" font-size="14.00">Nombre: Elena Martínez</text>
<text text-anchor="middle" x="3862.25" y="-7.7" font-family="Times New Roman,serif" font-size="14.00">Correo: elena.martínez@mail.com</text>
</g>
<!-- nodo15&#45;&gt;nodo16 -->
<g id="edge15" class="edge">
<title>nodo15&#45;&gt;nodo16</title>
<path fill="none" stroke="black" d="M3723.22,-29.25C3731.17,-29.25 3739.24,-29.25 3747.28,-29.25"/>
<polygon fill="black" stroke="black" points="3747.09,-32.75 3757.09,-29.25 3747.09,-25.75 3747.09,-32.75"/>
</g>
<!-- nodo17 -->
<g id="node17" class="node">
<title>nodo17</title>
<polygon fill="none" stroke="black" points="4001.5,-0.5 4001.5,-58 4218.5,-58 4218.5,-0.5 4001.5,-0.5"/>
<text text-anchor="middle" x="4110" y="-40.7" font-family="Times New Roman,serif" font-size="14.00">ART&#45;156</text>
<text text-anchor="middle" x="4110" y="-24.2" font-family="Times New Roman,serif" font-size="14.00">Nombre: David Vargas</text>
<text text-anchor="middle" x="4110" y="-7.7" font-family="Times New Roman,serif" font-size="14.00">Correo: david.vargas@example.com</text>
</g>
<!-- nodo16&#45;&gt;nodo17 -->
<g id="edge16" class="edge">
<title>nodo16&#45;&gt;nodo17</title>
<path fill="none" stroke="black" d="M3965.69,-29.25C3973.66,-29.25 3981.74,-29.25 3989.81,-29.25"/>
<polygon fill="black" stroke="black" points="3989.66,-32.75 3999.66,-29.25 3989.66,-25.75 3989.66,-32.75"/>
</g>
<!-- nodo18 -->
<g id="node18" class="node">
<title>nodo18</title>
<polygon fill="none" stroke="black" points="4254.5,-0.5 4254.5,-58 4470,-58 4470,-0.5 4254.5,-0.5"/>
<text text-anchor="middle" x="4362.25" y="-40.7" font-family="Times New Roman,serif" font-size="14.00">ART&#45;573</text>
<text text-anchor="middle" x="4362.25" y="-24.2" font-family="Times New Roman,serif" font-size="14.00">Nombre: David Pérez</text>
<text text-anchor="middle" x="4362.25" y="-7.7" font-family="Times New Roman,serif" font-size="14.00">Correo: david.pérez@pixelworld.net</text>
</g>
<!-- nodo17&#45;&gt;nodo18 -->
<g id="edge17" class="edge">
<title>nodo17&#45;&gt;nodo18</title>
<path fill="none" stroke="black" d="M4218.94,-29.25C4226.77,-29.25 4234.68,-29.25 4242.56,-29.25"/>
<polygon fill="black" stroke="black" points="4242.55,-32.75 4252.55,-29.25 4242.55,-25.75 4242.55,-32.75"/>
</g>
<!-- nodo19 -->
<g id="node19" class="node">
<title>nodo19</title>
<polygon fill="none" stroke="black" points="4506,-0.5 4506,-58 4711.75,-58 4711.75,-0.5 4506,-0.5"/>
<text text-anchor="middle" x="4608.88" y="-40.7" font-family="Times New Roman,serif" font-size="14.00">ART&#45;341</text>
<text text-anchor="middle" x="4608.88" y="-24.2" font-family="Times New Roman,serif" font-size="14.00">Nombre: Ana Vargas</text>
<text text-anchor="middle" x="4608.88" y="-7.7" font-family="Times New Roman,serif" font-size="14.00">Correo: ana.vargas@example.com</text>
</g>
<!-- nodo18&#45;&gt;nodo19 -->
<g id="edge18" class="edge">
<title>nodo18&#45;&gt;nodo19</title>
<path fill="none" stroke="black" d="M4470.19,-29.25C4478.23,-29.25 4486.36,-29.25 4494.44,-29.25"/>
<polygon fill="black" stroke="black" points="4494.29,-32.75 4504.29,-29.25 4494.29,-25.75 4494.29,-32.75"/>
</g>
<!-- nodo20 -->
<g id="node20" class="node">
<title>nodo20</title>
<polygon fill="none" stroke="black" points="4747.75,-0.5 4747.75,-58 4976.75,-58 4976.75,-0.5 4747.75,-0.5"/>
<text text-anchor="middle" x="4862.25" y="-40.7" font-family="Times New Roman,serif" font-size="14.00">ART&#45;753</text>
<text text-anchor="middle" x="4862.25" y="-24.2" font-family="Times New Roman,serif" font-size="14.00">Nombre: Pablo Sánchez</text>
<text text-anchor="middle" x="4862.25" y="-7.7" font-family="Times New Roman,serif" font-size="14.00">Correo: pablo.sánchez@pixelworld.net</text>
</g>
<!-- nodo19&#45;&gt;nodo20 -->
<g id="edge19" class="edge">
<title>nodo19&#45;&gt;nodo20</title>
<path fill="none" stroke="black" d="M4712.12,-29.25C4720.06,-29.25 4728.14,-29.25 4736.21,-29.25"/>
<polygon fill="black" stroke="black" points="4736.09,-32.75 4746.09,-29.25 4736.09,-25.75 4736.09,-32.75"/>
</g>
<!-- nodo21 -->
<g id="node21" class="node">
<title>nodo21</title>
<polygon fill="none" stroke="black" points="5012.75,-0.5 5012.75,-58 5231.25,-58 5231.25,-0.5 5012.75,-0.5"/>
<text text-anchor="middle" x="5122" y="-40.7" font-family="Times New Roman,serif" font-size="14.00">ART&#45;982</text>
<text text-anchor="middle" x="5122" y="-24.2" font-family="Times New Roman,serif" font-size="14.00">Nombre: María Vargas</text>
<text text-anchor="middle" x="5122" y="-7.7" font-family="Times New Roman,serif" font-size="14.00">Correo: maría.vargas@example.com</text>
</g>
<!-- nodo20&#45;&gt;nodo21 -->
<g id="edge20" class="edge">
<title>nodo20&#45;&gt;nodo21</title>
<path fill="none" stroke="black" d="M4977.05,-29.25C4985.03,-29.25 4993.08,-29.25 5001.09,-29.25"/>
<polygon fill="black" stroke="black" points="5000.85,-32.75 5010.85,-29.25 5000.85,-25.75 5000.85,-32.75"/>
</g>
<!-- nodo22 -->
<g id="node22" class="node">
<title>nodo22</title>
<polygon fill="none" stroke="black" points="5267.25,-0.5 5267.25,-58 5475.25,-58 5475.25,-0.5 5267.25,-0.5"/>
<text text-anchor="middle" x="5371.25" y="-40.7" font-family="Times New Roman,serif" font-size="14.00">ART&#45;830</text>
<text text-anchor="middle" x="5371.25" y="-24.2" font-family="Times New Roman,serif" font-size="14.00">Nombre: Ana García</text>
<text text-anchor="middle" x="5371.25" y="-7.7" font-family="Times New Roman,serif" font-size="14.00">Correo: ana.garcía@pixelworld.net</text>
</g>
<!-- nodo21&#45;&gt;nodo22 -->
<g id="edge21" class="edge">
<title>nodo21&#45;&gt;nodo22</title>
<path fill="none" stroke="black" d="M5231.45,-29.25C5239.47,-29.25 5247.58,-29.25 5255.65,-29.25"/>
<polygon fill="black" stroke="black" points="5255.48,-32.75 5265.48,-29.25 5255.48,-25.75 5255.48,-32.75"/>
</g>
<!-- nodo23 -->
<g id="node23" class="node">
<title>nodo23</title>
<polygon fill="none" stroke="black" points="5511.25,-0.5 5511.25,-58 5740.25,-58 5740.25,-0.5 5511.25,-0.5"/>
<text text-anchor="middle" x="5625.75" y="-40.7" font-family="Times New Roman,serif" font-size="14.00">ART&#45;810</text>
<text text-anchor="middle" x="5625.75" y="-24.2" font-family="Times New Roman,serif" font-size="14.00">Nombre: Pablo Sánchez</text>
<text text-anchor="middle" x="5625.75" y="-7.7" font-family="Times New Roman,serif" font-size="14.00">Correo: pablo.sánchez@pixelworld.net</text>
</g>
<!-- nodo22&#45;&gt;nodo23 -->
<g id="edge22" class="edge">
<title>nodo22&#45;&gt;nodo23</title>
<path fill="none" stroke="black" d="M5475.68,-29.25C5483.55,-29.25 5491.54,-29.25 5499.52,-29.25"/>
<polygon fill="black" stroke="black" points="5499.28,-32.75 5509.28,-29.25 5499.28,-25.75 5499.28,-32.75"/>
</g>
<!-- nodo24 -->
<g id="node24" class="node">
<title>nodo24</title>
<polygon fill="none" stroke="black" points="5776.25,-0.5 5776.25,-58 6018,-58 6018,-0.5 5776.25,-0.5"/>
<text text-anchor="middle" x="5897.12" y="-40.7" font-family="Times New Roman,serif" font-size="14.00">ART&#45;807</text>
<text text-anchor="middle" x="5897.12" y="-24.2" font-family="Times New Roman,serif" font-size="14.00">Nombre: Pablo Hernández</text>
<text text-anchor="middle" x="5897.12" y="-7.7" font-family="Times New Roman,serif" font-size="14.00">Correo: pablo.hernández@pixelworld.net</text>
</g>
<!-- nodo23&#45;&gt;nodo24 -->
<g id="edge23" class="edge">
<title>nodo23&#45;&gt;nodo24</title>
<path fill="none" stroke="black" d="M5740.6,-29.25C5748.5,-29.25 5756.51,-29.25 5764.5,-29.25"/>
<polygon fill="black" stroke="black" points="5764.26,-32.75 5774.26,-29.25 5764.26,-25.75 5764.26,-32.75"/>
</g>
<!-- nodo25 -->
<g id="node25" class="node">
<title>nodo25</title>
<polygon fill="none" stroke="black" points="6054,-0.5 6054,-58 6258.25,-58 6258.25,-0.5 6054,-0.5"/>
<text text-anchor="middle" x="6156.12" y="-40.7" font-family="Times New Roman,serif" font-size="14.00">ART&#45;430</text>
<text text-anchor="middle" x="6156.12" y="-24.2" font-family="Times New Roman,serif" font-size="14.00">Nombre: Ana Hernández</text>
<text text-anchor="middle" x="6156.12" y="-7.7" font-family="Times New Roman,serif" font-size="14.00">Correo: ana.hernández@mail.com</text>
</g>
<!-- nodo24&#45;&gt;nodo25 -->
<g id="edge24" class="edge">
<title>nodo24&#45;&gt;nodo25</title>
<path fill="none" stroke="black" d="M6018.35,-29.25C6026.25,-29.25 6034.19,-29.25 6042.05,-29.25"/>
<polygon fill="black" stroke="black" points="6041.99,-32.75 6051.99,-29.25 6041.99,-25.75 6041.99,-32.75"/>
</g>
<!-- nodo26 -->
<g id="node26" class="node">
<title>nodo26</title>
<polygon fill="none" stroke="black" points="6294.25,-0.5 6294.25,-58 6509.75,-58 6509.75,-0.5 6294.25,-0.5"/>
<text text-anchor="middle" x="6402" y="-40.7" font-family="Times New Roman,serif" font-size="14.00">ART&#45;841</text>
<text text-anchor="middle" x="6402" y="-24.2" font-family="Times New Roman,serif" font-size="14.00">Nombre: Elena Flores</text>
<text text-anchor="middle" x="6402" y="-7.7" font-family="Times New Roman,serif" font-size="14.00">Correo: elena.flores@pixelworld.net</text>
</g>
<!-- nodo25&#45;&gt;nodo26 -->
<g id="edge25" class="edge">
<title>nodo25&#45;&gt;nodo26</title>
<path fill="none" stroke="black" d="M6258.43,-29.25C6266.44,-29.25 6274.56,-29.25 6282.67,-29.25"/>
<polygon fill="black" stroke="black" points="6282.59,-32.75 6292.59,-29.25 6282.59,-25.75 6282.59,-32.75"/>
</g>
<!-- nodo27 -->
<g id="node27" class="node">
<title>nodo27</title>
<polygon fill="none" stroke="black" points="6545.75,-0.5 6545.75,-58 6759,-58 6759,-0.5 6545.75,-0.5"/>
<text text-anchor="middle" x="6652.38" y="-40.7" font-family="Times New Roman,serif" font-size="14.00">ART&#45;842</text>
<text text-anchor="middle" x="6652.38" y="-24.2" font-family="Times New Roman,serif" font-size="14.00">Nombre: Sofía Vargas</text>
<text text-anchor="middle" x="6652.38" y="-7.7" font-family="Times New Roman,serif" font-size="14.00">Correo: sofía.vargas@example.com</text>
</g>
<!-- nodo26&#45;&gt;nodo27 -->
<g id="edge26" class="edge">
<title>nodo26&#45;&gt;nodo27</title>
<path fill="none" stroke="black" d="M6510.14,-29.25C6518.08,-29.25 6526.11,-29.25 6534.11,-29.25"/>
<polygon fill="black" stroke="black" points="6533.87,-32.75 6543.87,-29.25 6533.87,-25.75 6533.87,-32.75"/>
</g>
<!-- nodo28 -->
<g id="node28" class="node">
<title>nodo28</title>
<polygon fill="none" stroke="black" points="6795,-0.5 6795,-58 7010.5,-58 7010.5,-0.5 6795,-0.5"/>
<text text-anchor="middle" x="6902.75" y="-40.7" font-family="Times New Roman,serif" font-size="14.00">ART&#45;804</text>
<text text-anchor="middle" x="6902.75" y="-24.2" font-family="Times New Roman,serif" font-size="14.00">Nombre: Lucía García</text>
<text text-anchor="middle" x="6902.75" y="-7.7" font-family="Times New Roman,serif" font-size="14.00">Correo: lucía.garcía@pixelworld.net</text>
</g>
<!-- nodo27&#45;&gt;nodo28 -->
<g id="edge27" class="edge">
<title>nodo27&#45;&gt;nodo28</title>
<path fill="none" stroke="black" d="M6759.43,-29.25C6767.4,-29.25 6775.48,-29.25 6783.53,-29.25"/>
<polygon fill="black" stroke="black" points="6783.35,-32.75 6793.35,-29.25 6783.35,-25.75 6783.35,-32.75"/>
</g>
<!-- nodo29 -->
<g id="node29" class="node">
<title>nodo29</title>
<polygon fill="none" stroke="black" points="7046.5,-0.5 7046.5,-58 7229,-58 7229,-0.5 7046.5,-0.5"/>
<text text-anchor="middle" x="7137.75" y="-40.7" font-family="Times New Roman,serif" font-size="14.00">ART&#45;645</text>
<text text-anchor="middle" x="7137.75" y="-24.2" font-family="Times New Roman,serif" font-size="14.00">Nombre: Juan López</text>
<text text-anchor="middle" x="7137.75" y="-7.7" font-family="Times New Roman,serif" font-size="14.00">Correo: juan.lópez@mail.com</text>
</g>
<!-- nodo28&#45;&gt;nodo29 -->
<g id="edge28" class="edge">
<title>nodo28&#45;&gt;nodo29</title>
<path fill="none" stroke="black" d="M7010.7,-29.25C7018.75,-29.25 7026.86,-29.25 7034.88,-29.25"/>
<polygon fill="black" stroke="black" points="7034.62,-32.75 7044.62,-29.25 7034.62,-25.75 7034.62,-32.75"/>
</g>
<!-- nodo30 -->
<g id="node30" class="node">
<title>nodo30</title>
<polygon fill="none" stroke="black" points="7265,-0.5 7265,-58 7452,-58 7452,-0.5 7265,-0.5"/>
<text text-anchor="middle" x="7358.5" y="-40.7" font-family="Times New Roman,serif" font-size="14.00">ART&#45;070</text>
<text text-anchor="middle" x="7358.5" y="-24.2" font-family="Times New Roman,serif" font-size="14.00">Nombre: Sofía Flores</text>
<text text-anchor="middle" x="7358.5" y="-7.7" font-family="Times New Roman,serif" font-size="14.00">Correo: sofía.flores@mail.com</text>
</g>
<!-- nodo29&#45;&gt;nodo30 -->
<g id="edge29" class="edge">
<title>nodo29&#45;&gt;nodo30</title>
<path fill="none" stroke="black" d="M7229.3,-29.25C7237.21,-29.25 7245.26,-29.25 7253.26,-29.25"/>
<polygon fill="black" stroke="black" points="7253.03,-32.75 7263.03,-29.25 7253.03,-25.75 7253.03,-32.75"/>
</g>
<!-- nodo31 -->
<g id="node31" class="node">
<title>nodo31</title>
<polygon fill="none" stroke="black" points="7488,-0.5 7488,-58 7705,-58 7705,-0.5 7488,-0.5"/>
<text text-anchor="middle" x="7596.5" y="-40.7" font-family="Times New Roman,serif" font-size="14.00">ART&#45;181</text>
<text text-anchor="middle" x="7596.5" y="-24.2" font-family="Times New Roman,serif" font-size="14.00">Nombre: Pablo Flores</text>
<text text-anchor="middle" x="7596.5" y="-7.7" font-family="Times New Roman,serif" font-size="14.00">Correo: pablo.flores@pixelworld.net</text>
</g>
<!-- nodo30&#45;&gt;nodo31 -->
<g id="edge30" class="edge">
<title>nodo30&#45;&gt;nodo31</title>
<path fill="none" stroke="black" d="M7452.43,-29.25C7460.33,-29.25 7468.37,-29.25 7476.43,-29.25"/>
<polygon fill="black" stroke="black" points="7476.29,-32.75 7486.29,-29.25 7476.29,-25.75 7476.29,-32.75"/>
</g>
<!-- nodo32 -->
<g id="node32" class="node">
<title>nodo32</title>
<polygon fill="none" stroke="black" points="7741,-0.5 7741,-58 7969.25,-58 7969.25,-0.5 7741,-0.5"/>
<text text-anchor="middle" x="7855.12" y="-40.7" font-family="Times New Roman,serif" font-size="14.00">ART&#45;634</text>
<text text-anchor="middle" x="7855.12" y="-24.2" font-family="Times New Roman,serif" font-size="14.00">Nombre: Pablo Ramírez</text>
<text text-anchor="middle" x="7855.12" y="-7.7" font-family="Times New Roman,serif" font-size="14.00">Correo: pablo.ramírez@pixelworld.net</text>
</g>
<!-- nodo31&#45;&gt;nodo32 -->
<g id="edge31" class="edge">
<title>nodo31&#45;&gt;nodo32</title>
<path fill="none" stroke="black" d="M7705.22,-29.25C7713.23,-29.25 7721.36,-29.25 7729.47,-29.25"/>
<polygon fill="black" stroke="black" points="7729.39,-32.75 7739.39,-29.25 7729.39,-25.75 7729.39,-32.75"/>
</g>
<!-- nodo33 -->
<g id="node33" class="node">
<title>nodo33</title>
<polygon fill="none" stroke="black" points="8005.25,-0.5 8005.25,-58 8226.75,-58 8226.75,-0.5 8005.25,-0.5"/>
<text text-anchor="middle" x="8116" y="-40.7" font-family="Times New Roman,serif" font-size="14.00">ART&#45;483</text>
<text text-anchor="middle" x="8116" y="-24.2" font-family="Times New Roman,serif" font-size="14.00">Nombre: Juan Ramírez</text>
<text text-anchor="middle" x="8116" y="-7.7" font-family="Times New Roman,serif" font-size="14.00">Correo: juan.ramírez@pixelworld.net</text>
</g>
<!-- nodo32&#45;&gt;nodo33 -->
<g id="edge32" class="edge">
<title>nodo32&#45;&gt;nodo33</title>
<path fill="none" stroke="black" d="M7969.67,-29.25C7977.61,-29.25 7985.63,-29.25 7993.62,-29.25"/>
<polygon fill="black" stroke="black" points="7993.35,-32.75 8003.35,-29.25 7993.35,-25.75 7993.35,-32.75"/>
</g>
<!-- nodo34 -->
<g id="node34" class="node">
<title>nodo34</title>
<polygon fill="none" stroke="black" points="8262.75,-0.5 8262.75,-58 8468.5,-58 8468.5,-0.5 8262.75,-0.5"/>
<text text-anchor="middle" x="8365.62" y="-40.7" font-family="Times New Roman,serif" font-size="14.00">ART&#45;330</text>
<text text-anchor="middle" x="8365.62" y="-24.2" font-family="Times New Roman,serif" font-size="14.00">Nombre: Juan Torres</text>
<text text-anchor="middle" x="8365.62" y="-7.7" font-family="Times New Roman,serif" font-size="14.00">Correo: juan.torres@example.com</text>
</g>
<!-- nodo33&#45;&gt;nodo34 -->
<g id="edge33" class="edge">
<title>nodo33&#45;&gt;nodo34</title>
<path fill="none" stroke="black" d="M8227.05,-29.25C8235.04,-29.25 8243.11,-29.25 8251.12,-29.25"/>
<polygon fill="black" stroke="black" points="8250.88,-32.75 8260.88,-29.25 8250.88,-25.75 8250.88,-32.75"/>
</g>
</g>
</svg>
