<?xml version="1.0" encoding="UTF-8" standalone="no"?>
<!DOCTYPE svg PUBLIC "-//W3C//DTD SVG 1.1//EN"
 "http://www.w3.org/Graphics/SVG/1.1/DTD/svg11.dtd">
<!-- Generated by graphviz version 12.1.2 (20240928.0832)
 -->
<!-- Title: G Pages: 1 -->
<svg width="520pt" height="83pt"
 viewBox="0.00 0.00 520.25 83.46" xmlns="http://www.w3.org/2000/svg" xmlns:xlink="http://www.w3.org/1999/xlink">
<g id="graph0" class="graph" transform="scale(1 1) rotate(0) translate(4 79.46)">
<title>G</title>
<polygon fill="white" stroke="none" points="-4,4 -4,-79.46 516.25,-79.46 516.25,4 -4,4"/>
<!-- nodo0 -->
<g id="node1" class="node">
<title>nodo0</title>
<polygon fill="none" stroke="black" points="0,-17.46 0,-74.96 146.75,-74.96 146.75,-17.46 0,-17.46"/>
<text text-anchor="middle" x="63.5" y="-57.66" font-family="Times New Roman,serif" font-size="14.00">ID: 4</text>
<text text-anchor="middle" x="63.5" y="-41.16" font-family="Times New Roman,serif" font-size="14.00">Nombre: Amongus</text>
<text text-anchor="middle" x="63.5" y="-24.66" font-family="Times New Roman,serif" font-size="14.00">Solicitante: IPC&#45;001</text>
<polyline fill="none" stroke="black" points="127,-17.46 127,-74.96"/>
<text text-anchor="middle" x="136.88" y="-41.16" font-family="Times New Roman,serif" font-size="14.00"> </text>
</g>
<!-- nodo1 -->
<g id="node2" class="node">
<title>nodo1</title>
<polygon fill="none" stroke="black" points="182.75,-17.46 182.75,-74.96 329.5,-74.96 329.5,-17.46 182.75,-17.46"/>
<text text-anchor="middle" x="246.25" y="-57.66" font-family="Times New Roman,serif" font-size="14.00">ID: 2</text>
<text text-anchor="middle" x="246.25" y="-41.16" font-family="Times New Roman,serif" font-size="14.00">Nombre: Capibara</text>
<text text-anchor="middle" x="246.25" y="-24.66" font-family="Times New Roman,serif" font-size="14.00">Solicitante: IPC&#45;001</text>
<polyline fill="none" stroke="black" points="309.75,-17.46 309.75,-74.96"/>
<text text-anchor="middle" x="319.62" y="-41.16" font-family="Times New Roman,serif" font-size="14.00"> </text>
</g>
<!-- nodo0&#45;&gt;nodo1 -->
<g id="edge1" class="edge">
<title>nodo0&#45;&gt;nodo1</title>
<path fill="none" stroke="black" d="M147.11,-46.21C155.05,-46.21 163.17,-46.21 171.22,-46.21"/>
<polygon fill="black" stroke="black" points="171.02,-49.71 181.02,-46.21 171.02,-42.71 171.02,-49.71"/>
</g>
<!-- nodo2 -->
<g id="node3" class="node">
<title>nodo2</title>
<polygon fill="none" stroke="black" points="365.5,-17.46 365.5,-74.96 512.25,-74.96 512.25,-17.46 365.5,-17.46"/>
<text text-anchor="middle" x="429" y="-57.66" font-family="Times New Roman,serif" font-size="14.00">ID: 5</text>
<text text-anchor="middle" x="429" y="-41.16" font-family="Times New Roman,serif" font-size="14.00">Nombre: IronMan</text>
<text text-anchor="middle" x="429" y="-24.66" font-family="Times New Roman,serif" font-size="14.00">Solicitante: IPC&#45;001</text>
<polyline fill="none" stroke="black" points="492.5,-17.46 492.5,-74.96"/>
<text text-anchor="middle" x="502.38" y="-41.16" font-family="Times New Roman,serif" font-size="14.00"> </text>
</g>
<!-- nodo1&#45;&gt;nodo2 -->
<g id="edge2" class="edge">
<title>nodo1&#45;&gt;nodo2</title>
<path fill="none" stroke="black" d="M329.86,-46.21C337.8,-46.21 345.92,-46.21 353.97,-46.21"/>
<polygon fill="black" stroke="black" points="353.77,-49.71 363.77,-46.21 353.77,-42.71 353.77,-49.71"/>
</g>
<!-- nodo2&#45;&gt;nodo0 -->
<g id="edge3" class="edge">
<title>nodo2&#45;&gt;nodo0</title>
<path fill="none" stroke="black" d="M365.31,-17.02C353.51,-13.37 341.29,-10.22 329.5,-8.21 265.2,2.74 247.05,2.74 182.75,-8.21 174.55,-9.61 166.14,-11.56 157.82,-13.84"/>
<polygon fill="black" stroke="black" points="157.01,-10.43 148.39,-16.6 158.98,-17.15 157.01,-10.43"/>
</g>
</g>
</svg>
