<?xml version="1.0" encoding="UTF-8" standalone="no"?>
<!DOCTYPE svg PUBLIC "-//W3C//DTD SVG 1.1//EN"
 "http://www.w3.org/Graphics/SVG/1.1/DTD/svg11.dtd">
<!-- Generated by graphviz version 12.1.2 (20240928.0832)
 -->
<!-- Title: G Pages: 1 -->
<svg width="8278pt" height="67pt"
 viewBox="0.00 0.00 8278.25 66.50" xmlns="http://www.w3.org/2000/svg" xmlns:xlink="http://www.w3.org/1999/xlink">
<g id="graph0" class="graph" transform="scale(1 1) rotate(0) translate(4 62.5)">
<title>G</title>
<polygon fill="white" stroke="none" points="-4,4 -4,-62.5 8274.25,-62.5 8274.25,4 -4,4"/>
<!-- nodo1 -->
<g id="node1" class="node">
<title>nodo1</title>
<polygon fill="none" stroke="black" points="0,-0.5 0,-58 228,-58 228,-0.5 0,-0.5"/>
<text text-anchor="middle" x="9.88" y="-24.2" font-family="Times New Roman,serif" font-size="14.00"> </text>
<polyline fill="none" stroke="black" points="19.75,-0.5 19.75,-58"/>
<text text-anchor="middle" x="114" y="-40.7" font-family="Times New Roman,serif" font-size="14.00">IPC&#45;001</text>
<text text-anchor="middle" x="114" y="-24.2" font-family="Times New Roman,serif" font-size="14.00">Nombre: Luis Pérez</text>
<text text-anchor="middle" x="114" y="-7.7" font-family="Times New Roman,serif" font-size="14.00">Correo: luis.pérez@correo.com</text>
<polyline fill="none" stroke="black" points="208.25,-0.5 208.25,-58"/>
<text text-anchor="middle" x="218.12" y="-24.2" font-family="Times New Roman,serif" font-size="14.00"> </text>
</g>
<!-- nodo2 -->
<g id="node2" class="node">
<title>nodo2</title>
<polygon fill="none" stroke="black" points="264,-0.5 264,-58 486,-58 486,-0.5 264,-0.5"/>
<text text-anchor="middle" x="273.88" y="-24.2" font-family="Times New Roman,serif" font-size="14.00"> </text>
<polyline fill="none" stroke="black" points="283.75,-0.5 283.75,-58"/>
<text text-anchor="middle" x="375" y="-40.7" font-family="Times New Roman,serif" font-size="14.00">IPC&#45;002</text>
<text text-anchor="middle" x="375" y="-24.2" font-family="Times New Roman,serif" font-size="14.00">Nombre: Juan Pérez</text>
<text text-anchor="middle" x="375" y="-7.7" font-family="Times New Roman,serif" font-size="14.00">Correo: juan.pérez@mail.com</text>
<polyline fill="none" stroke="black" points="466.25,-0.5 466.25,-58"/>
<text text-anchor="middle" x="476.12" y="-24.2" font-family="Times New Roman,serif" font-size="14.00"> </text>
</g>
<!-- nodo1&#45;&gt;nodo2 -->
<g id="edge1" class="edge">
<title>nodo1:f2&#45;&gt;nodo2:f1</title>
<path fill="none" stroke="black" d="M228,-29.25C239.38,-29.25 244.68,-29.25 252.55,-29.25"/>
<polygon fill="black" stroke="black" points="252.49,-32.75 262.49,-29.25 252.49,-25.75 252.49,-32.75"/>
</g>
<!-- nodo2&#45;&gt;nodo1 -->
<g id="edge2" class="edge">
<title>nodo2:f1&#45;&gt;nodo1:f2</title>
<path fill="none" stroke="black" d="M264,-29.25C252.62,-29.25 247.32,-29.25 239.45,-29.25"/>
<polygon fill="black" stroke="black" points="239.51,-25.75 229.51,-29.25 239.51,-32.75 239.51,-25.75"/>
</g>
<!-- nodo3 -->
<g id="node3" class="node">
<title>nodo3</title>
<polygon fill="none" stroke="black" points="522,-0.5 522,-58 796.5,-58 796.5,-0.5 522,-0.5"/>
<text text-anchor="middle" x="531.88" y="-24.2" font-family="Times New Roman,serif" font-size="14.00"> </text>
<polyline fill="none" stroke="black" points="541.75,-0.5 541.75,-58"/>
<text text-anchor="middle" x="659.25" y="-40.7" font-family="Times New Roman,serif" font-size="14.00">IPC&#45;003</text>
<text text-anchor="middle" x="659.25" y="-24.2" font-family="Times New Roman,serif" font-size="14.00">Nombre: Jorge Hernández</text>
<text text-anchor="middle" x="659.25" y="-7.7" font-family="Times New Roman,serif" font-size="14.00">Correo: jorge.hernández@example.com</text>
<polyline fill="none" stroke="black" points="776.75,-0.5 776.75,-58"/>
<text text-anchor="middle" x="786.62" y="-24.2" font-family="Times New Roman,serif" font-size="14.00"> </text>
</g>
<!-- nodo2&#45;&gt;nodo3 -->
<g id="edge3" class="edge">
<title>nodo2:f2&#45;&gt;nodo3:f1</title>
<path fill="none" stroke="black" d="M486,-29.25C497.38,-29.25 502.68,-29.25 510.55,-29.25"/>
<polygon fill="black" stroke="black" points="510.49,-32.75 520.49,-29.25 510.49,-25.75 510.49,-32.75"/>
</g>
<!-- nodo3&#45;&gt;nodo2 -->
<g id="edge4" class="edge">
<title>nodo3:f1&#45;&gt;nodo2:f2</title>
<path fill="none" stroke="black" d="M522,-29.25C510.62,-29.25 505.32,-29.25 497.45,-29.25"/>
<polygon fill="black" stroke="black" points="497.51,-25.75 487.51,-29.25 497.51,-32.75 497.51,-25.75"/>
</g>
<!-- nodo4 -->
<g id="node4" class="node">
<title>nodo4</title>
<polygon fill="none" stroke="black" points="832.5,-0.5 832.5,-58 1113,-58 1113,-0.5 832.5,-0.5"/>
<text text-anchor="middle" x="842.38" y="-24.2" font-family="Times New Roman,serif" font-size="14.00"> </text>
<polyline fill="none" stroke="black" points="852.25,-0.5 852.25,-58"/>
<text text-anchor="middle" x="972.75" y="-40.7" font-family="Times New Roman,serif" font-size="14.00">IPC&#45;004</text>
<text text-anchor="middle" x="972.75" y="-24.2" font-family="Times New Roman,serif" font-size="14.00">Nombre: Fernanda Ramírez</text>
<text text-anchor="middle" x="972.75" y="-7.7" font-family="Times New Roman,serif" font-size="14.00">Correo: fernanda.ramírez@example.com</text>
<polyline fill="none" stroke="black" points="1093.25,-0.5 1093.25,-58"/>
<text text-anchor="middle" x="1103.12" y="-24.2" font-family="Times New Roman,serif" font-size="14.00"> </text>
</g>
<!-- nodo3&#45;&gt;nodo4 -->
<g id="edge5" class="edge">
<title>nodo3:f2&#45;&gt;nodo4:f1</title>
<path fill="none" stroke="black" d="M796.5,-29.25C807.88,-29.25 813.18,-29.25 821.05,-29.25"/>
<polygon fill="black" stroke="black" points="820.99,-32.75 830.99,-29.25 820.99,-25.75 820.99,-32.75"/>
</g>
<!-- nodo4&#45;&gt;nodo3 -->
<g id="edge6" class="edge">
<title>nodo4:f1&#45;&gt;nodo3:f2</title>
<path fill="none" stroke="black" d="M832.5,-29.25C821.12,-29.25 815.82,-29.25 807.95,-29.25"/>
<polygon fill="black" stroke="black" points="808.01,-25.75 798.01,-29.25 808.01,-32.75 808.01,-25.75"/>
</g>
<!-- nodo5 -->
<g id="node5" class="node">
<title>nodo5</title>
<polygon fill="none" stroke="black" points="1149,-0.5 1149,-58 1386,-58 1386,-0.5 1149,-0.5"/>
<text text-anchor="middle" x="1158.88" y="-24.2" font-family="Times New Roman,serif" font-size="14.00"> </text>
<polyline fill="none" stroke="black" points="1168.75,-0.5 1168.75,-58"/>
<text text-anchor="middle" x="1267.5" y="-40.7" font-family="Times New Roman,serif" font-size="14.00">IPC&#45;005</text>
<text text-anchor="middle" x="1267.5" y="-24.2" font-family="Times New Roman,serif" font-size="14.00">Nombre: Luis Martínez</text>
<text text-anchor="middle" x="1267.5" y="-7.7" font-family="Times New Roman,serif" font-size="14.00">Correo: luis.martínez@mail.com</text>
<polyline fill="none" stroke="black" points="1366.25,-0.5 1366.25,-58"/>
<text text-anchor="middle" x="1376.12" y="-24.2" font-family="Times New Roman,serif" font-size="14.00"> </text>
</g>
<!-- nodo4&#45;&gt;nodo5 -->
<g id="edge7" class="edge">
<title>nodo4:f2&#45;&gt;nodo5:f1</title>
<path fill="none" stroke="black" d="M1113,-29.25C1124.38,-29.25 1129.68,-29.25 1137.55,-29.25"/>
<polygon fill="black" stroke="black" points="1137.49,-32.75 1147.49,-29.25 1137.49,-25.75 1137.49,-32.75"/>
</g>
<!-- nodo5&#45;&gt;nodo4 -->
<g id="edge8" class="edge">
<title>nodo5:f1&#45;&gt;nodo4:f2</title>
<path fill="none" stroke="black" d="M1149,-29.25C1137.62,-29.25 1132.32,-29.25 1124.45,-29.25"/>
<polygon fill="black" stroke="black" points="1124.51,-25.75 1114.51,-29.25 1124.51,-32.75 1124.51,-25.75"/>
</g>
<!-- nodo6 -->
<g id="node6" class="node">
<title>nodo6</title>
<polygon fill="none" stroke="black" points="1422,-0.5 1422,-58 1644,-58 1644,-0.5 1422,-0.5"/>
<text text-anchor="middle" x="1431.88" y="-24.2" font-family="Times New Roman,serif" font-size="14.00"> </text>
<polyline fill="none" stroke="black" points="1441.75,-0.5 1441.75,-58"/>
<text text-anchor="middle" x="1533" y="-40.7" font-family="Times New Roman,serif" font-size="14.00">IPC&#45;006</text>
<text text-anchor="middle" x="1533" y="-24.2" font-family="Times New Roman,serif" font-size="14.00">Nombre: María Ruiz</text>
<text text-anchor="middle" x="1533" y="-7.7" font-family="Times New Roman,serif" font-size="14.00">Correo: maría.ruiz@mail.com</text>
<polyline fill="none" stroke="black" points="1624.25,-0.5 1624.25,-58"/>
<text text-anchor="middle" x="1634.12" y="-24.2" font-family="Times New Roman,serif" font-size="14.00"> </text>
</g>
<!-- nodo5&#45;&gt;nodo6 -->
<g id="edge9" class="edge">
<title>nodo5:f2&#45;&gt;nodo6:f1</title>
<path fill="none" stroke="black" d="M1386,-29.25C1397.38,-29.25 1402.68,-29.25 1410.55,-29.25"/>
<polygon fill="black" stroke="black" points="1410.49,-32.75 1420.49,-29.25 1410.49,-25.75 1410.49,-32.75"/>
</g>
<!-- nodo6&#45;&gt;nodo5 -->
<g id="edge10" class="edge">
<title>nodo6:f1&#45;&gt;nodo5:f2</title>
<path fill="none" stroke="black" d="M1422,-29.25C1410.62,-29.25 1405.32,-29.25 1397.45,-29.25"/>
<polygon fill="black" stroke="black" points="1397.51,-25.75 1387.51,-29.25 1397.51,-32.75 1397.51,-25.75"/>
</g>
<!-- nodo7 -->
<g id="node7" class="node">
<title>nodo7</title>
<polygon fill="none" stroke="black" points="1680,-0.5 1680,-58 1923.75,-58 1923.75,-0.5 1680,-0.5"/>
<text text-anchor="middle" x="1689.88" y="-24.2" font-family="Times New Roman,serif" font-size="14.00"> </text>
<polyline fill="none" stroke="black" points="1699.75,-0.5 1699.75,-58"/>
<text text-anchor="middle" x="1801.88" y="-40.7" font-family="Times New Roman,serif" font-size="14.00">IPC&#45;007</text>
<text text-anchor="middle" x="1801.88" y="-24.2" font-family="Times New Roman,serif" font-size="14.00">Nombre: Juan Pérez</text>
<text text-anchor="middle" x="1801.88" y="-7.7" font-family="Times New Roman,serif" font-size="14.00">Correo: juan.pérez@example.com</text>
<polyline fill="none" stroke="black" points="1904,-0.5 1904,-58"/>
<text text-anchor="middle" x="1913.88" y="-24.2" font-family="Times New Roman,serif" font-size="14.00"> </text>
</g>
<!-- nodo6&#45;&gt;nodo7 -->
<g id="edge11" class="edge">
<title>nodo6:f2&#45;&gt;nodo7:f1</title>
<path fill="none" stroke="black" d="M1644,-29.25C1655.38,-29.25 1660.68,-29.25 1668.55,-29.25"/>
<polygon fill="black" stroke="black" points="1668.49,-32.75 1678.49,-29.25 1668.49,-25.75 1668.49,-32.75"/>
</g>
<!-- nodo7&#45;&gt;nodo6 -->
<g id="edge12" class="edge">
<title>nodo7:f1&#45;&gt;nodo6:f2</title>
<path fill="none" stroke="black" d="M1680,-29.25C1668.62,-29.25 1663.32,-29.25 1655.45,-29.25"/>
<polygon fill="black" stroke="black" points="1655.51,-25.75 1645.51,-29.25 1655.51,-32.75 1655.51,-25.75"/>
</g>
<!-- nodo8 -->
<g id="node8" class="node">
<title>nodo8</title>
<polygon fill="none" stroke="black" points="1959.75,-0.5 1959.75,-58 2201.25,-58 2201.25,-0.5 1959.75,-0.5"/>
<text text-anchor="middle" x="1969.62" y="-24.2" font-family="Times New Roman,serif" font-size="14.00"> </text>
<polyline fill="none" stroke="black" points="1979.5,-0.5 1979.5,-58"/>
<text text-anchor="middle" x="2080.5" y="-40.7" font-family="Times New Roman,serif" font-size="14.00">IPC&#45;008</text>
<text text-anchor="middle" x="2080.5" y="-24.2" font-family="Times New Roman,serif" font-size="14.00">Nombre: María Torres</text>
<text text-anchor="middle" x="2080.5" y="-7.7" font-family="Times New Roman,serif" font-size="14.00">Correo: maría.torres@correo.com</text>
<polyline fill="none" stroke="black" points="2181.5,-0.5 2181.5,-58"/>
<text text-anchor="middle" x="2191.38" y="-24.2" font-family="Times New Roman,serif" font-size="14.00"> </text>
</g>
<!-- nodo7&#45;&gt;nodo8 -->
<g id="edge13" class="edge">
<title>nodo7:f2&#45;&gt;nodo8:f1</title>
<path fill="none" stroke="black" d="M1923.75,-29.25C1935.12,-29.25 1940.43,-29.25 1948.3,-29.25"/>
<polygon fill="black" stroke="black" points="1948.24,-32.75 1958.24,-29.25 1948.24,-25.75 1948.24,-32.75"/>
</g>
<!-- nodo8&#45;&gt;nodo7 -->
<g id="edge14" class="edge">
<title>nodo8:f1&#45;&gt;nodo7:f2</title>
<path fill="none" stroke="black" d="M1959.75,-29.25C1948.38,-29.25 1943.07,-29.25 1935.2,-29.25"/>
<polygon fill="black" stroke="black" points="1935.26,-25.75 1925.26,-29.25 1935.26,-32.75 1935.26,-25.75"/>
</g>
<!-- nodo9 -->
<g id="node9" class="node">
<title>nodo9</title>
<polygon fill="none" stroke="black" points="2237.25,-0.5 2237.25,-58 2474.25,-58 2474.25,-0.5 2237.25,-0.5"/>
<text text-anchor="middle" x="2247.12" y="-24.2" font-family="Times New Roman,serif" font-size="14.00"> </text>
<polyline fill="none" stroke="black" points="2257,-0.5 2257,-58"/>
<text text-anchor="middle" x="2355.75" y="-40.7" font-family="Times New Roman,serif" font-size="14.00">IPC&#45;009</text>
<text text-anchor="middle" x="2355.75" y="-24.2" font-family="Times New Roman,serif" font-size="14.00">Nombre: Camila Ruiz</text>
<text text-anchor="middle" x="2355.75" y="-7.7" font-family="Times New Roman,serif" font-size="14.00">Correo: camila.ruiz@correo.com</text>
<polyline fill="none" stroke="black" points="2454.5,-0.5 2454.5,-58"/>
<text text-anchor="middle" x="2464.38" y="-24.2" font-family="Times New Roman,serif" font-size="14.00"> </text>
</g>
<!-- nodo8&#45;&gt;nodo9 -->
<g id="edge15" class="edge">
<title>nodo8:f2&#45;&gt;nodo9:f1</title>
<path fill="none" stroke="black" d="M2201.25,-29.25C2212.62,-29.25 2217.93,-29.25 2225.8,-29.25"/>
<polygon fill="black" stroke="black" points="2225.74,-32.75 2235.74,-29.25 2225.74,-25.75 2225.74,-32.75"/>
</g>
<!-- nodo9&#45;&gt;nodo8 -->
<g id="edge16" class="edge">
<title>nodo9:f1&#45;&gt;nodo8:f2</title>
<path fill="none" stroke="black" d="M2237.25,-29.25C2225.88,-29.25 2220.57,-29.25 2212.7,-29.25"/>
<polygon fill="black" stroke="black" points="2212.76,-25.75 2202.76,-29.25 2212.76,-32.75 2212.76,-25.75"/>
</g>
<!-- nodo10 -->
<g id="node10" class="node">
<title>nodo10</title>
<polygon fill="none" stroke="black" points="2510.25,-0.5 2510.25,-58 2781,-58 2781,-0.5 2510.25,-0.5"/>
<text text-anchor="middle" x="2520.12" y="-24.2" font-family="Times New Roman,serif" font-size="14.00"> </text>
<polyline fill="none" stroke="black" points="2530,-0.5 2530,-58"/>
<text text-anchor="middle" x="2645.62" y="-40.7" font-family="Times New Roman,serif" font-size="14.00">IPC&#45;010</text>
<text text-anchor="middle" x="2645.62" y="-24.2" font-family="Times New Roman,serif" font-size="14.00">Nombre: María Martínez</text>
<text text-anchor="middle" x="2645.62" y="-7.7" font-family="Times New Roman,serif" font-size="14.00">Correo: maría.martínez@example.com</text>
<polyline fill="none" stroke="black" points="2761.25,-0.5 2761.25,-58"/>
<text text-anchor="middle" x="2771.12" y="-24.2" font-family="Times New Roman,serif" font-size="14.00"> </text>
</g>
<!-- nodo9&#45;&gt;nodo10 -->
<g id="edge17" class="edge">
<title>nodo9:f2&#45;&gt;nodo10:f1</title>
<path fill="none" stroke="black" d="M2474.25,-29.25C2485.62,-29.25 2490.93,-29.25 2498.8,-29.25"/>
<polygon fill="black" stroke="black" points="2498.74,-32.75 2508.74,-29.25 2498.74,-25.75 2498.74,-32.75"/>
</g>
<!-- nodo10&#45;&gt;nodo9 -->
<g id="edge18" class="edge">
<title>nodo10:f1&#45;&gt;nodo9:f2</title>
<path fill="none" stroke="black" d="M2510.25,-29.25C2498.88,-29.25 2493.57,-29.25 2485.7,-29.25"/>
<polygon fill="black" stroke="black" points="2485.76,-25.75 2475.76,-29.25 2485.76,-32.75 2485.76,-25.75"/>
</g>
<!-- nodo11 -->
<g id="node11" class="node">
<title>nodo11</title>
<polygon fill="none" stroke="black" points="2817,-0.5 2817,-58 3057.75,-58 3057.75,-0.5 2817,-0.5"/>
<text text-anchor="middle" x="2826.88" y="-24.2" font-family="Times New Roman,serif" font-size="14.00"> </text>
<polyline fill="none" stroke="black" points="2836.75,-0.5 2836.75,-58"/>
<text text-anchor="middle" x="2937.38" y="-40.7" font-family="Times New Roman,serif" font-size="14.00">IPC&#45;011</text>
<text text-anchor="middle" x="2937.38" y="-24.2" font-family="Times New Roman,serif" font-size="14.00">Nombre: Juan Martínez</text>
<text text-anchor="middle" x="2937.38" y="-7.7" font-family="Times New Roman,serif" font-size="14.00">Correo: juan.martínez@mail.com</text>
<polyline fill="none" stroke="black" points="3038,-0.5 3038,-58"/>
<text text-anchor="middle" x="3047.88" y="-24.2" font-family="Times New Roman,serif" font-size="14.00"> </text>
</g>
<!-- nodo10&#45;&gt;nodo11 -->
<g id="edge19" class="edge">
<title>nodo10:f2&#45;&gt;nodo11:f1</title>
<path fill="none" stroke="black" d="M2781,-29.25C2792.38,-29.25 2797.68,-29.25 2805.55,-29.25"/>
<polygon fill="black" stroke="black" points="2805.49,-32.75 2815.49,-29.25 2805.49,-25.75 2805.49,-32.75"/>
</g>
<!-- nodo11&#45;&gt;nodo10 -->
<g id="edge20" class="edge">
<title>nodo11:f1&#45;&gt;nodo10:f2</title>
<path fill="none" stroke="black" d="M2817,-29.25C2805.62,-29.25 2800.32,-29.25 2792.45,-29.25"/>
<polygon fill="black" stroke="black" points="2792.51,-25.75 2782.51,-29.25 2792.51,-32.75 2792.51,-25.75"/>
</g>
<!-- nodo12 -->
<g id="node12" class="node">
<title>nodo12</title>
<polygon fill="none" stroke="black" points="3093.75,-0.5 3093.75,-58 3324,-58 3324,-0.5 3093.75,-0.5"/>
<text text-anchor="middle" x="3103.62" y="-24.2" font-family="Times New Roman,serif" font-size="14.00"> </text>
<polyline fill="none" stroke="black" points="3113.5,-0.5 3113.5,-58"/>
<text text-anchor="middle" x="3208.88" y="-40.7" font-family="Times New Roman,serif" font-size="14.00">IPC&#45;012</text>
<text text-anchor="middle" x="3208.88" y="-24.2" font-family="Times New Roman,serif" font-size="14.00">Nombre: María Pérez</text>
<text text-anchor="middle" x="3208.88" y="-7.7" font-family="Times New Roman,serif" font-size="14.00">Correo: maría.pérez@mail.com</text>
<polyline fill="none" stroke="black" points="3304.25,-0.5 3304.25,-58"/>
<text text-anchor="middle" x="3314.12" y="-24.2" font-family="Times New Roman,serif" font-size="14.00"> </text>
</g>
<!-- nodo11&#45;&gt;nodo12 -->
<g id="edge21" class="edge">
<title>nodo11:f2&#45;&gt;nodo12:f1</title>
<path fill="none" stroke="black" d="M3057.75,-29.25C3069.12,-29.25 3074.43,-29.25 3082.3,-29.25"/>
<polygon fill="black" stroke="black" points="3082.24,-32.75 3092.24,-29.25 3082.24,-25.75 3082.24,-32.75"/>
</g>
<!-- nodo12&#45;&gt;nodo11 -->
<g id="edge22" class="edge">
<title>nodo12:f1&#45;&gt;nodo11:f2</title>
<path fill="none" stroke="black" d="M3093.75,-29.25C3082.38,-29.25 3077.07,-29.25 3069.2,-29.25"/>
<polygon fill="black" stroke="black" points="3069.26,-25.75 3059.26,-29.25 3069.26,-32.75 3069.26,-25.75"/>
</g>
<!-- nodo13 -->
<g id="node13" class="node">
<title>nodo13</title>
<polygon fill="none" stroke="black" points="3360,-0.5 3360,-58 3622.5,-58 3622.5,-0.5 3360,-0.5"/>
<text text-anchor="middle" x="3369.88" y="-24.2" font-family="Times New Roman,serif" font-size="14.00"> </text>
<polyline fill="none" stroke="black" points="3379.75,-0.5 3379.75,-58"/>
<text text-anchor="middle" x="3491.25" y="-40.7" font-family="Times New Roman,serif" font-size="14.00">IPC&#45;013</text>
<text text-anchor="middle" x="3491.25" y="-24.2" font-family="Times New Roman,serif" font-size="14.00">Nombre: Carlos Castillo</text>
<text text-anchor="middle" x="3491.25" y="-7.7" font-family="Times New Roman,serif" font-size="14.00">Correo: carlos.castillo@example.com</text>
<polyline fill="none" stroke="black" points="3602.75,-0.5 3602.75,-58"/>
<text text-anchor="middle" x="3612.62" y="-24.2" font-family="Times New Roman,serif" font-size="14.00"> </text>
</g>
<!-- nodo12&#45;&gt;nodo13 -->
<g id="edge23" class="edge">
<title>nodo12:f2&#45;&gt;nodo13:f1</title>
<path fill="none" stroke="black" d="M3324,-29.25C3335.38,-29.25 3340.68,-29.25 3348.55,-29.25"/>
<polygon fill="black" stroke="black" points="3348.49,-32.75 3358.49,-29.25 3348.49,-25.75 3348.49,-32.75"/>
</g>
<!-- nodo13&#45;&gt;nodo12 -->
<g id="edge24" class="edge">
<title>nodo13:f1&#45;&gt;nodo12:f2</title>
<path fill="none" stroke="black" d="M3360,-29.25C3348.62,-29.25 3343.32,-29.25 3335.45,-29.25"/>
<polygon fill="black" stroke="black" points="3335.51,-25.75 3325.51,-29.25 3335.51,-32.75 3335.51,-25.75"/>
</g>
<!-- nodo14 -->
<g id="node14" class="node">
<title>nodo14</title>
<polygon fill="none" stroke="black" points="3658.5,-0.5 3658.5,-58 3908.25,-58 3908.25,-0.5 3658.5,-0.5"/>
<text text-anchor="middle" x="3668.38" y="-24.2" font-family="Times New Roman,serif" font-size="14.00"> </text>
<polyline fill="none" stroke="black" points="3678.25,-0.5 3678.25,-58"/>
<text text-anchor="middle" x="3783.38" y="-40.7" font-family="Times New Roman,serif" font-size="14.00">IPC&#45;014</text>
<text text-anchor="middle" x="3783.38" y="-24.2" font-family="Times New Roman,serif" font-size="14.00">Nombre: María Castillo</text>
<text text-anchor="middle" x="3783.38" y="-7.7" font-family="Times New Roman,serif" font-size="14.00">Correo: maría.castillo@correo.com</text>
<polyline fill="none" stroke="black" points="3888.5,-0.5 3888.5,-58"/>
<text text-anchor="middle" x="3898.38" y="-24.2" font-family="Times New Roman,serif" font-size="14.00"> </text>
</g>
<!-- nodo13&#45;&gt;nodo14 -->
<g id="edge25" class="edge">
<title>nodo13:f2&#45;&gt;nodo14:f1</title>
<path fill="none" stroke="black" d="M3622.5,-29.25C3633.88,-29.25 3639.18,-29.25 3647.05,-29.25"/>
<polygon fill="black" stroke="black" points="3646.99,-32.75 3656.99,-29.25 3646.99,-25.75 3646.99,-32.75"/>
</g>
<!-- nodo14&#45;&gt;nodo13 -->
<g id="edge26" class="edge">
<title>nodo14:f1&#45;&gt;nodo13:f2</title>
<path fill="none" stroke="black" d="M3658.5,-29.25C3647.12,-29.25 3641.82,-29.25 3633.95,-29.25"/>
<polygon fill="black" stroke="black" points="3634.01,-25.75 3624.01,-29.25 3634.01,-32.75 3634.01,-25.75"/>
</g>
<!-- nodo15 -->
<g id="node15" class="node">
<title>nodo15</title>
<polygon fill="none" stroke="black" points="3944.25,-0.5 3944.25,-58 4191,-58 4191,-0.5 3944.25,-0.5"/>
<text text-anchor="middle" x="3954.12" y="-24.2" font-family="Times New Roman,serif" font-size="14.00"> </text>
<polyline fill="none" stroke="black" points="3964,-0.5 3964,-58"/>
<text text-anchor="middle" x="4067.62" y="-40.7" font-family="Times New Roman,serif" font-size="14.00">IPC&#45;015</text>
<text text-anchor="middle" x="4067.62" y="-24.2" font-family="Times New Roman,serif" font-size="14.00">Nombre: Luis Martínez</text>
<text text-anchor="middle" x="4067.62" y="-7.7" font-family="Times New Roman,serif" font-size="14.00">Correo: luis.martínez@correo.com</text>
<polyline fill="none" stroke="black" points="4171.25,-0.5 4171.25,-58"/>
<text text-anchor="middle" x="4181.12" y="-24.2" font-family="Times New Roman,serif" font-size="14.00"> </text>
</g>
<!-- nodo14&#45;&gt;nodo15 -->
<g id="edge27" class="edge">
<title>nodo14:f2&#45;&gt;nodo15:f1</title>
<path fill="none" stroke="black" d="M3908.25,-29.25C3919.62,-29.25 3924.93,-29.25 3932.8,-29.25"/>
<polygon fill="black" stroke="black" points="3932.74,-32.75 3942.74,-29.25 3932.74,-25.75 3932.74,-32.75"/>
</g>
<!-- nodo15&#45;&gt;nodo14 -->
<g id="edge28" class="edge">
<title>nodo15:f1&#45;&gt;nodo14:f2</title>
<path fill="none" stroke="black" d="M3944.25,-29.25C3932.88,-29.25 3927.57,-29.25 3919.7,-29.25"/>
<polygon fill="black" stroke="black" points="3919.76,-25.75 3909.76,-29.25 3919.76,-32.75 3919.76,-25.75"/>
</g>
<!-- nodo16 -->
<g id="node16" class="node">
<title>nodo16</title>
<polygon fill="none" stroke="black" points="4227,-0.5 4227,-58 4454.25,-58 4454.25,-0.5 4227,-0.5"/>
<text text-anchor="middle" x="4236.88" y="-24.2" font-family="Times New Roman,serif" font-size="14.00"> </text>
<polyline fill="none" stroke="black" points="4246.75,-0.5 4246.75,-58"/>
<text text-anchor="middle" x="4340.62" y="-40.7" font-family="Times New Roman,serif" font-size="14.00">IPC&#45;016</text>
<text text-anchor="middle" x="4340.62" y="-24.2" font-family="Times New Roman,serif" font-size="14.00">Nombre: Ana Castillo</text>
<text text-anchor="middle" x="4340.62" y="-7.7" font-family="Times New Roman,serif" font-size="14.00">Correo: ana.castillo@mail.com</text>
<polyline fill="none" stroke="black" points="4434.5,-0.5 4434.5,-58"/>
<text text-anchor="middle" x="4444.38" y="-24.2" font-family="Times New Roman,serif" font-size="14.00"> </text>
</g>
<!-- nodo15&#45;&gt;nodo16 -->
<g id="edge29" class="edge">
<title>nodo15:f2&#45;&gt;nodo16:f1</title>
<path fill="none" stroke="black" d="M4191,-29.25C4202.38,-29.25 4207.68,-29.25 4215.55,-29.25"/>
<polygon fill="black" stroke="black" points="4215.49,-32.75 4225.49,-29.25 4215.49,-25.75 4215.49,-32.75"/>
</g>
<!-- nodo16&#45;&gt;nodo15 -->
<g id="edge30" class="edge">
<title>nodo16:f1&#45;&gt;nodo15:f2</title>
<path fill="none" stroke="black" d="M4227,-29.25C4215.62,-29.25 4210.32,-29.25 4202.45,-29.25"/>
<polygon fill="black" stroke="black" points="4202.51,-25.75 4192.51,-29.25 4202.51,-32.75 4202.51,-25.75"/>
</g>
<!-- nodo17 -->
<g id="node17" class="node">
<title>nodo17</title>
<polygon fill="none" stroke="black" points="4490.25,-0.5 4490.25,-58 4719,-58 4719,-0.5 4490.25,-0.5"/>
<text text-anchor="middle" x="4500.12" y="-24.2" font-family="Times New Roman,serif" font-size="14.00"> </text>
<polyline fill="none" stroke="black" points="4510,-0.5 4510,-58"/>
<text text-anchor="middle" x="4604.62" y="-40.7" font-family="Times New Roman,serif" font-size="14.00">IPC&#45;017</text>
<text text-anchor="middle" x="4604.62" y="-24.2" font-family="Times New Roman,serif" font-size="14.00">Nombre: Diego López</text>
<text text-anchor="middle" x="4604.62" y="-7.7" font-family="Times New Roman,serif" font-size="14.00">Correo: diego.lópez@mail.com</text>
<polyline fill="none" stroke="black" points="4699.25,-0.5 4699.25,-58"/>
<text text-anchor="middle" x="4709.12" y="-24.2" font-family="Times New Roman,serif" font-size="14.00"> </text>
</g>
<!-- nodo16&#45;&gt;nodo17 -->
<g id="edge31" class="edge">
<title>nodo16:f2&#45;&gt;nodo17:f1</title>
<path fill="none" stroke="black" d="M4454.25,-29.25C4465.62,-29.25 4470.93,-29.25 4478.8,-29.25"/>
<polygon fill="black" stroke="black" points="4478.74,-32.75 4488.74,-29.25 4478.74,-25.75 4478.74,-32.75"/>
</g>
<!-- nodo17&#45;&gt;nodo16 -->
<g id="edge32" class="edge">
<title>nodo17:f1&#45;&gt;nodo16:f2</title>
<path fill="none" stroke="black" d="M4490.25,-29.25C4478.88,-29.25 4473.57,-29.25 4465.7,-29.25"/>
<polygon fill="black" stroke="black" points="4465.76,-25.75 4455.76,-29.25 4465.76,-32.75 4465.76,-25.75"/>
</g>
<!-- nodo18 -->
<g id="node18" class="node">
<title>nodo18</title>
<polygon fill="none" stroke="black" points="4755,-0.5 4755,-58 4998.75,-58 4998.75,-0.5 4755,-0.5"/>
<text text-anchor="middle" x="4764.88" y="-24.2" font-family="Times New Roman,serif" font-size="14.00"> </text>
<polyline fill="none" stroke="black" points="4774.75,-0.5 4774.75,-58"/>
<text text-anchor="middle" x="4876.88" y="-40.7" font-family="Times New Roman,serif" font-size="14.00">IPC&#45;018</text>
<text text-anchor="middle" x="4876.88" y="-24.2" font-family="Times New Roman,serif" font-size="14.00">Nombre: Sofía Martínez</text>
<text text-anchor="middle" x="4876.88" y="-7.7" font-family="Times New Roman,serif" font-size="14.00">Correo: sofía.martínez@mail.com</text>
<polyline fill="none" stroke="black" points="4979,-0.5 4979,-58"/>
<text text-anchor="middle" x="4988.88" y="-24.2" font-family="Times New Roman,serif" font-size="14.00"> </text>
</g>
<!-- nodo17&#45;&gt;nodo18 -->
<g id="edge33" class="edge">
<title>nodo17:f2&#45;&gt;nodo18:f1</title>
<path fill="none" stroke="black" d="M4719,-29.25C4730.38,-29.25 4735.68,-29.25 4743.55,-29.25"/>
<polygon fill="black" stroke="black" points="4743.49,-32.75 4753.49,-29.25 4743.49,-25.75 4743.49,-32.75"/>
</g>
<!-- nodo18&#45;&gt;nodo17 -->
<g id="edge34" class="edge">
<title>nodo18:f1&#45;&gt;nodo17:f2</title>
<path fill="none" stroke="black" d="M4755,-29.25C4743.62,-29.25 4738.32,-29.25 4730.45,-29.25"/>
<polygon fill="black" stroke="black" points="4730.51,-25.75 4720.51,-29.25 4730.51,-32.75 4730.51,-25.75"/>
</g>
<!-- nodo19 -->
<g id="node19" class="node">
<title>nodo19</title>
<polygon fill="none" stroke="black" points="5034.75,-0.5 5034.75,-58 5271,-58 5271,-0.5 5034.75,-0.5"/>
<text text-anchor="middle" x="5044.62" y="-24.2" font-family="Times New Roman,serif" font-size="14.00"> </text>
<polyline fill="none" stroke="black" points="5054.5,-0.5 5054.5,-58"/>
<text text-anchor="middle" x="5152.88" y="-40.7" font-family="Times New Roman,serif" font-size="14.00">IPC&#45;019</text>
<text text-anchor="middle" x="5152.88" y="-24.2" font-family="Times New Roman,serif" font-size="14.00">Nombre: Ana Martínez</text>
<text text-anchor="middle" x="5152.88" y="-7.7" font-family="Times New Roman,serif" font-size="14.00">Correo: ana.martínez@mail.com</text>
<polyline fill="none" stroke="black" points="5251.25,-0.5 5251.25,-58"/>
<text text-anchor="middle" x="5261.12" y="-24.2" font-family="Times New Roman,serif" font-size="14.00"> </text>
</g>
<!-- nodo18&#45;&gt;nodo19 -->
<g id="edge35" class="edge">
<title>nodo18:f2&#45;&gt;nodo19:f1</title>
<path fill="none" stroke="black" d="M4998.75,-29.25C5010.12,-29.25 5015.43,-29.25 5023.3,-29.25"/>
<polygon fill="black" stroke="black" points="5023.24,-32.75 5033.24,-29.25 5023.24,-25.75 5023.24,-32.75"/>
</g>
<!-- nodo19&#45;&gt;nodo18 -->
<g id="edge36" class="edge">
<title>nodo19:f1&#45;&gt;nodo18:f2</title>
<path fill="none" stroke="black" d="M5034.75,-29.25C5023.38,-29.25 5018.07,-29.25 5010.2,-29.25"/>
<polygon fill="black" stroke="black" points="5010.26,-25.75 5000.26,-29.25 5010.26,-32.75 5010.26,-25.75"/>
</g>
<!-- nodo20 -->
<g id="node20" class="node">
<title>nodo20</title>
<polygon fill="none" stroke="black" points="5307,-0.5 5307,-58 5535.75,-58 5535.75,-0.5 5307,-0.5"/>
<text text-anchor="middle" x="5316.88" y="-24.2" font-family="Times New Roman,serif" font-size="14.00"> </text>
<polyline fill="none" stroke="black" points="5326.75,-0.5 5326.75,-58"/>
<text text-anchor="middle" x="5421.38" y="-40.7" font-family="Times New Roman,serif" font-size="14.00">IPC&#45;020</text>
<text text-anchor="middle" x="5421.38" y="-24.2" font-family="Times New Roman,serif" font-size="14.00">Nombre: Diego López</text>
<text text-anchor="middle" x="5421.38" y="-7.7" font-family="Times New Roman,serif" font-size="14.00">Correo: diego.lópez@mail.com</text>
<polyline fill="none" stroke="black" points="5516,-0.5 5516,-58"/>
<text text-anchor="middle" x="5525.88" y="-24.2" font-family="Times New Roman,serif" font-size="14.00"> </text>
</g>
<!-- nodo19&#45;&gt;nodo20 -->
<g id="edge37" class="edge">
<title>nodo19:f2&#45;&gt;nodo20:f1</title>
<path fill="none" stroke="black" d="M5271,-29.25C5282.38,-29.25 5287.68,-29.25 5295.55,-29.25"/>
<polygon fill="black" stroke="black" points="5295.49,-32.75 5305.49,-29.25 5295.49,-25.75 5295.49,-32.75"/>
</g>
<!-- nodo20&#45;&gt;nodo19 -->
<g id="edge38" class="edge">
<title>nodo20:f1&#45;&gt;nodo19:f2</title>
<path fill="none" stroke="black" d="M5307,-29.25C5295.62,-29.25 5290.32,-29.25 5282.45,-29.25"/>
<polygon fill="black" stroke="black" points="5282.51,-25.75 5272.51,-29.25 5282.51,-32.75 5282.51,-25.75"/>
</g>
<!-- nodo21 -->
<g id="node21" class="node">
<title>nodo21</title>
<polygon fill="none" stroke="black" points="5571.75,-0.5 5571.75,-58 5796.75,-58 5796.75,-0.5 5571.75,-0.5"/>
<text text-anchor="middle" x="5581.62" y="-24.2" font-family="Times New Roman,serif" font-size="14.00"> </text>
<polyline fill="none" stroke="black" points="5591.5,-0.5 5591.5,-58"/>
<text text-anchor="middle" x="5684.25" y="-40.7" font-family="Times New Roman,serif" font-size="14.00">IPC&#45;021</text>
<text text-anchor="middle" x="5684.25" y="-24.2" font-family="Times New Roman,serif" font-size="14.00">Nombre: Ana Gómez</text>
<text text-anchor="middle" x="5684.25" y="-7.7" font-family="Times New Roman,serif" font-size="14.00">Correo: ana.gómez@mail.com</text>
<polyline fill="none" stroke="black" points="5777,-0.5 5777,-58"/>
<text text-anchor="middle" x="5786.88" y="-24.2" font-family="Times New Roman,serif" font-size="14.00"> </text>
</g>
<!-- nodo20&#45;&gt;nodo21 -->
<g id="edge39" class="edge">
<title>nodo20:f2&#45;&gt;nodo21:f1</title>
<path fill="none" stroke="black" d="M5535.75,-29.25C5547.12,-29.25 5552.43,-29.25 5560.3,-29.25"/>
<polygon fill="black" stroke="black" points="5560.24,-32.75 5570.24,-29.25 5560.24,-25.75 5560.24,-32.75"/>
</g>
<!-- nodo21&#45;&gt;nodo20 -->
<g id="edge40" class="edge">
<title>nodo21:f1&#45;&gt;nodo20:f2</title>
<path fill="none" stroke="black" d="M5571.75,-29.25C5560.38,-29.25 5555.07,-29.25 5547.2,-29.25"/>
<polygon fill="black" stroke="black" points="5547.26,-25.75 5537.26,-29.25 5547.26,-32.75 5547.26,-25.75"/>
</g>
<!-- nodo22 -->
<g id="node22" class="node">
<title>nodo22</title>
<polygon fill="none" stroke="black" points="5832.75,-0.5 5832.75,-58 6092.25,-58 6092.25,-0.5 5832.75,-0.5"/>
<text text-anchor="middle" x="5842.62" y="-24.2" font-family="Times New Roman,serif" font-size="14.00"> </text>
<polyline fill="none" stroke="black" points="5852.5,-0.5 5852.5,-58"/>
<text text-anchor="middle" x="5962.5" y="-40.7" font-family="Times New Roman,serif" font-size="14.00">IPC&#45;022</text>
<text text-anchor="middle" x="5962.5" y="-24.2" font-family="Times New Roman,serif" font-size="14.00">Nombre: Sofía Ramírez</text>
<text text-anchor="middle" x="5962.5" y="-7.7" font-family="Times New Roman,serif" font-size="14.00">Correo: sofía.ramírez@example.com</text>
<polyline fill="none" stroke="black" points="6072.5,-0.5 6072.5,-58"/>
<text text-anchor="middle" x="6082.38" y="-24.2" font-family="Times New Roman,serif" font-size="14.00"> </text>
</g>
<!-- nodo21&#45;&gt;nodo22 -->
<g id="edge41" class="edge">
<title>nodo21:f2&#45;&gt;nodo22:f1</title>
<path fill="none" stroke="black" d="M5796.75,-29.25C5808.12,-29.25 5813.43,-29.25 5821.3,-29.25"/>
<polygon fill="black" stroke="black" points="5821.24,-32.75 5831.24,-29.25 5821.24,-25.75 5821.24,-32.75"/>
</g>
<!-- nodo22&#45;&gt;nodo21 -->
<g id="edge42" class="edge">
<title>nodo22:f1&#45;&gt;nodo21:f2</title>
<path fill="none" stroke="black" d="M5832.75,-29.25C5821.38,-29.25 5816.07,-29.25 5808.2,-29.25"/>
<polygon fill="black" stroke="black" points="5808.26,-25.75 5798.26,-29.25 5808.26,-32.75 5808.26,-25.75"/>
</g>
<!-- nodo23 -->
<g id="node23" class="node">
<title>nodo23</title>
<polygon fill="none" stroke="black" points="6128.25,-0.5 6128.25,-58 6359.25,-58 6359.25,-0.5 6128.25,-0.5"/>
<text text-anchor="middle" x="6138.12" y="-24.2" font-family="Times New Roman,serif" font-size="14.00"> </text>
<polyline fill="none" stroke="black" points="6148,-0.5 6148,-58"/>
<text text-anchor="middle" x="6243.75" y="-40.7" font-family="Times New Roman,serif" font-size="14.00">IPC&#45;023</text>
<text text-anchor="middle" x="6243.75" y="-24.2" font-family="Times New Roman,serif" font-size="14.00">Nombre: Ana Ruiz</text>
<text text-anchor="middle" x="6243.75" y="-7.7" font-family="Times New Roman,serif" font-size="14.00">Correo: ana.ruiz@example.com</text>
<polyline fill="none" stroke="black" points="6339.5,-0.5 6339.5,-58"/>
<text text-anchor="middle" x="6349.38" y="-24.2" font-family="Times New Roman,serif" font-size="14.00"> </text>
</g>
<!-- nodo22&#45;&gt;nodo23 -->
<g id="edge43" class="edge">
<title>nodo22:f2&#45;&gt;nodo23:f1</title>
<path fill="none" stroke="black" d="M6092.25,-29.25C6103.62,-29.25 6108.93,-29.25 6116.8,-29.25"/>
<polygon fill="black" stroke="black" points="6116.74,-32.75 6126.74,-29.25 6116.74,-25.75 6116.74,-32.75"/>
</g>
<!-- nodo23&#45;&gt;nodo22 -->
<g id="edge44" class="edge">
<title>nodo23:f1&#45;&gt;nodo22:f2</title>
<path fill="none" stroke="black" d="M6128.25,-29.25C6116.88,-29.25 6111.57,-29.25 6103.7,-29.25"/>
<polygon fill="black" stroke="black" points="6103.76,-25.75 6093.76,-29.25 6103.76,-32.75 6103.76,-25.75"/>
</g>
<!-- nodo24 -->
<g id="node24" class="node">
<title>nodo24</title>
<polygon fill="none" stroke="black" points="6395.25,-0.5 6395.25,-58 6621,-58 6621,-0.5 6395.25,-0.5"/>
<text text-anchor="middle" x="6405.12" y="-24.2" font-family="Times New Roman,serif" font-size="14.00"> </text>
<polyline fill="none" stroke="black" points="6415,-0.5 6415,-58"/>
<text text-anchor="middle" x="6508.12" y="-40.7" font-family="Times New Roman,serif" font-size="14.00">IPC&#45;024</text>
<text text-anchor="middle" x="6508.12" y="-24.2" font-family="Times New Roman,serif" font-size="14.00">Nombre: Luis Gómez</text>
<text text-anchor="middle" x="6508.12" y="-7.7" font-family="Times New Roman,serif" font-size="14.00">Correo: luis.gómez@mail.com</text>
<polyline fill="none" stroke="black" points="6601.25,-0.5 6601.25,-58"/>
<text text-anchor="middle" x="6611.12" y="-24.2" font-family="Times New Roman,serif" font-size="14.00"> </text>
</g>
<!-- nodo23&#45;&gt;nodo24 -->
<g id="edge45" class="edge">
<title>nodo23:f2&#45;&gt;nodo24:f1</title>
<path fill="none" stroke="black" d="M6359.25,-29.25C6370.62,-29.25 6375.93,-29.25 6383.8,-29.25"/>
<polygon fill="black" stroke="black" points="6383.74,-32.75 6393.74,-29.25 6383.74,-25.75 6383.74,-32.75"/>
</g>
<!-- nodo24&#45;&gt;nodo23 -->
<g id="edge46" class="edge">
<title>nodo24:f1&#45;&gt;nodo23:f2</title>
<path fill="none" stroke="black" d="M6395.25,-29.25C6383.88,-29.25 6378.57,-29.25 6370.7,-29.25"/>
<polygon fill="black" stroke="black" points="6370.76,-25.75 6360.76,-29.25 6370.76,-32.75 6370.76,-25.75"/>
</g>
<!-- nodo25 -->
<g id="node25" class="node">
<title>nodo25</title>
<polygon fill="none" stroke="black" points="6657,-0.5 6657,-58 6906,-58 6906,-0.5 6657,-0.5"/>
<text text-anchor="middle" x="6666.88" y="-24.2" font-family="Times New Roman,serif" font-size="14.00"> </text>
<polyline fill="none" stroke="black" points="6676.75,-0.5 6676.75,-58"/>
<text text-anchor="middle" x="6781.5" y="-40.7" font-family="Times New Roman,serif" font-size="14.00">IPC&#45;025</text>
<text text-anchor="middle" x="6781.5" y="-24.2" font-family="Times New Roman,serif" font-size="14.00">Nombre: María Martínez</text>
<text text-anchor="middle" x="6781.5" y="-7.7" font-family="Times New Roman,serif" font-size="14.00">Correo: maría.martínez@mail.com</text>
<polyline fill="none" stroke="black" points="6886.25,-0.5 6886.25,-58"/>
<text text-anchor="middle" x="6896.12" y="-24.2" font-family="Times New Roman,serif" font-size="14.00"> </text>
</g>
<!-- nodo24&#45;&gt;nodo25 -->
<g id="edge47" class="edge">
<title>nodo24:f2&#45;&gt;nodo25:f1</title>
<path fill="none" stroke="black" d="M6621,-29.25C6632.38,-29.25 6637.68,-29.25 6645.55,-29.25"/>
<polygon fill="black" stroke="black" points="6645.49,-32.75 6655.49,-29.25 6645.49,-25.75 6645.49,-32.75"/>
</g>
<!-- nodo25&#45;&gt;nodo24 -->
<g id="edge48" class="edge">
<title>nodo25:f1&#45;&gt;nodo24:f2</title>
<path fill="none" stroke="black" d="M6657,-29.25C6645.62,-29.25 6640.32,-29.25 6632.45,-29.25"/>
<polygon fill="black" stroke="black" points="6632.51,-25.75 6622.51,-29.25 6632.51,-32.75 6632.51,-25.75"/>
</g>
<!-- nodo26 -->
<g id="node26" class="node">
<title>nodo26</title>
<polygon fill="none" stroke="black" points="6942,-0.5 6942,-58 7167,-58 7167,-0.5 6942,-0.5"/>
<text text-anchor="middle" x="6951.88" y="-24.2" font-family="Times New Roman,serif" font-size="14.00"> </text>
<polyline fill="none" stroke="black" points="6961.75,-0.5 6961.75,-58"/>
<text text-anchor="middle" x="7054.5" y="-40.7" font-family="Times New Roman,serif" font-size="14.00">IPC&#45;026</text>
<text text-anchor="middle" x="7054.5" y="-24.2" font-family="Times New Roman,serif" font-size="14.00">Nombre: Ana Gómez</text>
<text text-anchor="middle" x="7054.5" y="-7.7" font-family="Times New Roman,serif" font-size="14.00">Correo: ana.gómez@mail.com</text>
<polyline fill="none" stroke="black" points="7147.25,-0.5 7147.25,-58"/>
<text text-anchor="middle" x="7157.12" y="-24.2" font-family="Times New Roman,serif" font-size="14.00"> </text>
</g>
<!-- nodo25&#45;&gt;nodo26 -->
<g id="edge49" class="edge">
<title>nodo25:f2&#45;&gt;nodo26:f1</title>
<path fill="none" stroke="black" d="M6906,-29.25C6917.38,-29.25 6922.68,-29.25 6930.55,-29.25"/>
<polygon fill="black" stroke="black" points="6930.49,-32.75 6940.49,-29.25 6930.49,-25.75 6930.49,-32.75"/>
</g>
<!-- nodo26&#45;&gt;nodo25 -->
<g id="edge50" class="edge">
<title>nodo26:f1&#45;&gt;nodo25:f2</title>
<path fill="none" stroke="black" d="M6942,-29.25C6930.62,-29.25 6925.32,-29.25 6917.45,-29.25"/>
<polygon fill="black" stroke="black" points="6917.51,-25.75 6907.51,-29.25 6917.51,-32.75 6917.51,-25.75"/>
</g>
<!-- nodo27 -->
<g id="node27" class="node">
<title>nodo27</title>
<polygon fill="none" stroke="black" points="7203,-0.5 7203,-58 7443,-58 7443,-0.5 7203,-0.5"/>
<text text-anchor="middle" x="7212.88" y="-24.2" font-family="Times New Roman,serif" font-size="14.00"> </text>
<polyline fill="none" stroke="black" points="7222.75,-0.5 7222.75,-58"/>
<text text-anchor="middle" x="7323" y="-40.7" font-family="Times New Roman,serif" font-size="14.00">IPC&#45;027</text>
<text text-anchor="middle" x="7323" y="-24.2" font-family="Times New Roman,serif" font-size="14.00">Nombre: Ana Ramírez</text>
<text text-anchor="middle" x="7323" y="-7.7" font-family="Times New Roman,serif" font-size="14.00">Correo: ana.ramírez@correo.com</text>
<polyline fill="none" stroke="black" points="7423.25,-0.5 7423.25,-58"/>
<text text-anchor="middle" x="7433.12" y="-24.2" font-family="Times New Roman,serif" font-size="14.00"> </text>
</g>
<!-- nodo26&#45;&gt;nodo27 -->
<g id="edge51" class="edge">
<title>nodo26:f2&#45;&gt;nodo27:f1</title>
<path fill="none" stroke="black" d="M7167,-29.25C7178.38,-29.25 7183.68,-29.25 7191.55,-29.25"/>
<polygon fill="black" stroke="black" points="7191.49,-32.75 7201.49,-29.25 7191.49,-25.75 7191.49,-32.75"/>
</g>
<!-- nodo27&#45;&gt;nodo26 -->
<g id="edge52" class="edge">
<title>nodo27:f1&#45;&gt;nodo26:f2</title>
<path fill="none" stroke="black" d="M7203,-29.25C7191.62,-29.25 7186.32,-29.25 7178.45,-29.25"/>
<polygon fill="black" stroke="black" points="7178.51,-25.75 7168.51,-29.25 7178.51,-32.75 7178.51,-25.75"/>
</g>
<!-- nodo28 -->
<g id="node28" class="node">
<title>nodo28</title>
<polygon fill="none" stroke="black" points="7479,-0.5 7479,-58 7706.25,-58 7706.25,-0.5 7479,-0.5"/>
<text text-anchor="middle" x="7488.88" y="-24.2" font-family="Times New Roman,serif" font-size="14.00"> </text>
<polyline fill="none" stroke="black" points="7498.75,-0.5 7498.75,-58"/>
<text text-anchor="middle" x="7592.62" y="-40.7" font-family="Times New Roman,serif" font-size="14.00">IPC&#45;028</text>
<text text-anchor="middle" x="7592.62" y="-24.2" font-family="Times New Roman,serif" font-size="14.00">Nombre: Ana Castillo</text>
<text text-anchor="middle" x="7592.62" y="-7.7" font-family="Times New Roman,serif" font-size="14.00">Correo: ana.castillo@mail.com</text>
<polyline fill="none" stroke="black" points="7686.5,-0.5 7686.5,-58"/>
<text text-anchor="middle" x="7696.38" y="-24.2" font-family="Times New Roman,serif" font-size="14.00"> </text>
</g>
<!-- nodo27&#45;&gt;nodo28 -->
<g id="edge53" class="edge">
<title>nodo27:f2&#45;&gt;nodo28:f1</title>
<path fill="none" stroke="black" d="M7443,-29.25C7454.38,-29.25 7459.68,-29.25 7467.55,-29.25"/>
<polygon fill="black" stroke="black" points="7467.49,-32.75 7477.49,-29.25 7467.49,-25.75 7467.49,-32.75"/>
</g>
<!-- nodo28&#45;&gt;nodo27 -->
<g id="edge54" class="edge">
<title>nodo28:f1&#45;&gt;nodo27:f2</title>
<path fill="none" stroke="black" d="M7479,-29.25C7467.62,-29.25 7462.32,-29.25 7454.45,-29.25"/>
<polygon fill="black" stroke="black" points="7454.51,-25.75 7444.51,-29.25 7454.51,-32.75 7454.51,-25.75"/>
</g>
<!-- nodo29 -->
<g id="node29" class="node">
<title>nodo29</title>
<polygon fill="none" stroke="black" points="7742.25,-0.5 7742.25,-58 7986,-58 7986,-0.5 7742.25,-0.5"/>
<text text-anchor="middle" x="7752.12" y="-24.2" font-family="Times New Roman,serif" font-size="14.00"> </text>
<polyline fill="none" stroke="black" points="7762,-0.5 7762,-58"/>
<text text-anchor="middle" x="7864.12" y="-40.7" font-family="Times New Roman,serif" font-size="14.00">IPC&#45;029</text>
<text text-anchor="middle" x="7864.12" y="-24.2" font-family="Times New Roman,serif" font-size="14.00">Nombre: Juan Pérez</text>
<text text-anchor="middle" x="7864.12" y="-7.7" font-family="Times New Roman,serif" font-size="14.00">Correo: juan.pérez@example.com</text>
<polyline fill="none" stroke="black" points="7966.25,-0.5 7966.25,-58"/>
<text text-anchor="middle" x="7976.12" y="-24.2" font-family="Times New Roman,serif" font-size="14.00"> </text>
</g>
<!-- nodo28&#45;&gt;nodo29 -->
<g id="edge55" class="edge">
<title>nodo28:f2&#45;&gt;nodo29:f1</title>
<path fill="none" stroke="black" d="M7706.25,-29.25C7717.62,-29.25 7722.93,-29.25 7730.8,-29.25"/>
<polygon fill="black" stroke="black" points="7730.74,-32.75 7740.74,-29.25 7730.74,-25.75 7730.74,-32.75"/>
</g>
<!-- nodo29&#45;&gt;nodo28 -->
<g id="edge56" class="edge">
<title>nodo29:f1&#45;&gt;nodo28:f2</title>
<path fill="none" stroke="black" d="M7742.25,-29.25C7730.88,-29.25 7725.57,-29.25 7717.7,-29.25"/>
<polygon fill="black" stroke="black" points="7717.76,-25.75 7707.76,-29.25 7717.76,-32.75 7717.76,-25.75"/>
</g>
<!-- nodo30 -->
<g id="node30" class="node">
<title>nodo30</title>
<polygon fill="none" stroke="black" points="8022,-0.5 8022,-58 8270.25,-58 8270.25,-0.5 8022,-0.5"/>
<text text-anchor="middle" x="8031.88" y="-24.2" font-family="Times New Roman,serif" font-size="14.00"> </text>
<polyline fill="none" stroke="black" points="8041.75,-0.5 8041.75,-58"/>
<text text-anchor="middle" x="8146.12" y="-40.7" font-family="Times New Roman,serif" font-size="14.00">IPC&#45;030</text>
<text text-anchor="middle" x="8146.12" y="-24.2" font-family="Times New Roman,serif" font-size="14.00">Nombre: Juan Hernández</text>
<text text-anchor="middle" x="8146.12" y="-7.7" font-family="Times New Roman,serif" font-size="14.00">Correo: juan.hernández@mail.com</text>
<polyline fill="none" stroke="black" points="8250.5,-0.5 8250.5,-58"/>
<text text-anchor="middle" x="8260.38" y="-24.2" font-family="Times New Roman,serif" font-size="14.00"> </text>
</g>
<!-- nodo29&#45;&gt;nodo30 -->
<g id="edge57" class="edge">
<title>nodo29:f2&#45;&gt;nodo30:f1</title>
<path fill="none" stroke="black" d="M7986,-29.25C7997.38,-29.25 8002.68,-29.25 8010.55,-29.25"/>
<polygon fill="black" stroke="black" points="8010.49,-32.75 8020.49,-29.25 8010.49,-25.75 8010.49,-32.75"/>
</g>
<!-- nodo30&#45;&gt;nodo29 -->
<g id="edge58" class="edge">
<title>nodo30:f1&#45;&gt;nodo29:f2</title>
<path fill="none" stroke="black" d="M8022,-29.25C8010.62,-29.25 8005.32,-29.25 7997.45,-29.25"/>
<polygon fill="black" stroke="black" points="7997.51,-25.75 7987.51,-29.25 7997.51,-32.75 7997.51,-25.75"/>
</g>
</g>
</svg>
