<?xml version="1.0" encoding="UTF-8" standalone="no"?>
<!DOCTYPE svg PUBLIC "-//W3C//DTD SVG 1.1//EN"
 "http://www.w3.org/Graphics/SVG/1.1/DTD/svg11.dtd">
<!-- Generated by graphviz version 12.1.2 (20240928.0832)
 -->
<!-- Title: MatrizDispersa Pages: 1 -->
<svg width="584pt" height="764pt"
 viewBox="0.00 0.00 584.00 764.00" xmlns="http://www.w3.org/2000/svg" xmlns:xlink="http://www.w3.org/1999/xlink">
<g id="graph0" class="graph" transform="scale(1 1) rotate(0) translate(4 760)">
<title>MatrizDispersa</title>
<polygon fill="white" stroke="none" points="-4,4 -4,-760 580,-760 580,4 -4,4"/>
<!-- nodo_0_0 -->
<!-- nodo_0_1 -->
<!-- nodo_0_0&#45;&gt;nodo_0_1 -->
<!-- nodo_1_0 -->
<!-- nodo_0_0&#45;&gt;nodo_1_0 -->
<!-- nodo_0_2 -->
<!-- nodo_0_1&#45;&gt;nodo_0_2 -->
<!-- nodo_1_1 -->
<!-- nodo_0_1&#45;&gt;nodo_1_1 -->
<!-- nodo_0_3 -->
<!-- nodo_0_2&#45;&gt;nodo_0_3 -->
<!-- nodo_1_2 -->
<!-- nodo_0_2&#45;&gt;nodo_1_2 -->
<!-- nodo_0_4 -->
<!-- nodo_0_3&#45;&gt;nodo_0_4 -->
<!-- nodo_1_3 -->
<g id="node15" class="node">
<title>nodo_1_3</title>
<polygon fill="#000000" stroke="black" points="198,-684 162,-684 162,-648 198,-648 198,-684"/>
</g>
<!-- nodo_0_3&#45;&gt;nodo_1_3 -->
<!-- nodo_0_5 -->
<!-- nodo_0_4&#45;&gt;nodo_0_5 -->
<!-- nodo_1_4 -->
<g id="node16" class="node">
<title>nodo_1_4</title>
<polygon fill="#000000" stroke="black" points="252,-684 216,-684 216,-648 252,-648 252,-684"/>
</g>
<!-- nodo_0_4&#45;&gt;nodo_1_4 -->
<!-- nodo_0_6 -->
<!-- nodo_0_5&#45;&gt;nodo_0_6 -->
<!-- nodo_1_5 -->
<g id="node17" class="node">
<title>nodo_1_5</title>
<polygon fill="#000000" stroke="black" points="306,-684 270,-684 270,-648 306,-648 306,-684"/>
</g>
<!-- nodo_0_5&#45;&gt;nodo_1_5 -->
<!-- nodo_0_7 -->
<!-- nodo_0_6&#45;&gt;nodo_0_7 -->
<!-- nodo_1_6 -->
<g id="node18" class="node">
<title>nodo_1_6</title>
<polygon fill="#000000" stroke="black" points="360,-684 324,-684 324,-648 360,-648 360,-684"/>
</g>
<!-- nodo_0_6&#45;&gt;nodo_1_6 -->
<!-- nodo_0_8 -->
<!-- nodo_0_7&#45;&gt;nodo_0_8 -->
<!-- nodo_1_7 -->
<g id="node19" class="node">
<title>nodo_1_7</title>
<polygon fill="#000000" stroke="black" points="414,-684 378,-684 378,-648 414,-648 414,-684"/>
</g>
<!-- nodo_0_7&#45;&gt;nodo_1_7 -->
<!-- nodo_0_9 -->
<!-- nodo_0_8&#45;&gt;nodo_0_9 -->
<!-- nodo_1_8 -->
<!-- nodo_0_8&#45;&gt;nodo_1_8 -->
<!-- nodo_0_10 -->
<!-- nodo_0_9&#45;&gt;nodo_0_10 -->
<!-- nodo_1_9 -->
<!-- nodo_0_9&#45;&gt;nodo_1_9 -->
<!-- nodo_1_10 -->
<!-- nodo_0_10&#45;&gt;nodo_1_10 -->
<!-- nodo_1_0&#45;&gt;nodo_1_1 -->
<!-- nodo_2_0 -->
<!-- nodo_1_0&#45;&gt;nodo_2_0 -->
<!-- nodo_1_1&#45;&gt;nodo_1_2 -->
<!-- nodo_2_1 -->
<!-- nodo_1_1&#45;&gt;nodo_2_1 -->
<!-- nodo_1_2&#45;&gt;nodo_1_3 -->
<!-- nodo_2_2 -->
<g id="node25" class="node">
<title>nodo_2_2</title>
<polygon fill="#000000" stroke="black" points="144,-612 108,-612 108,-576 144,-576 144,-612"/>
</g>
<!-- nodo_1_2&#45;&gt;nodo_2_2 -->
<!-- nodo_1_3&#45;&gt;nodo_1_4 -->
<!-- nodo_2_3 -->
<g id="node26" class="node">
<title>nodo_2_3</title>
<polygon fill="#ff0000" stroke="black" points="198,-612 162,-612 162,-576 198,-576 198,-612"/>
</g>
<!-- nodo_1_3&#45;&gt;nodo_2_3 -->
<!-- nodo_1_4&#45;&gt;nodo_1_5 -->
<!-- nodo_2_4 -->
<g id="node27" class="node">
<title>nodo_2_4</title>
<polygon fill="#ff0000" stroke="black" points="252,-612 216,-612 216,-576 252,-576 252,-612"/>
</g>
<!-- nodo_1_4&#45;&gt;nodo_2_4 -->
<!-- nodo_1_5&#45;&gt;nodo_1_6 -->
<!-- nodo_2_5 -->
<g id="node28" class="node">
<title>nodo_2_5</title>
<polygon fill="#ff0000" stroke="black" points="306,-612 270,-612 270,-576 306,-576 306,-612"/>
</g>
<!-- nodo_1_5&#45;&gt;nodo_2_5 -->
<!-- nodo_1_6&#45;&gt;nodo_1_7 -->
<!-- nodo_2_6 -->
<g id="node29" class="node">
<title>nodo_2_6</title>
<polygon fill="#ff0000" stroke="black" points="360,-612 324,-612 324,-576 360,-576 360,-612"/>
</g>
<!-- nodo_1_6&#45;&gt;nodo_2_6 -->
<!-- nodo_1_7&#45;&gt;nodo_1_8 -->
<!-- nodo_2_7 -->
<g id="node30" class="node">
<title>nodo_2_7</title>
<polygon fill="#000000" stroke="black" points="414,-612 378,-612 378,-576 414,-576 414,-612"/>
</g>
<!-- nodo_1_7&#45;&gt;nodo_2_7 -->
<!-- nodo_1_8&#45;&gt;nodo_1_9 -->
<!-- nodo_2_8 -->
<g id="node31" class="node">
<title>nodo_2_8</title>
<polygon fill="#000000" stroke="black" points="468,-612 432,-612 432,-576 468,-576 468,-612"/>
</g>
<!-- nodo_1_8&#45;&gt;nodo_2_8 -->
<!-- nodo_1_9&#45;&gt;nodo_1_10 -->
<!-- nodo_2_9 -->
<!-- nodo_1_9&#45;&gt;nodo_2_9 -->
<!-- nodo_2_10 -->
<!-- nodo_1_10&#45;&gt;nodo_2_10 -->
<!-- nodo_2_0&#45;&gt;nodo_2_1 -->
<!-- nodo_3_0 -->
<!-- nodo_2_0&#45;&gt;nodo_3_0 -->
<!-- nodo_2_1&#45;&gt;nodo_2_2 -->
<!-- nodo_3_1 -->
<g id="node35" class="node">
<title>nodo_3_1</title>
<polygon fill="#000000" stroke="black" points="90,-540 54,-540 54,-504 90,-504 90,-540"/>
</g>
<!-- nodo_2_1&#45;&gt;nodo_3_1 -->
<!-- nodo_2_2&#45;&gt;nodo_2_3 -->
<!-- nodo_3_2 -->
<g id="node36" class="node">
<title>nodo_3_2</title>
<polygon fill="#000000" stroke="black" points="144,-540 108,-540 108,-504 144,-504 144,-540"/>
</g>
<!-- nodo_2_2&#45;&gt;nodo_3_2 -->
<!-- nodo_2_3&#45;&gt;nodo_2_4 -->
<!-- nodo_3_3 -->
<g id="node37" class="node">
<title>nodo_3_3</title>
<polygon fill="#000000" stroke="black" points="198,-540 162,-540 162,-504 198,-504 198,-540"/>
</g>
<!-- nodo_2_3&#45;&gt;nodo_3_3 -->
<!-- nodo_2_4&#45;&gt;nodo_2_5 -->
<!-- nodo_3_4 -->
<g id="node38" class="node">
<title>nodo_3_4</title>
<polygon fill="#000000" stroke="black" points="252,-540 216,-540 216,-504 252,-504 252,-540"/>
</g>
<!-- nodo_2_4&#45;&gt;nodo_3_4 -->
<!-- nodo_2_5&#45;&gt;nodo_2_6 -->
<!-- nodo_3_5 -->
<g id="node39" class="node">
<title>nodo_3_5</title>
<polygon fill="#000000" stroke="black" points="306,-540 270,-540 270,-504 306,-504 306,-540"/>
</g>
<!-- nodo_2_5&#45;&gt;nodo_3_5 -->
<!-- nodo_2_6&#45;&gt;nodo_2_7 -->
<!-- nodo_3_6 -->
<g id="node40" class="node">
<title>nodo_3_6</title>
<polygon fill="#ff0000" stroke="black" points="360,-540 324,-540 324,-504 360,-504 360,-540"/>
</g>
<!-- nodo_2_6&#45;&gt;nodo_3_6 -->
<!-- nodo_2_7&#45;&gt;nodo_2_8 -->
<!-- nodo_3_7 -->
<g id="node41" class="node">
<title>nodo_3_7</title>
<polygon fill="#ff0000" stroke="black" points="414,-540 378,-540 378,-504 414,-504 414,-540"/>
</g>
<!-- nodo_2_7&#45;&gt;nodo_3_7 -->
<!-- nodo_2_8&#45;&gt;nodo_2_9 -->
<!-- nodo_3_8 -->
<g id="node42" class="node">
<title>nodo_3_8</title>
<polygon fill="#000000" stroke="black" points="468,-540 432,-540 432,-504 468,-504 468,-540"/>
</g>
<!-- nodo_2_8&#45;&gt;nodo_3_8 -->
<!-- nodo_2_9&#45;&gt;nodo_2_10 -->
<!-- nodo_3_9 -->
<g id="node43" class="node">
<title>nodo_3_9</title>
<polygon fill="#000000" stroke="black" points="522,-540 486,-540 486,-504 522,-504 522,-540"/>
</g>
<!-- nodo_2_9&#45;&gt;nodo_3_9 -->
<!-- nodo_3_10 -->
<g id="node44" class="node">
<title>nodo_3_10</title>
<polygon fill="#000000" stroke="black" points="576,-540 540,-540 540,-504 576,-504 576,-540"/>
</g>
<!-- nodo_2_10&#45;&gt;nodo_3_10 -->
<!-- nodo_3_0&#45;&gt;nodo_3_1 -->
<!-- nodo_4_0 -->
<!-- nodo_3_0&#45;&gt;nodo_4_0 -->
<!-- nodo_3_1&#45;&gt;nodo_3_2 -->
<!-- nodo_4_1 -->
<g id="node46" class="node">
<title>nodo_4_1</title>
<polygon fill="#000000" stroke="black" points="90,-468 54,-468 54,-432 90,-432 90,-468"/>
</g>
<!-- nodo_3_1&#45;&gt;nodo_4_1 -->
<!-- nodo_3_2&#45;&gt;nodo_3_3 -->
<!-- nodo_4_2 -->
<g id="node47" class="node">
<title>nodo_4_2</title>
<polygon fill="#a6c9ec" stroke="black" points="144,-468 108,-468 108,-432 144,-432 144,-468"/>
</g>
<!-- nodo_3_2&#45;&gt;nodo_4_2 -->
<!-- nodo_3_3&#45;&gt;nodo_3_4 -->
<!-- nodo_4_3 -->
<!-- nodo_3_3&#45;&gt;nodo_4_3 -->
<!-- nodo_3_4&#45;&gt;nodo_3_5 -->
<!-- nodo_4_4 -->
<!-- nodo_3_4&#45;&gt;nodo_4_4 -->
<!-- nodo_3_5&#45;&gt;nodo_3_6 -->
<!-- nodo_4_5 -->
<g id="node50" class="node">
<title>nodo_4_5</title>
<polygon fill="#000000" stroke="black" points="306,-468 270,-468 270,-432 306,-432 306,-468"/>
</g>
<!-- nodo_3_5&#45;&gt;nodo_4_5 -->
<!-- nodo_3_6&#45;&gt;nodo_3_7 -->
<!-- nodo_4_6 -->
<g id="node51" class="node">
<title>nodo_4_6</title>
<polygon fill="#ff0000" stroke="black" points="360,-468 324,-468 324,-432 360,-432 360,-468"/>
</g>
<!-- nodo_3_6&#45;&gt;nodo_4_6 -->
<!-- nodo_3_7&#45;&gt;nodo_3_8 -->
<!-- nodo_4_7 -->
<g id="node52" class="node">
<title>nodo_4_7</title>
<polygon fill="#ff0000" stroke="black" points="414,-468 378,-468 378,-432 414,-432 414,-468"/>
</g>
<!-- nodo_3_7&#45;&gt;nodo_4_7 -->
<!-- nodo_3_8&#45;&gt;nodo_3_9 -->
<!-- nodo_4_8 -->
<g id="node53" class="node">
<title>nodo_4_8</title>
<polygon fill="#000000" stroke="black" points="468,-468 432,-468 432,-432 468,-432 468,-468"/>
</g>
<!-- nodo_3_8&#45;&gt;nodo_4_8 -->
<!-- nodo_3_9&#45;&gt;nodo_3_10 -->
<!-- nodo_4_9 -->
<g id="node54" class="node">
<title>nodo_4_9</title>
<polygon fill="#ff0000" stroke="black" points="522,-468 486,-468 486,-432 522,-432 522,-468"/>
</g>
<!-- nodo_3_9&#45;&gt;nodo_4_9 -->
<!-- nodo_4_10 -->
<g id="node55" class="node">
<title>nodo_4_10</title>
<polygon fill="#000000" stroke="black" points="576,-468 540,-468 540,-432 576,-432 576,-468"/>
</g>
<!-- nodo_3_10&#45;&gt;nodo_4_10 -->
<!-- nodo_4_0&#45;&gt;nodo_4_1 -->
<!-- nodo_5_0 -->
<!-- nodo_4_0&#45;&gt;nodo_5_0 -->
<!-- nodo_4_1&#45;&gt;nodo_4_2 -->
<!-- nodo_5_1 -->
<g id="node57" class="node">
<title>nodo_5_1</title>
<polygon fill="#000000" stroke="black" points="90,-396 54,-396 54,-360 90,-360 90,-396"/>
</g>
<!-- nodo_4_1&#45;&gt;nodo_5_1 -->
<!-- nodo_4_2&#45;&gt;nodo_4_3 -->
<!-- nodo_5_2 -->
<g id="node58" class="node">
<title>nodo_5_2</title>
<polygon fill="#a6c9ec" stroke="black" points="144,-396 108,-396 108,-360 144,-360 144,-396"/>
</g>
<!-- nodo_4_2&#45;&gt;nodo_5_2 -->
<!-- nodo_4_3&#45;&gt;nodo_4_4 -->
<!-- nodo_5_3 -->
<g id="node59" class="node">
<title>nodo_5_3</title>
<polygon fill="#a6c9ec" stroke="black" points="198,-396 162,-396 162,-360 198,-360 198,-396"/>
</g>
<!-- nodo_4_3&#45;&gt;nodo_5_3 -->
<!-- nodo_4_4&#45;&gt;nodo_4_5 -->
<!-- nodo_5_4 -->
<g id="node60" class="node">
<title>nodo_5_4</title>
<polygon fill="#a6c9ec" stroke="black" points="252,-396 216,-396 216,-360 252,-360 252,-396"/>
</g>
<!-- nodo_4_4&#45;&gt;nodo_5_4 -->
<!-- nodo_4_5&#45;&gt;nodo_4_6 -->
<!-- nodo_5_5 -->
<g id="node61" class="node">
<title>nodo_5_5</title>
<polygon fill="#000000" stroke="black" points="306,-396 270,-396 270,-360 306,-360 306,-396"/>
</g>
<!-- nodo_4_5&#45;&gt;nodo_5_5 -->
<!-- nodo_4_6&#45;&gt;nodo_4_7 -->
<!-- nodo_5_6 -->
<g id="node62" class="node">
<title>nodo_5_6</title>
<polygon fill="#ff0000" stroke="black" points="360,-396 324,-396 324,-360 360,-360 360,-396"/>
</g>
<!-- nodo_4_6&#45;&gt;nodo_5_6 -->
<!-- nodo_4_7&#45;&gt;nodo_4_8 -->
<!-- nodo_5_7 -->
<g id="node63" class="node">
<title>nodo_5_7</title>
<polygon fill="#ff0000" stroke="black" points="414,-396 378,-396 378,-360 414,-360 414,-396"/>
</g>
<!-- nodo_4_7&#45;&gt;nodo_5_7 -->
<!-- nodo_4_8&#45;&gt;nodo_4_9 -->
<!-- nodo_5_8 -->
<g id="node64" class="node">
<title>nodo_5_8</title>
<polygon fill="#000000" stroke="black" points="468,-396 432,-396 432,-360 468,-360 468,-396"/>
</g>
<!-- nodo_4_8&#45;&gt;nodo_5_8 -->
<!-- nodo_4_9&#45;&gt;nodo_4_10 -->
<!-- nodo_5_9 -->
<g id="node65" class="node">
<title>nodo_5_9</title>
<polygon fill="#ff0000" stroke="black" points="522,-396 486,-396 486,-360 522,-360 522,-396"/>
</g>
<!-- nodo_4_9&#45;&gt;nodo_5_9 -->
<!-- nodo_5_10 -->
<g id="node66" class="node">
<title>nodo_5_10</title>
<polygon fill="#000000" stroke="black" points="576,-396 540,-396 540,-360 576,-360 576,-396"/>
</g>
<!-- nodo_4_10&#45;&gt;nodo_5_10 -->
<!-- nodo_5_0&#45;&gt;nodo_5_1 -->
<!-- nodo_6_0 -->
<!-- nodo_5_0&#45;&gt;nodo_6_0 -->
<!-- nodo_5_1&#45;&gt;nodo_5_2 -->
<!-- nodo_6_1 -->
<g id="node68" class="node">
<title>nodo_6_1</title>
<polygon fill="#000000" stroke="black" points="90,-324 54,-324 54,-288 90,-288 90,-324"/>
</g>
<!-- nodo_5_1&#45;&gt;nodo_6_1 -->
<!-- nodo_5_2&#45;&gt;nodo_5_3 -->
<!-- nodo_6_2 -->
<g id="node69" class="node">
<title>nodo_6_2</title>
<polygon fill="#000000" stroke="black" points="144,-324 108,-324 108,-288 144,-288 144,-324"/>
</g>
<!-- nodo_5_2&#45;&gt;nodo_6_2 -->
<!-- nodo_5_3&#45;&gt;nodo_5_4 -->
<!-- nodo_6_3 -->
<g id="node70" class="node">
<title>nodo_6_3</title>
<polygon fill="#000000" stroke="black" points="198,-324 162,-324 162,-288 198,-288 198,-324"/>
</g>
<!-- nodo_5_3&#45;&gt;nodo_6_3 -->
<!-- nodo_5_4&#45;&gt;nodo_5_5 -->
<!-- nodo_6_4 -->
<g id="node71" class="node">
<title>nodo_6_4</title>
<polygon fill="#000000" stroke="black" points="252,-324 216,-324 216,-288 252,-288 252,-324"/>
</g>
<!-- nodo_5_4&#45;&gt;nodo_6_4 -->
<!-- nodo_5_5&#45;&gt;nodo_5_6 -->
<!-- nodo_6_5 -->
<g id="node72" class="node">
<title>nodo_6_5</title>
<polygon fill="#000000" stroke="black" points="306,-324 270,-324 270,-288 306,-288 306,-324"/>
</g>
<!-- nodo_5_5&#45;&gt;nodo_6_5 -->
<!-- nodo_5_6&#45;&gt;nodo_5_7 -->
<!-- nodo_6_6 -->
<g id="node73" class="node">
<title>nodo_6_6</title>
<polygon fill="#ff0000" stroke="black" points="360,-324 324,-324 324,-288 360,-288 360,-324"/>
</g>
<!-- nodo_5_6&#45;&gt;nodo_6_6 -->
<!-- nodo_5_7&#45;&gt;nodo_5_8 -->
<!-- nodo_6_7 -->
<g id="node74" class="node">
<title>nodo_6_7</title>
<polygon fill="#ff0000" stroke="black" points="414,-324 378,-324 378,-288 414,-288 414,-324"/>
</g>
<!-- nodo_5_7&#45;&gt;nodo_6_7 -->
<!-- nodo_5_8&#45;&gt;nodo_5_9 -->
<!-- nodo_6_8 -->
<g id="node75" class="node">
<title>nodo_6_8</title>
<polygon fill="#000000" stroke="black" points="468,-324 432,-324 432,-288 468,-288 468,-324"/>
</g>
<!-- nodo_5_8&#45;&gt;nodo_6_8 -->
<!-- nodo_5_9&#45;&gt;nodo_5_10 -->
<!-- nodo_6_9 -->
<g id="node76" class="node">
<title>nodo_6_9</title>
<polygon fill="#ff0000" stroke="black" points="522,-324 486,-324 486,-288 522,-288 522,-324"/>
</g>
<!-- nodo_5_9&#45;&gt;nodo_6_9 -->
<!-- nodo_6_10 -->
<g id="node77" class="node">
<title>nodo_6_10</title>
<polygon fill="#000000" stroke="black" points="576,-324 540,-324 540,-288 576,-288 576,-324"/>
</g>
<!-- nodo_5_10&#45;&gt;nodo_6_10 -->
<!-- nodo_6_0&#45;&gt;nodo_6_1 -->
<!-- nodo_7_0 -->
<!-- nodo_6_0&#45;&gt;nodo_7_0 -->
<!-- nodo_6_1&#45;&gt;nodo_6_2 -->
<!-- nodo_7_1 -->
<!-- nodo_6_1&#45;&gt;nodo_7_1 -->
<!-- nodo_6_2&#45;&gt;nodo_6_3 -->
<!-- nodo_7_2 -->
<g id="node80" class="node">
<title>nodo_7_2</title>
<polygon fill="#000000" stroke="black" points="144,-252 108,-252 108,-216 144,-216 144,-252"/>
</g>
<!-- nodo_6_2&#45;&gt;nodo_7_2 -->
<!-- nodo_6_3&#45;&gt;nodo_6_4 -->
<!-- nodo_7_3 -->
<g id="node81" class="node">
<title>nodo_7_3</title>
<polygon fill="#ff0000" stroke="black" points="198,-252 162,-252 162,-216 198,-216 198,-252"/>
</g>
<!-- nodo_6_3&#45;&gt;nodo_7_3 -->
<!-- nodo_6_4&#45;&gt;nodo_6_5 -->
<!-- nodo_7_4 -->
<g id="node82" class="node">
<title>nodo_7_4</title>
<polygon fill="#ff0000" stroke="black" points="252,-252 216,-252 216,-216 252,-216 252,-252"/>
</g>
<!-- nodo_6_4&#45;&gt;nodo_7_4 -->
<!-- nodo_6_5&#45;&gt;nodo_6_6 -->
<!-- nodo_7_5 -->
<g id="node83" class="node">
<title>nodo_7_5</title>
<polygon fill="#ff0000" stroke="black" points="306,-252 270,-252 270,-216 306,-216 306,-252"/>
</g>
<!-- nodo_6_5&#45;&gt;nodo_7_5 -->
<!-- nodo_6_6&#45;&gt;nodo_6_7 -->
<!-- nodo_7_6 -->
<g id="node84" class="node">
<title>nodo_7_6</title>
<polygon fill="#ff0000" stroke="black" points="360,-252 324,-252 324,-216 360,-216 360,-252"/>
</g>
<!-- nodo_6_6&#45;&gt;nodo_7_6 -->
<!-- nodo_6_7&#45;&gt;nodo_6_8 -->
<!-- nodo_7_7 -->
<g id="node85" class="node">
<title>nodo_7_7</title>
<polygon fill="#ff0000" stroke="black" points="414,-252 378,-252 378,-216 414,-216 414,-252"/>
</g>
<!-- nodo_6_7&#45;&gt;nodo_7_7 -->
<!-- nodo_6_8&#45;&gt;nodo_6_9 -->
<!-- nodo_7_8 -->
<g id="node86" class="node">
<title>nodo_7_8</title>
<polygon fill="#000000" stroke="black" points="468,-252 432,-252 432,-216 468,-216 468,-252"/>
</g>
<!-- nodo_6_8&#45;&gt;nodo_7_8 -->
<!-- nodo_6_9&#45;&gt;nodo_6_10 -->
<!-- nodo_7_9 -->
<g id="node87" class="node">
<title>nodo_7_9</title>
<polygon fill="#000000" stroke="black" points="522,-252 486,-252 486,-216 522,-216 522,-252"/>
</g>
<!-- nodo_6_9&#45;&gt;nodo_7_9 -->
<!-- nodo_7_10 -->
<g id="node88" class="node">
<title>nodo_7_10</title>
<polygon fill="#000000" stroke="black" points="576,-252 540,-252 540,-216 576,-216 576,-252"/>
</g>
<!-- nodo_6_10&#45;&gt;nodo_7_10 -->
<!-- nodo_7_0&#45;&gt;nodo_7_1 -->
<!-- nodo_8_0 -->
<!-- nodo_7_0&#45;&gt;nodo_8_0 -->
<!-- nodo_7_1&#45;&gt;nodo_7_2 -->
<!-- nodo_8_1 -->
<!-- nodo_7_1&#45;&gt;nodo_8_1 -->
<!-- nodo_7_2&#45;&gt;nodo_7_3 -->
<!-- nodo_8_2 -->
<g id="node91" class="node">
<title>nodo_8_2</title>
<polygon fill="#000000" stroke="black" points="144,-180 108,-180 108,-144 144,-144 144,-180"/>
</g>
<!-- nodo_7_2&#45;&gt;nodo_8_2 -->
<!-- nodo_7_3&#45;&gt;nodo_7_4 -->
<!-- nodo_8_3 -->
<g id="node92" class="node">
<title>nodo_8_3</title>
<polygon fill="#ff0000" stroke="black" points="198,-180 162,-180 162,-144 198,-144 198,-180"/>
</g>
<!-- nodo_7_3&#45;&gt;nodo_8_3 -->
<!-- nodo_7_4&#45;&gt;nodo_7_5 -->
<!-- nodo_8_4 -->
<g id="node93" class="node">
<title>nodo_8_4</title>
<polygon fill="#000000" stroke="black" points="252,-180 216,-180 216,-144 252,-144 252,-180"/>
</g>
<!-- nodo_7_4&#45;&gt;nodo_8_4 -->
<!-- nodo_7_5&#45;&gt;nodo_7_6 -->
<!-- nodo_8_5 -->
<g id="node94" class="node">
<title>nodo_8_5</title>
<polygon fill="#000000" stroke="black" points="306,-180 270,-180 270,-144 306,-144 306,-180"/>
</g>
<!-- nodo_7_5&#45;&gt;nodo_8_5 -->
<!-- nodo_7_6&#45;&gt;nodo_7_7 -->
<!-- nodo_8_6 -->
<g id="node95" class="node">
<title>nodo_8_6</title>
<polygon fill="#ff0000" stroke="black" points="360,-180 324,-180 324,-144 360,-144 360,-180"/>
</g>
<!-- nodo_7_6&#45;&gt;nodo_8_6 -->
<!-- nodo_7_7&#45;&gt;nodo_7_8 -->
<!-- nodo_8_7 -->
<g id="node96" class="node">
<title>nodo_8_7</title>
<polygon fill="#ff0000" stroke="black" points="414,-180 378,-180 378,-144 414,-144 414,-180"/>
</g>
<!-- nodo_7_7&#45;&gt;nodo_8_7 -->
<!-- nodo_7_8&#45;&gt;nodo_7_9 -->
<!-- nodo_8_8 -->
<g id="node97" class="node">
<title>nodo_8_8</title>
<polygon fill="#000000" stroke="black" points="468,-180 432,-180 432,-144 468,-144 468,-180"/>
</g>
<!-- nodo_7_8&#45;&gt;nodo_8_8 -->
<!-- nodo_7_9&#45;&gt;nodo_7_10 -->
<!-- nodo_8_9 -->
<!-- nodo_7_9&#45;&gt;nodo_8_9 -->
<!-- nodo_8_10 -->
<!-- nodo_7_10&#45;&gt;nodo_8_10 -->
<!-- nodo_8_0&#45;&gt;nodo_8_1 -->
<!-- nodo_9_0 -->
<!-- nodo_8_0&#45;&gt;nodo_9_0 -->
<!-- nodo_8_1&#45;&gt;nodo_8_2 -->
<!-- nodo_9_1 -->
<!-- nodo_8_1&#45;&gt;nodo_9_1 -->
<!-- nodo_8_2&#45;&gt;nodo_8_3 -->
<!-- nodo_9_2 -->
<g id="node102" class="node">
<title>nodo_9_2</title>
<polygon fill="#000000" stroke="black" points="144,-108 108,-108 108,-72 144,-72 144,-108"/>
</g>
<!-- nodo_8_2&#45;&gt;nodo_9_2 -->
<!-- nodo_8_3&#45;&gt;nodo_8_4 -->
<!-- nodo_9_3 -->
<g id="node103" class="node">
<title>nodo_9_3</title>
<polygon fill="#ff0000" stroke="black" points="198,-108 162,-108 162,-72 198,-72 198,-108"/>
</g>
<!-- nodo_8_3&#45;&gt;nodo_9_3 -->
<!-- nodo_8_4&#45;&gt;nodo_8_5 -->
<!-- nodo_9_4 -->
<g id="node104" class="node">
<title>nodo_9_4</title>
<polygon fill="#ff0000" stroke="black" points="252,-108 216,-108 216,-72 252,-72 252,-108"/>
</g>
<!-- nodo_8_4&#45;&gt;nodo_9_4 -->
<!-- nodo_8_5&#45;&gt;nodo_8_6 -->
<!-- nodo_9_5 -->
<g id="node105" class="node">
<title>nodo_9_5</title>
<polygon fill="#000000" stroke="black" points="306,-108 270,-108 270,-72 306,-72 306,-108"/>
</g>
<!-- nodo_8_5&#45;&gt;nodo_9_5 -->
<!-- nodo_8_6&#45;&gt;nodo_8_7 -->
<!-- nodo_9_6 -->
<g id="node106" class="node">
<title>nodo_9_6</title>
<polygon fill="#ff0000" stroke="black" points="360,-108 324,-108 324,-72 360,-72 360,-108"/>
</g>
<!-- nodo_8_6&#45;&gt;nodo_9_6 -->
<!-- nodo_8_7&#45;&gt;nodo_8_8 -->
<!-- nodo_9_7 -->
<g id="node107" class="node">
<title>nodo_9_7</title>
<polygon fill="#ff0000" stroke="black" points="414,-108 378,-108 378,-72 414,-72 414,-108"/>
</g>
<!-- nodo_8_7&#45;&gt;nodo_9_7 -->
<!-- nodo_8_8&#45;&gt;nodo_8_9 -->
<!-- nodo_9_8 -->
<g id="node108" class="node">
<title>nodo_9_8</title>
<polygon fill="#000000" stroke="black" points="468,-108 432,-108 432,-72 468,-72 468,-108"/>
</g>
<!-- nodo_8_8&#45;&gt;nodo_9_8 -->
<!-- nodo_8_9&#45;&gt;nodo_8_10 -->
<!-- nodo_9_9 -->
<!-- nodo_8_9&#45;&gt;nodo_9_9 -->
<!-- nodo_9_10 -->
<!-- nodo_8_10&#45;&gt;nodo_9_10 -->
<!-- nodo_9_0&#45;&gt;nodo_9_1 -->
<!-- nodo_10_0 -->
<!-- nodo_9_0&#45;&gt;nodo_10_0 -->
<!-- nodo_9_1&#45;&gt;nodo_9_2 -->
<!-- nodo_10_1 -->
<!-- nodo_9_1&#45;&gt;nodo_10_1 -->
<!-- nodo_9_2&#45;&gt;nodo_9_3 -->
<!-- nodo_10_2 -->
<g id="node113" class="node">
<title>nodo_10_2</title>
<polygon fill="#000000" stroke="black" points="144,-36 108,-36 108,0 144,0 144,-36"/>
</g>
<!-- nodo_9_2&#45;&gt;nodo_10_2 -->
<!-- nodo_9_3&#45;&gt;nodo_9_4 -->
<!-- nodo_10_3 -->
<g id="node114" class="node">
<title>nodo_10_3</title>
<polygon fill="#000000" stroke="black" points="198,-36 162,-36 162,0 198,0 198,-36"/>
</g>
<!-- nodo_9_3&#45;&gt;nodo_10_3 -->
<!-- nodo_9_4&#45;&gt;nodo_9_5 -->
<!-- nodo_10_4 -->
<g id="node115" class="node">
<title>nodo_10_4</title>
<polygon fill="#000000" stroke="black" points="252,-36 216,-36 216,0 252,0 252,-36"/>
</g>
<!-- nodo_9_4&#45;&gt;nodo_10_4 -->
<!-- nodo_9_5&#45;&gt;nodo_9_6 -->
<!-- nodo_10_5 -->
<g id="node116" class="node">
<title>nodo_10_5</title>
<polygon fill="#000000" stroke="black" points="306,-36 270,-36 270,0 306,0 306,-36"/>
</g>
<!-- nodo_9_5&#45;&gt;nodo_10_5 -->
<!-- nodo_9_6&#45;&gt;nodo_9_7 -->
<!-- nodo_10_6 -->
<g id="node117" class="node">
<title>nodo_10_6</title>
<polygon fill="#000000" stroke="black" points="360,-36 324,-36 324,0 360,0 360,-36"/>
</g>
<!-- nodo_9_6&#45;&gt;nodo_10_6 -->
<!-- nodo_9_7&#45;&gt;nodo_9_8 -->
<!-- nodo_10_7 -->
<g id="node118" class="node">
<title>nodo_10_7</title>
<polygon fill="#000000" stroke="black" points="414,-36 378,-36 378,0 414,0 414,-36"/>
</g>
<!-- nodo_9_7&#45;&gt;nodo_10_7 -->
<!-- nodo_9_8&#45;&gt;nodo_9_9 -->
<!-- nodo_10_8 -->
<g id="node119" class="node">
<title>nodo_10_8</title>
<polygon fill="#000000" stroke="black" points="468,-36 432,-36 432,0 468,0 468,-36"/>
</g>
<!-- nodo_9_8&#45;&gt;nodo_10_8 -->
<!-- nodo_9_9&#45;&gt;nodo_9_10 -->
<!-- nodo_10_9 -->
<!-- nodo_9_9&#45;&gt;nodo_10_9 -->
<!-- nodo_10_10 -->
<!-- nodo_9_10&#45;&gt;nodo_10_10 -->
<!-- nodo_10_0&#45;&gt;nodo_10_1 -->
<!-- nodo_10_1&#45;&gt;nodo_10_2 -->
<!-- nodo_10_2&#45;&gt;nodo_10_3 -->
<!-- nodo_10_3&#45;&gt;nodo_10_4 -->
<!-- nodo_10_4&#45;&gt;nodo_10_5 -->
<!-- nodo_10_5&#45;&gt;nodo_10_6 -->
<!-- nodo_10_6&#45;&gt;nodo_10_7 -->
<!-- nodo_10_7&#45;&gt;nodo_10_8 -->
<!-- nodo_10_8&#45;&gt;nodo_10_9 -->
<!-- nodo_10_9&#45;&gt;nodo_10_10 -->
</g>
</svg>
