<?xml version="1.0" encoding="UTF-8" standalone="no"?>
<!DOCTYPE svg PUBLIC "-//W3C//DTD SVG 1.1//EN"
 "http://www.w3.org/Graphics/SVG/1.1/DTD/svg11.dtd">
<!-- Generated by graphviz version 12.1.2 (20240928.0832)
 -->
<!-- Title: G Pages: 1 -->
<svg width="93pt" height="108pt"
 viewBox="0.00 0.00 93.00 107.50" xmlns="http://www.w3.org/2000/svg" xmlns:xlink="http://www.w3.org/1999/xlink">
<g id="graph0" class="graph" transform="scale(1 1) rotate(0) translate(4 103.5)">
<title>G</title>
<polygon fill="white" stroke="none" points="-4,4 -4,-103.5 89,-103.5 89,4 -4,4"/>
<!-- Pila -->
<g id="node1" class="node">
<title>Pila</title>
<path fill="none" stroke="black" d="M33,-17C33,-17 73,-17 73,-17 79,-17 85,-23 85,-29 85,-29 85,-87 85,-87 85,-93 79,-99 73,-99 73,-99 33,-99 33,-99 27,-99 21,-93 21,-87 21,-87 21,-29 21,-29 21,-23 27,-17 33,-17"/>
<text text-anchor="middle" x="53" y="-81.7" font-family="Times New Roman,serif" font-size="14.00">Rana</text>
<text text-anchor="middle" x="53" y="-65.2" font-family="Times New Roman,serif" font-size="14.00">146 px</text>
<polyline fill="none" stroke="black" points="21,-58 85,-58"/>
<text text-anchor="middle" x="53" y="-40.7" font-family="Times New Roman,serif" font-size="14.00">IronMan</text>
<text text-anchor="middle" x="53" y="-24.2" font-family="Times New Roman,serif" font-size="14.00">199 px</text>
<text text-anchor="middle" x="10.5" y="-3.2" font-family="Times New Roman,serif" font-size="14.00">Pila</text>
</g>
</g>
</svg>
