<?xml version="1.0" encoding="UTF-8" standalone="no"?>
<!DOCTYPE svg PUBLIC "-//W3C//DTD SVG 1.1//EN"
 "http://www.w3.org/Graphics/SVG/1.1/DTD/svg11.dtd">
<!-- Generated by graphviz version 12.1.2 (20240928.0832)
 -->
<!-- Title: G Pages: 1 -->
<svg width="83pt" height="67pt"
 viewBox="0.00 0.00 83.00 66.50" xmlns="http://www.w3.org/2000/svg" xmlns:xlink="http://www.w3.org/1999/xlink">
<g id="graph0" class="graph" transform="scale(1 1) rotate(0) translate(4 62.5)">
<title>G</title>
<polygon fill="white" stroke="none" points="-4,4 -4,-62.5 79,-62.5 79,4 -4,4"/>
<!-- Pila -->
<g id="node1" class="node">
<title>Pila</title>
<path fill="none" stroke="black" d="M33,-17C33,-17 63,-17 63,-17 69,-17 75,-23 75,-29 75,-29 75,-46 75,-46 75,-52 69,-58 63,-58 63,-58 33,-58 33,-58 27,-58 21,-52 21,-46 21,-46 21,-29 21,-29 21,-23 27,-17 33,-17"/>
<text text-anchor="middle" x="48" y="-40.7" font-family="Times New Roman,serif" font-size="14.00">Rana</text>
<text text-anchor="middle" x="48" y="-24.2" font-family="Times New Roman,serif" font-size="14.00">146 px</text>
<text text-anchor="middle" x="10.5" y="-3.2" font-family="Times New Roman,serif" font-size="14.00">Pila</text>
</g>
</g>
</svg>
