<?xml version="1.0" encoding="UTF-8" standalone="no"?>
<!DOCTYPE svg PUBLIC "-//W3C//DTD SVG 1.1//EN"
 "http://www.w3.org/Graphics/SVG/1.1/DTD/svg11.dtd">
<!-- Generated by graphviz version 12.1.2 (20240928.0832)
 -->
<!-- Title: G Pages: 1 -->
<svg width="94pt" height="108pt"
 viewBox="0.00 0.00 93.75 107.50" xmlns="http://www.w3.org/2000/svg" xmlns:xlink="http://www.w3.org/1999/xlink">
<g id="graph0" class="graph" transform="scale(1 1) rotate(0) translate(4 103.5)">
<title>G</title>
<polygon fill="white" stroke="none" points="-4,4 -4,-103.5 89.75,-103.5 89.75,4 -4,4"/>
<!-- Pila -->
<g id="node1" class="node">
<title>Pila</title>
<path fill="none" stroke="black" d="M33,-17C33,-17 73.75,-17 73.75,-17 79.75,-17 85.75,-23 85.75,-29 85.75,-29 85.75,-87 85.75,-87 85.75,-93 79.75,-99 73.75,-99 73.75,-99 33,-99 33,-99 27,-99 21,-93 21,-87 21,-87 21,-29 21,-29 21,-23 27,-17 33,-17"/>
<text text-anchor="middle" x="53.38" y="-81.7" font-family="Times New Roman,serif" font-size="14.00">Capibara</text>
<text text-anchor="middle" x="53.38" y="-65.2" font-family="Times New Roman,serif" font-size="14.00">416 px</text>
<polyline fill="none" stroke="black" points="21,-58 85.75,-58"/>
<text text-anchor="middle" x="53.38" y="-40.7" font-family="Times New Roman,serif" font-size="14.00">IronMan</text>
<text text-anchor="middle" x="53.38" y="-24.2" font-family="Times New Roman,serif" font-size="14.00">199 px</text>
<text text-anchor="middle" x="10.5" y="-3.2" font-family="Times New Roman,serif" font-size="14.00">Pila</text>
</g>
</g>
</svg>
