<?xml version="1.0" encoding="UTF-8" standalone="no"?>
<!DOCTYPE svg PUBLIC "-//W3C//DTD SVG 1.1//EN"
 "http://www.w3.org/Graphics/SVG/1.1/DTD/svg11.dtd">
<!-- Generated by graphviz version 12.1.2 (20240928.0832)
 -->
<!-- Title: G Pages: 1 -->
<svg width="96pt" height="149pt"
 viewBox="0.00 0.00 96.00 148.50" xmlns="http://www.w3.org/2000/svg" xmlns:xlink="http://www.w3.org/1999/xlink">
<g id="graph0" class="graph" transform="scale(1 1) rotate(0) translate(4 144.5)">
<title>G</title>
<polygon fill="white" stroke="none" points="-4,4 -4,-144.5 92,-144.5 92,4 -4,4"/>
<!-- Pila -->
<g id="node1" class="node">
<title>Pila</title>
<path fill="none" stroke="black" d="M33,-17C33,-17 76,-17 76,-17 82,-17 88,-23 88,-29 88,-29 88,-128 88,-128 88,-134 82,-140 76,-140 76,-140 33,-140 33,-140 27,-140 21,-134 21,-128 21,-128 21,-29 21,-29 21,-23 27,-17 33,-17"/>
<text text-anchor="middle" x="54.5" y="-122.7" font-family="Times New Roman,serif" font-size="14.00">Capibara</text>
<text text-anchor="middle" x="54.5" y="-106.2" font-family="Times New Roman,serif" font-size="14.00">416 px</text>
<polyline fill="none" stroke="black" points="21,-99 88,-99"/>
<text text-anchor="middle" x="54.5" y="-81.7" font-family="Times New Roman,serif" font-size="14.00">Mario</text>
<text text-anchor="middle" x="54.5" y="-65.2" font-family="Times New Roman,serif" font-size="14.00">12122 px</text>
<polyline fill="none" stroke="black" points="21,-58 88,-58"/>
<text text-anchor="middle" x="54.5" y="-40.7" font-family="Times New Roman,serif" font-size="14.00">Rana</text>
<text text-anchor="middle" x="54.5" y="-24.2" font-family="Times New Roman,serif" font-size="14.00">146 px</text>
<text text-anchor="middle" x="10.5" y="-3.2" font-family="Times New Roman,serif" font-size="14.00">Pila</text>
</g>
</g>
</svg>
